{"glyphs":{"0":{"ha":956,"x_min":84,"x_max":875,"o":"m 84 427 q 136 657 84 558 q 279 809 187 756 q 490 863 371 863 q 871 431 875 863 q 822 200 871 300 q 683 45 772 100 q 473 -11 593 -11 q 250 49 336 -11 q 123 207 163 109 q 84 427 84 305 m 658 425 q 613 635 658 554 q 477 715 568 715 q 344 643 391 715 q 298 441 298 570 q 318 290 298 359 q 380 179 338 221 q 484 136 422 136 q 614 211 570 136 q 658 425 658 286 z "},"1":{"ha":681,"x_min":86,"x_max":484,"o":"m 265 630 q 104 598 214 618 l 86 724 q 189 761 130 735 q 301 816 248 787 q 380 867 354 846 l 484 850 l 483 0 l 265 0 l 265 630 z "},"2":{"ha":923,"x_min":97,"x_max":820,"o":"m 820 179 l 820 0 l 126 0 l 97 105 q 412 326 273 203 q 550 568 550 449 q 514 669 550 631 q 406 708 477 708 q 281 681 342 708 q 182 617 219 654 l 102 741 q 182 804 134 774 q 298 856 231 835 q 440 876 364 876 q 631 839 557 876 q 739 741 705 802 q 772 607 772 681 q 686 374 772 485 q 442 165 600 262 l 820 179 z "},"3":{"ha":793,"x_min":52,"x_max":735,"o":"m 498 360 q 631 316 578 353 q 710 225 685 279 q 735 115 735 172 q 677 -59 735 19 q 514 -182 619 -138 q 274 -227 410 -227 q 189 -222 227 -227 q 134 -212 151 -216 q 83 -196 117 -207 l 83 -58 q 210 -73 155 -73 q 365 -52 297 -73 q 471 12 433 -31 q 510 113 510 54 q 464 237 510 191 q 316 279 417 283 l 222 255 l 193 389 q 284 414 240 399 q 359 444 329 428 q 463 596 463 503 q 425 676 463 650 q 323 702 387 702 q 208 683 255 702 q 115 633 160 664 l 52 766 q 120 812 73 788 q 229 852 168 836 q 352 869 291 869 q 533 838 460 869 q 644 752 607 808 q 681 622 681 696 q 630 465 681 532 q 498 360 580 399 z "},"4":{"ha":958,"x_min":68,"x_max":923,"o":"m 923 0 l 765 0 l 765 -255 l 562 -255 l 562 0 l 119 0 l 68 90 l 448 905 l 497 905 l 663 821 l 350 245 l 298 159 l 562 159 l 587 437 l 765 437 l 765 159 l 923 159 l 923 0 z "},"5":{"ha":877,"x_min":130,"x_max":781,"o":"m 131 -83 q 184 -85 168 -85 q 381 -54 295 -85 q 516 32 468 -24 q 564 159 564 87 q 519 270 564 234 q 370 306 475 305 q 283 294 331 306 q 169 261 235 283 l 135 281 l 180 849 l 754 849 l 735 668 l 333 668 l 311 441 q 405 459 365 453 q 481 465 444 465 q 643 428 575 465 q 745 324 710 391 q 781 166 781 256 q 712 -39 781 53 q 516 -185 643 -132 q 222 -240 389 -239 q 130 -231 161 -240 l 131 -83 z "},"6":{"ha":959,"x_min":86,"x_max":871,"o":"m 730 972 q 512 857 607 940 q 366 667 418 774 q 313 458 315 559 q 352 224 311 311 q 488 137 393 137 q 614 188 572 137 q 657 328 657 239 q 622 481 657 434 q 528 528 586 528 q 422 503 470 528 l 380 626 q 455 670 403 650 q 578 690 508 690 q 735 648 669 690 q 837 534 802 606 q 871 376 871 462 q 827 182 871 269 q 692 42 783 94 q 468 -11 601 -11 q 265 44 351 -11 q 132 192 178 99 q 86 397 86 286 q 178 738 86 585 q 409 984 271 890 q 679 1099 547 1078 l 730 972 z "},"7":{"ha":872,"x_min":72,"x_max":803,"o":"m 72 676 l 72 862 l 751 862 l 803 783 l 395 -267 l 179 -205 q 381 238 277 1 q 567 675 485 475 l 72 676 z "},"8":{"ha":920,"x_min":87,"x_max":838,"o":"m 838 275 q 789 119 838 184 q 657 22 741 55 q 469 -11 574 -11 q 271 20 357 -11 q 136 112 185 50 q 87 261 87 173 q 134 406 87 336 q 281 528 181 476 q 164 643 207 579 q 122 796 122 707 q 163 935 122 875 q 282 1028 205 995 q 463 1061 359 1061 q 640 1031 565 1061 q 755 947 715 1001 q 795 822 795 893 q 775 722 795 773 q 714 627 755 671 q 613 553 673 583 q 729 476 681 515 q 808 388 778 438 q 838 275 838 337 m 460 919 q 388 905 420 919 q 336 867 355 892 q 317 809 317 842 q 360 712 317 755 q 485 624 404 670 q 578 699 547 650 q 607 805 609 747 q 589 864 607 838 q 538 904 572 890 q 460 919 505 919 m 470 138 q 548 153 512 138 q 605 193 584 167 q 627 256 627 220 q 600 330 627 297 q 534 387 574 362 q 424 448 494 412 l 409 455 q 288 273 288 391 q 333 176 288 213 q 470 138 378 138 z "},"9":{"ha":968,"x_min":92,"x_max":873,"o":"m 494 863 q 698 808 612 863 q 829 660 784 753 q 873 454 873 567 q 780 105 873 262 q 546 -149 686 -52 q 273 -267 406 -245 l 217 -142 q 442 -22 345 -111 q 593 180 540 67 q 648 393 647 292 q 608 627 650 541 q 473 713 566 713 q 349 665 393 713 q 304 536 304 616 q 341 374 304 427 q 440 321 378 321 q 499 326 479 321 q 545 343 520 332 l 585 222 q 512 178 564 198 q 387 159 460 159 q 228 202 295 159 q 126 319 161 245 q 92 480 92 393 q 137 676 92 590 q 273 813 182 763 q 494 863 364 863 z "},"\u0000":{"ha":0,"x_min":0,"x_max":0,"o":""},"\r":{"ha":0,"x_min":0,"x_max":0,"o":""}," ":{"ha":454,"x_min":0,"x_max":0,"o":""},"A":{"ha":964,"x_min":-10,"x_max":974,"o":"m 669 218 l 290 218 l 222 0 l -10 0 l 371 1043 l 589 1043 l 974 0 l 739 0 l 669 218 m 620 374 l 508 728 l 479 834 l 449 728 l 338 374 l 620 374 z "},"Á":{"ha":964,"x_min":-10,"x_max":974,"o":"m 669 218 l 290 218 l 222 0 l -10 0 l 371 1043 l 589 1043 l 974 0 l 739 0 l 669 218 m 620 374 l 508 728 l 479 834 l 449 728 l 338 374 l 620 374 m 386 1131 q 506 1249 434 1176 q 586 1343 578 1321 l 733 1254 q 657 1171 703 1215 q 564 1092 611 1126 q 485 1046 517 1057 l 386 1131 z "},"Ă":{"ha":964,"x_min":-10,"x_max":974,"o":"m 669 218 l 290 218 l 222 0 l -10 0 l 371 1043 l 589 1043 l 974 0 l 739 0 l 669 218 m 620 374 l 508 728 l 479 834 l 449 728 l 338 374 l 620 374 m 364 1329 q 374 1284 366 1305 q 408 1247 382 1263 q 481 1232 433 1232 q 601 1329 593 1232 l 728 1329 q 702 1206 730 1259 q 617 1124 673 1154 q 481 1094 560 1094 q 343 1123 399 1094 q 259 1206 286 1153 q 235 1329 232 1259 l 364 1329 z "},"Ǎ":{"ha":964,"x_min":-10,"x_max":974,"o":"m 669 218 l 290 218 l 222 0 l -10 0 l 371 1043 l 589 1043 l 974 0 l 739 0 l 669 218 m 620 374 l 508 728 l 479 834 l 449 728 l 338 374 l 620 374 m 334 1329 l 483 1206 l 634 1329 l 739 1267 l 557 1069 l 409 1069 l 227 1267 l 334 1329 z "},"Â":{"ha":964,"x_min":-10,"x_max":974,"o":"m 669 218 l 290 218 l 222 0 l -10 0 l 371 1043 l 589 1043 l 974 0 l 739 0 l 669 218 m 620 374 l 508 728 l 479 834 l 449 728 l 338 374 l 620 374 m 408 1329 l 557 1329 l 744 1120 l 632 1057 l 482 1192 l 332 1057 l 222 1118 l 408 1329 z "},"Ä":{"ha":964,"x_min":-10,"x_max":974,"o":"m 669 218 l 290 218 l 222 0 l -10 0 l 371 1043 l 589 1043 l 974 0 l 739 0 l 669 218 m 620 374 l 508 728 l 479 834 l 449 728 l 338 374 l 620 374 m 184 1206 q 201 1268 184 1240 q 248 1313 218 1297 q 311 1329 277 1329 q 396 1299 366 1329 q 425 1218 425 1269 q 409 1155 425 1183 q 363 1111 392 1127 q 299 1095 334 1095 q 216 1125 247 1095 q 184 1206 184 1156 m 540 1206 q 557 1268 540 1240 q 603 1313 574 1297 q 667 1329 632 1329 q 751 1299 722 1329 q 780 1218 780 1269 q 764 1155 780 1183 q 719 1111 747 1127 q 654 1095 690 1095 q 571 1125 602 1095 q 540 1206 540 1156 z "},"À":{"ha":964,"x_min":-10,"x_max":974,"o":"m 669 218 l 290 218 l 222 0 l -10 0 l 371 1043 l 589 1043 l 974 0 l 739 0 l 669 218 m 620 374 l 508 728 l 479 834 l 449 728 l 338 374 l 620 374 m 481 1046 q 402 1092 451 1057 q 307 1173 354 1127 q 233 1254 259 1218 l 380 1343 q 444 1265 387 1321 q 580 1131 500 1208 l 481 1046 z "},"Ā":{"ha":964,"x_min":-10,"x_max":974,"o":"m 669 218 l 290 218 l 222 0 l -10 0 l 371 1043 l 589 1043 l 974 0 l 739 0 l 669 218 m 620 374 l 508 728 l 479 834 l 449 728 l 338 374 l 620 374 m 685 1283 l 685 1143 l 284 1143 l 284 1283 l 685 1283 z "},"Ą":{"ha":964,"x_min":-10,"x_max":974,"o":"m 805 -144 q 887 -211 805 -211 q 972 -197 924 -211 l 972 -304 q 901 -338 943 -326 q 816 -350 859 -350 q 732 -334 772 -350 q 667 -287 692 -317 q 639 -214 641 -256 q 678 -90 635 -145 q 785 0 722 -35 l 739 0 l 669 218 l 290 218 l 222 0 l -10 0 l 371 1043 l 589 1043 l 974 0 l 926 0 q 836 -71 867 -39 q 805 -144 805 -103 m 620 374 l 508 728 l 479 834 l 449 728 l 338 374 l 620 374 z "},"Å":{"ha":964,"x_min":-10,"x_max":974,"o":"m 669 218 l 290 218 l 222 0 l -10 0 l 349 984 q 275 1048 300 1006 q 249 1148 249 1090 q 282 1257 249 1215 q 369 1317 316 1299 q 484 1335 422 1335 q 652 1289 592 1335 q 712 1151 712 1242 q 685 1049 712 1090 q 610 986 658 1008 l 974 0 l 739 0 l 669 218 m 477 1236 q 401 1218 429 1236 q 374 1152 374 1199 q 403 1086 374 1109 q 480 1063 432 1063 q 561 1080 534 1062 q 588 1147 588 1097 q 557 1214 588 1192 q 477 1236 527 1236 m 620 374 l 508 728 l 479 834 l 449 728 l 338 374 l 620 374 z "},"Ã":{"ha":964,"x_min":-10,"x_max":974,"o":"m 669 218 l 290 218 l 222 0 l -10 0 l 371 1043 l 589 1043 l 974 0 l 739 0 l 669 218 m 620 374 l 508 728 l 479 834 l 449 728 l 338 374 l 620 374 m 188 1174 q 264 1284 212 1242 q 392 1327 317 1327 q 459 1314 433 1327 q 516 1276 486 1301 q 555 1248 539 1257 q 591 1239 570 1239 q 647 1260 622 1239 q 696 1314 672 1281 l 782 1241 q 706 1128 758 1171 q 580 1086 655 1086 q 515 1099 541 1086 q 460 1137 490 1112 q 418 1167 435 1158 q 377 1177 401 1177 q 323 1156 351 1177 q 273 1107 296 1136 l 188 1174 z "},"Æ":{"ha":1315,"x_min":-75,"x_max":1257,"o":"m 1257 170 l 1257 0 l 583 0 l 583 255 l 279 255 l 159 0 l -75 0 l 444 1032 l 1213 1032 l 1213 867 l 799 867 l 799 613 l 1116 613 l 1116 450 l 799 450 l 799 170 l 1257 170 m 583 406 l 583 898 l 351 406 l 583 406 z "},"Ǽ":{"ha":1315,"x_min":-75,"x_max":1257,"o":"m 614 1131 q 734 1249 662 1176 q 814 1343 806 1321 l 961 1254 q 885 1171 931 1215 q 792 1092 839 1126 q 713 1046 745 1057 l 614 1131 m 1257 170 l 1257 0 l 583 0 l 583 255 l 279 255 l 159 0 l -75 0 l 444 1032 l 1213 1032 l 1213 867 l 799 867 l 799 613 l 1116 613 l 1116 450 l 799 450 l 799 170 l 1257 170 m 583 406 l 583 898 l 351 406 l 583 406 z "},"B":{"ha":964,"x_min":127,"x_max":907,"o":"m 232 1032 q 329 1036 260 1032 q 475 1042 423 1042 q 687 1010 602 1042 q 812 919 771 977 q 852 781 852 860 q 834 677 852 725 q 781 595 816 629 q 698 549 746 562 q 806 511 759 542 q 881 429 854 480 q 907 313 907 378 q 811 75 907 160 q 485 -9 715 -9 q 237 0 387 -9 l 127 0 l 127 1033 l 232 1032 m 471 600 q 606 637 564 600 q 647 763 647 675 q 597 855 647 826 q 452 884 547 884 q 388 882 425 884 q 341 876 351 880 l 341 606 q 400 601 359 602 q 471 600 441 600 m 491 140 q 641 177 592 140 q 689 303 689 214 q 641 419 689 382 q 490 455 593 455 q 403 454 451 455 q 341 450 355 452 l 341 157 q 398 143 354 147 q 491 140 443 140 z "},"Ḃ":{"ha":964,"x_min":127,"x_max":907,"o":"m 360 1206 q 377 1268 360 1240 q 425 1312 395 1296 q 489 1329 454 1329 q 575 1298 545 1329 q 605 1217 605 1268 q 588 1155 605 1183 q 542 1111 571 1127 q 477 1095 512 1095 q 392 1125 425 1095 q 360 1206 360 1155 m 232 1032 q 329 1036 260 1032 q 475 1042 423 1042 q 687 1010 602 1042 q 812 919 771 977 q 852 781 852 860 q 834 677 852 725 q 781 595 816 629 q 698 549 746 562 q 806 511 759 542 q 881 429 854 480 q 907 313 907 378 q 811 75 907 160 q 485 -9 715 -9 q 237 0 387 -9 l 127 0 l 127 1033 l 232 1032 m 471 600 q 606 637 564 600 q 647 763 647 675 q 597 855 647 826 q 452 884 547 884 q 388 882 425 884 q 341 876 351 880 l 341 606 q 400 601 359 602 q 471 600 441 600 m 491 140 q 641 177 592 140 q 689 303 689 214 q 641 419 689 382 q 490 455 593 455 q 403 454 451 455 q 341 450 355 452 l 341 157 q 398 143 354 147 q 491 140 443 140 z "},"C":{"ha":881,"x_min":68,"x_max":854,"o":"m 574 1043 q 699 1036 649 1043 q 806 1014 749 1028 q 854 1003 847 1004 l 823 813 q 788 832 819 815 q 704 861 757 850 q 587 872 651 872 q 436 831 503 872 q 329 711 368 789 q 290 527 290 633 q 328 335 290 420 q 436 203 366 251 q 604 156 507 156 q 696 166 648 156 q 784 192 745 177 q 843 221 824 208 l 844 43 q 768 16 801 26 q 688 -3 735 5 q 583 -11 642 -11 q 310 55 427 -11 q 131 239 193 120 q 68 513 68 357 q 135 799 68 680 q 316 981 201 919 q 574 1043 431 1043 z "},"Ć":{"ha":881,"x_min":68,"x_max":854,"o":"m 574 1043 q 699 1036 649 1043 q 806 1014 749 1028 q 854 1003 847 1004 l 823 813 q 788 832 819 815 q 704 861 757 850 q 587 872 651 872 q 436 831 503 872 q 329 711 368 789 q 290 527 290 633 q 328 335 290 420 q 436 203 366 251 q 604 156 507 156 q 696 166 648 156 q 784 192 745 177 q 843 221 824 208 l 844 43 q 768 16 801 26 q 688 -3 735 5 q 583 -11 642 -11 q 310 55 427 -11 q 131 239 193 120 q 68 513 68 357 q 135 799 68 680 q 316 981 201 919 q 574 1043 431 1043 m 468 1131 q 588 1249 516 1176 q 668 1343 661 1321 l 815 1254 q 739 1171 785 1215 q 646 1092 693 1126 q 567 1046 599 1057 l 468 1131 z "},"Č":{"ha":881,"x_min":68,"x_max":854,"o":"m 574 1043 q 699 1036 649 1043 q 806 1014 749 1028 q 854 1003 847 1004 l 823 813 q 788 832 819 815 q 704 861 757 850 q 587 872 651 872 q 436 831 503 872 q 329 711 368 789 q 290 527 290 633 q 328 335 290 420 q 436 203 366 251 q 604 156 507 156 q 696 166 648 156 q 784 192 745 177 q 843 221 824 208 l 844 43 q 768 16 801 26 q 688 -3 735 5 q 583 -11 642 -11 q 310 55 427 -11 q 131 239 193 120 q 68 513 68 357 q 135 799 68 680 q 316 981 201 919 q 574 1043 431 1043 m 416 1329 l 565 1206 l 716 1329 l 821 1267 l 640 1069 l 491 1069 l 309 1267 l 416 1329 z "},"Ç":{"ha":881,"x_min":68,"x_max":854,"o":"m 844 43 q 744 9 789 22 q 636 -9 699 -4 q 654 -74 648 -36 q 659 -150 660 -111 q 607 -274 656 -233 q 486 -315 559 -315 q 415 -309 454 -315 q 363 -296 376 -303 l 377 -184 q 429 -193 392 -193 q 487 -168 464 -193 q 511 -92 509 -142 q 512 -68 512 -83 q 503 -6 512 -31 q 270 79 368 10 q 120 260 172 148 q 68 513 68 372 q 135 799 68 680 q 316 981 201 919 q 574 1043 431 1043 q 699 1036 649 1043 q 806 1014 749 1028 q 854 1003 847 1004 l 823 813 q 788 832 819 815 q 704 861 757 850 q 587 872 651 872 q 436 831 503 872 q 329 711 368 789 q 290 527 290 633 q 328 335 290 420 q 436 203 366 251 q 604 156 507 156 q 696 166 648 156 q 784 192 745 177 q 843 221 824 208 l 844 43 z "},"Ĉ":{"ha":881,"x_min":68,"x_max":854,"o":"m 574 1043 q 699 1036 649 1043 q 806 1014 749 1028 q 854 1003 847 1004 l 823 813 q 788 832 819 815 q 704 861 757 850 q 587 872 651 872 q 436 831 503 872 q 329 711 368 789 q 290 527 290 633 q 328 335 290 420 q 436 203 366 251 q 604 156 507 156 q 696 166 648 156 q 784 192 745 177 q 843 221 824 208 l 844 43 q 768 16 801 26 q 688 -3 735 5 q 583 -11 642 -11 q 310 55 427 -11 q 131 239 193 120 q 68 513 68 357 q 135 799 68 680 q 316 981 201 919 q 574 1043 431 1043 m 490 1329 l 639 1329 l 826 1120 l 714 1057 l 564 1192 l 414 1057 l 304 1118 l 490 1329 z "},"Ċ":{"ha":881,"x_min":68,"x_max":854,"o":"m 446 1205 q 463 1267 446 1239 q 510 1312 480 1295 q 574 1328 540 1328 q 660 1298 630 1328 q 690 1217 690 1267 q 673 1154 690 1182 q 627 1110 656 1126 q 562 1094 597 1094 q 478 1124 510 1094 q 446 1205 446 1154 m 574 1043 q 699 1036 649 1043 q 806 1014 749 1028 q 854 1003 847 1004 l 823 813 q 788 832 819 815 q 704 861 757 850 q 587 872 651 872 q 436 831 503 872 q 329 711 368 789 q 290 527 290 633 q 328 335 290 420 q 436 203 366 251 q 604 156 507 156 q 696 166 648 156 q 784 192 745 177 q 843 221 824 208 l 844 43 q 768 16 801 26 q 688 -3 735 5 q 583 -11 642 -11 q 310 55 427 -11 q 131 239 193 120 q 68 513 68 357 q 135 799 68 680 q 316 981 201 919 q 574 1043 431 1043 z "},"D":{"ha":1054,"x_min":127,"x_max":986,"o":"m 230 1032 q 317 1036 252 1032 q 480 1043 408 1043 q 860 914 734 1043 q 986 543 986 785 q 923 245 986 370 q 744 55 860 121 q 470 -11 627 -11 q 325 -5 421 -11 q 232 0 266 0 l 127 0 l 127 1032 l 230 1032 m 484 155 q 685 245 612 156 q 758 520 758 334 q 726 732 758 653 q 629 846 694 811 q 460 880 564 880 q 372 873 424 880 l 345 871 l 345 167 q 484 155 391 155 z "},"Ǳ":{"ha":1940,"x_min":127,"x_max":1891,"o":"m 230 1032 q 317 1036 252 1032 q 480 1043 408 1043 q 860 914 734 1043 q 986 543 986 785 q 923 245 986 370 q 744 55 860 121 q 470 -11 627 -11 q 325 -5 421 -11 q 232 0 266 0 l 127 0 l 127 1032 l 230 1032 m 484 155 q 685 245 612 156 q 758 520 758 334 q 726 732 758 653 q 629 846 694 811 q 460 880 564 880 q 372 873 424 880 l 345 871 l 345 167 q 484 155 391 155 m 1556 821 l 1595 876 l 1142 876 l 1142 1032 l 1866 1032 l 1891 977 l 1436 227 l 1386 164 l 1865 164 l 1865 0 l 1118 0 l 1090 57 l 1556 821 z "},"Ǆ":{"ha":1940,"x_min":127,"x_max":1891,"o":"m 230 1032 q 317 1036 252 1032 q 480 1043 408 1043 q 860 914 734 1043 q 986 543 986 785 q 923 245 986 370 q 744 55 860 121 q 470 -11 627 -11 q 325 -5 421 -11 q 232 0 266 0 l 127 0 l 127 1032 l 230 1032 m 484 155 q 685 245 612 156 q 758 520 758 334 q 726 732 758 653 q 629 846 694 811 q 460 880 564 880 q 372 873 424 880 l 345 871 l 345 167 q 484 155 391 155 m 1556 821 l 1595 876 l 1142 876 l 1142 1032 l 1866 1032 l 1891 977 l 1436 227 l 1386 164 l 1865 164 l 1865 0 l 1118 0 l 1090 57 l 1556 821 m 1364 1329 l 1513 1206 l 1664 1329 l 1769 1267 l 1588 1069 l 1439 1069 l 1257 1267 l 1364 1329 z "},"Ð":{"ha":1054,"x_min":47,"x_max":986,"o":"m 480 1043 q 860 914 734 1043 q 986 543 986 785 q 923 245 986 370 q 744 55 860 121 q 470 -11 627 -11 q 325 -5 421 -11 q 232 0 266 0 l 127 0 l 127 471 l 47 471 l 47 607 l 127 607 l 127 1032 l 230 1032 q 317 1036 252 1032 q 480 1043 408 1043 m 484 155 q 685 245 612 156 q 758 520 758 334 q 726 732 758 653 q 629 846 694 811 q 460 880 564 880 q 372 873 424 880 l 345 871 l 345 607 l 574 607 l 574 471 l 345 471 l 345 167 q 484 155 391 155 z "},"Ď":{"ha":1054,"x_min":127,"x_max":986,"o":"m 371 1329 l 520 1206 l 671 1329 l 776 1267 l 595 1069 l 446 1069 l 264 1267 l 371 1329 m 230 1032 q 317 1036 252 1032 q 480 1043 408 1043 q 860 914 734 1043 q 986 543 986 785 q 923 245 986 370 q 744 55 860 121 q 470 -11 627 -11 q 325 -5 421 -11 q 232 0 266 0 l 127 0 l 127 1032 l 230 1032 m 484 155 q 685 245 612 156 q 758 520 758 334 q 726 732 758 653 q 629 846 694 811 q 460 880 564 880 q 372 873 424 880 l 345 871 l 345 167 q 484 155 391 155 z "},"Đ":{"ha":1054,"x_min":47,"x_max":986,"o":"m 480 1043 q 860 914 734 1043 q 986 543 986 785 q 923 245 986 370 q 744 55 860 121 q 470 -11 627 -11 q 325 -5 421 -11 q 232 0 266 0 l 127 0 l 127 471 l 47 471 l 47 607 l 127 607 l 127 1032 l 230 1032 q 317 1036 252 1032 q 480 1043 408 1043 m 484 155 q 685 245 612 156 q 758 520 758 334 q 726 732 758 653 q 629 846 694 811 q 460 880 564 880 q 372 873 424 880 l 345 871 l 345 607 l 574 607 l 574 471 l 345 471 l 345 167 q 484 155 391 155 z "},"Ḋ":{"ha":1054,"x_min":127,"x_max":986,"o":"m 401 1205 q 418 1267 401 1239 q 465 1312 435 1295 q 530 1328 495 1328 q 615 1298 585 1328 q 646 1217 646 1267 q 629 1154 646 1182 q 582 1110 612 1126 q 517 1094 553 1094 q 433 1124 465 1094 q 401 1205 401 1154 m 230 1032 q 317 1036 252 1032 q 480 1043 408 1043 q 860 914 734 1043 q 986 543 986 785 q 923 245 986 370 q 744 55 860 121 q 470 -11 627 -11 q 325 -5 421 -11 q 232 0 266 0 l 127 0 l 127 1032 l 230 1032 m 484 155 q 685 245 612 156 q 758 520 758 334 q 726 732 758 653 q 629 846 694 811 q 460 880 564 880 q 372 873 424 880 l 345 871 l 345 167 q 484 155 391 155 z "},"ǲ":{"ha":1805,"x_min":127,"x_max":1763,"o":"m 230 1032 q 317 1036 252 1032 q 480 1043 408 1043 q 860 914 734 1043 q 986 543 986 785 q 923 245 986 370 q 744 55 860 121 q 470 -11 627 -11 q 325 -5 421 -11 q 232 0 266 0 l 127 0 l 127 1032 l 230 1032 m 484 155 q 685 245 612 156 q 758 520 758 334 q 726 732 758 653 q 629 846 694 811 q 460 880 564 880 q 372 873 424 880 l 345 871 l 345 167 q 484 155 391 155 m 1442 570 l 1481 626 l 1150 626 l 1152 773 l 1739 773 l 1763 709 l 1434 203 l 1393 146 l 1752 146 l 1752 0 l 1134 0 l 1105 56 l 1442 570 z "},"ǅ":{"ha":1805,"x_min":127,"x_max":1763,"o":"m 230 1032 q 317 1036 252 1032 q 480 1043 408 1043 q 860 914 734 1043 q 986 543 986 785 q 923 245 986 370 q 744 55 860 121 q 470 -11 627 -11 q 325 -5 421 -11 q 232 0 266 0 l 127 0 l 127 1032 l 230 1032 m 484 155 q 685 245 612 156 q 758 520 758 334 q 726 732 758 653 q 629 846 694 811 q 460 880 564 880 q 372 873 424 880 l 345 871 l 345 167 q 484 155 391 155 m 1442 570 l 1481 626 l 1150 626 l 1152 773 l 1739 773 l 1763 709 l 1434 203 l 1393 146 l 1752 146 l 1752 0 l 1134 0 l 1105 56 l 1442 570 m 1440 994 l 1598 1161 l 1708 1100 l 1516 848 l 1364 848 l 1171 1101 l 1276 1161 l 1440 994 z "},"E":{"ha":850,"x_min":127,"x_max":801,"o":"m 757 1032 l 757 867 l 343 867 l 343 610 l 661 610 l 661 447 l 343 447 l 343 170 l 801 170 l 801 0 l 127 0 l 127 1032 l 757 1032 z "},"É":{"ha":850,"x_min":127,"x_max":801,"o":"m 378 1131 q 499 1249 427 1176 q 578 1343 571 1321 l 726 1254 q 650 1171 696 1215 q 556 1092 604 1126 q 477 1046 509 1057 l 378 1131 m 757 1032 l 757 867 l 343 867 l 343 610 l 661 610 l 661 447 l 343 447 l 343 170 l 801 170 l 801 0 l 127 0 l 127 1032 l 757 1032 z "},"Ĕ":{"ha":850,"x_min":127,"x_max":801,"o":"m 357 1329 q 367 1284 359 1305 q 400 1247 375 1263 q 474 1232 426 1232 q 593 1329 585 1232 l 720 1329 q 694 1206 723 1259 q 609 1124 666 1154 q 474 1094 553 1094 q 335 1123 392 1094 q 252 1206 279 1153 q 227 1329 224 1259 l 357 1329 m 757 1032 l 757 867 l 343 867 l 343 610 l 661 610 l 661 447 l 343 447 l 343 170 l 801 170 l 801 0 l 127 0 l 127 1032 l 757 1032 z "},"Ě":{"ha":850,"x_min":127,"x_max":801,"o":"m 326 1329 l 475 1206 l 627 1329 l 731 1267 l 550 1069 l 401 1069 l 220 1267 l 326 1329 m 757 1032 l 757 867 l 343 867 l 343 610 l 661 610 l 661 447 l 343 447 l 343 170 l 801 170 l 801 0 l 127 0 l 127 1032 l 757 1032 z "},"Ê":{"ha":850,"x_min":127,"x_max":801,"o":"m 757 1032 l 757 867 l 343 867 l 343 610 l 661 610 l 661 447 l 343 447 l 343 170 l 801 170 l 801 0 l 127 0 l 127 1032 l 757 1032 m 400 1329 l 549 1329 l 736 1120 l 625 1057 l 475 1192 l 324 1057 l 214 1118 l 400 1329 z "},"Ë":{"ha":850,"x_min":127,"x_max":801,"o":"m 177 1206 q 194 1268 177 1240 q 240 1313 211 1297 q 304 1329 269 1329 q 388 1299 359 1329 q 418 1218 418 1269 q 401 1155 418 1183 q 356 1111 385 1127 q 292 1095 327 1095 q 208 1125 239 1095 q 177 1206 177 1156 m 532 1206 q 549 1268 532 1240 q 595 1313 566 1297 q 659 1329 625 1329 q 743 1299 714 1329 q 772 1218 772 1269 q 756 1155 772 1183 q 711 1111 740 1127 q 646 1095 682 1095 q 564 1125 595 1095 q 532 1206 532 1156 m 757 1032 l 757 867 l 343 867 l 343 610 l 661 610 l 661 447 l 343 447 l 343 170 l 801 170 l 801 0 l 127 0 l 127 1032 l 757 1032 z "},"Ė":{"ha":850,"x_min":127,"x_max":801,"o":"m 356 1205 q 373 1267 356 1239 q 420 1312 391 1295 q 485 1328 450 1328 q 571 1298 541 1328 q 601 1217 601 1267 q 584 1154 601 1182 q 537 1110 567 1126 q 473 1094 508 1094 q 388 1124 420 1094 q 356 1205 356 1154 m 757 1032 l 757 867 l 343 867 l 343 610 l 661 610 l 661 447 l 343 447 l 343 170 l 801 170 l 801 0 l 127 0 l 127 1032 l 757 1032 z "},"È":{"ha":850,"x_min":127,"x_max":801,"o":"m 473 1046 q 395 1092 444 1057 q 299 1173 347 1127 q 225 1254 252 1218 l 372 1343 q 436 1265 380 1321 q 572 1131 492 1208 l 473 1046 m 757 1032 l 757 867 l 343 867 l 343 610 l 661 610 l 661 447 l 343 447 l 343 170 l 801 170 l 801 0 l 127 0 l 127 1032 l 757 1032 z "},"Ē":{"ha":850,"x_min":127,"x_max":801,"o":"m 677 1283 l 677 1143 l 277 1143 l 277 1283 l 677 1283 m 757 1032 l 757 867 l 343 867 l 343 610 l 661 610 l 661 447 l 343 447 l 343 170 l 801 170 l 801 0 l 127 0 l 127 1032 l 757 1032 z "},"Ę":{"ha":850,"x_min":127,"x_max":805,"o":"m 720 -211 q 805 -197 758 -211 l 805 -304 q 734 -338 776 -326 q 649 -350 692 -350 q 566 -334 606 -350 q 500 -287 526 -317 q 472 -214 474 -256 q 511 -90 468 -145 q 618 0 555 -35 l 127 0 l 127 1032 l 757 1032 l 757 867 l 343 867 l 343 610 l 661 610 l 661 447 l 343 447 l 343 170 l 801 170 l 801 0 l 760 0 q 669 -71 700 -39 q 638 -144 638 -103 q 720 -211 638 -211 z "},"F":{"ha":777,"x_min":127,"x_max":753,"o":"m 753 1032 l 753 867 l 346 867 l 346 596 l 646 596 l 646 430 l 346 430 l 346 0 l 127 0 l 127 1032 l 753 1032 z "},"Ḟ":{"ha":777,"x_min":127,"x_max":753,"o":"m 342 1206 q 360 1268 342 1240 q 407 1312 377 1296 q 471 1329 437 1329 q 557 1298 527 1329 q 587 1217 587 1268 q 570 1155 587 1183 q 524 1111 553 1127 q 459 1095 494 1095 q 375 1125 407 1095 q 342 1206 342 1155 m 753 1032 l 753 867 l 346 867 l 346 596 l 646 596 l 646 430 l 346 430 l 346 0 l 127 0 l 127 1032 l 753 1032 z "},"G":{"ha":1013,"x_min":68,"x_max":930,"o":"m 930 556 l 930 61 q 901 56 917 60 q 858 41 886 51 q 724 3 789 18 q 561 -11 659 -11 q 295 53 406 -11 q 126 235 184 117 q 68 511 68 353 q 135 809 68 690 q 317 986 201 928 q 583 1043 433 1043 q 709 1036 661 1043 q 812 1016 756 1029 q 874 1002 847 1007 l 867 817 q 749 858 810 844 q 583 872 687 872 q 428 831 494 872 q 328 713 363 790 q 292 529 292 636 q 321 337 292 422 q 408 204 349 253 q 553 155 466 155 q 726 180 656 155 l 726 387 l 568 395 l 568 556 l 930 556 z "},"Ǵ":{"ha":1013,"x_min":68,"x_max":930,"o":"m 930 556 l 930 61 q 901 56 917 60 q 858 41 886 51 q 724 3 789 18 q 561 -11 659 -11 q 295 53 406 -11 q 126 235 184 117 q 68 511 68 353 q 135 809 68 690 q 317 986 201 928 q 583 1043 433 1043 q 709 1036 661 1043 q 812 1016 756 1029 q 874 1002 847 1007 l 867 817 q 749 858 810 844 q 583 872 687 872 q 428 831 494 872 q 328 713 363 790 q 292 529 292 636 q 321 337 292 422 q 408 204 349 253 q 553 155 466 155 q 726 180 656 155 l 726 387 l 568 395 l 568 556 l 930 556 m 474 1132 q 594 1249 522 1177 q 674 1343 667 1322 l 821 1255 q 745 1172 791 1216 q 652 1093 699 1127 q 573 1047 605 1058 l 474 1132 z "},"Ğ":{"ha":1013,"x_min":68,"x_max":930,"o":"m 452 1329 q 463 1285 454 1305 q 496 1248 471 1264 q 570 1232 522 1232 q 689 1329 681 1232 l 816 1329 q 790 1207 819 1260 q 705 1124 762 1154 q 570 1095 648 1095 q 431 1124 488 1095 q 347 1206 374 1154 q 323 1329 320 1259 l 452 1329 m 930 556 l 930 61 q 901 56 917 60 q 858 41 886 51 q 724 3 789 18 q 561 -11 659 -11 q 295 53 406 -11 q 126 235 184 117 q 68 511 68 353 q 135 809 68 690 q 317 986 201 928 q 583 1043 433 1043 q 709 1036 661 1043 q 812 1016 756 1029 q 874 1002 847 1007 l 867 817 q 749 858 810 844 q 583 872 687 872 q 428 831 494 872 q 328 713 363 790 q 292 529 292 636 q 321 337 292 422 q 408 204 349 253 q 553 155 466 155 q 726 180 656 155 l 726 387 l 568 395 l 568 556 l 930 556 z "},"Ǧ":{"ha":1013,"x_min":68,"x_max":930,"o":"m 930 556 l 930 61 q 901 56 917 60 q 858 41 886 51 q 724 3 789 18 q 561 -11 659 -11 q 295 53 406 -11 q 126 235 184 117 q 68 511 68 353 q 135 809 68 690 q 317 986 201 928 q 583 1043 433 1043 q 709 1036 661 1043 q 812 1016 756 1029 q 874 1002 847 1007 l 867 817 q 749 858 810 844 q 583 872 687 872 q 428 831 494 872 q 328 713 363 790 q 292 529 292 636 q 321 337 292 422 q 408 204 349 253 q 553 155 466 155 q 726 180 656 155 l 726 387 l 568 395 l 568 556 l 930 556 m 422 1330 l 571 1207 l 722 1330 l 827 1268 l 646 1069 l 497 1069 l 315 1267 l 422 1330 z "},"Ĝ":{"ha":1013,"x_min":68,"x_max":930,"o":"m 930 556 l 930 61 q 901 56 917 60 q 858 41 886 51 q 724 3 789 18 q 561 -11 659 -11 q 295 53 406 -11 q 126 235 184 117 q 68 511 68 353 q 135 809 68 690 q 317 986 201 928 q 583 1043 433 1043 q 709 1036 661 1043 q 812 1016 756 1029 q 874 1002 847 1007 l 867 817 q 749 858 810 844 q 583 872 687 872 q 428 831 494 872 q 328 713 363 790 q 292 529 292 636 q 321 337 292 422 q 408 204 349 253 q 553 155 466 155 q 726 180 656 155 l 726 387 l 568 395 l 568 556 l 930 556 m 496 1329 l 645 1329 l 832 1120 l 720 1058 l 570 1193 l 420 1058 l 310 1119 l 496 1329 z "},"Ģ":{"ha":1013,"x_min":68,"x_max":930,"o":"m 493 -332 q 513 -240 513 -310 q 500 -190 513 -214 q 471 -159 486 -165 l 471 -125 l 596 -58 q 629 -79 612 -62 q 658 -125 646 -96 q 670 -191 670 -154 q 652 -282 670 -241 q 609 -348 633 -323 q 568 -380 585 -374 l 493 -350 l 493 -332 m 930 556 l 930 61 q 901 56 917 60 q 858 41 886 51 q 724 3 789 18 q 561 -11 659 -11 q 295 53 406 -11 q 126 235 184 117 q 68 511 68 353 q 135 809 68 690 q 317 986 201 928 q 583 1043 433 1043 q 709 1036 661 1043 q 812 1016 756 1029 q 874 1002 847 1007 l 867 817 q 749 858 810 844 q 583 872 687 872 q 428 831 494 872 q 328 713 363 790 q 292 529 292 636 q 321 337 292 422 q 408 204 349 253 q 553 155 466 155 q 726 180 656 155 l 726 387 l 568 395 l 568 556 l 930 556 z "},"Ġ":{"ha":1013,"x_min":68,"x_max":930,"o":"m 452 1206 q 469 1268 452 1240 q 516 1312 486 1296 q 581 1329 546 1329 q 666 1298 636 1329 q 696 1217 696 1268 q 680 1155 696 1183 q 633 1111 663 1127 q 568 1095 604 1095 q 484 1125 516 1095 q 452 1206 452 1155 m 930 556 l 930 61 q 901 56 917 60 q 858 41 886 51 q 724 3 789 18 q 561 -11 659 -11 q 295 53 406 -11 q 126 235 184 117 q 68 511 68 353 q 135 809 68 690 q 317 986 201 928 q 583 1043 433 1043 q 709 1036 661 1043 q 812 1016 756 1029 q 874 1002 847 1007 l 867 817 q 749 858 810 844 q 583 872 687 872 q 428 831 494 872 q 328 713 363 790 q 292 529 292 636 q 321 337 292 422 q 408 204 349 253 q 553 155 466 155 q 726 180 656 155 l 726 387 l 568 395 l 568 556 l 930 556 z "},"Ḡ":{"ha":1013,"x_min":68,"x_max":930,"o":"m 930 556 l 930 61 q 901 56 917 60 q 858 41 886 51 q 724 3 789 18 q 561 -11 659 -11 q 295 53 406 -11 q 126 235 184 117 q 68 511 68 353 q 135 809 68 690 q 317 986 201 928 q 583 1043 433 1043 q 709 1036 661 1043 q 812 1016 756 1029 q 874 1002 847 1007 l 867 817 q 749 858 810 844 q 583 872 687 872 q 428 831 494 872 q 328 713 363 790 q 292 529 292 636 q 321 337 292 422 q 408 204 349 253 q 553 155 466 155 q 726 180 656 155 l 726 387 l 568 395 l 568 556 l 930 556 m 773 1284 l 773 1144 l 372 1144 l 372 1284 l 773 1284 z "},"H":{"ha":1086,"x_min":127,"x_max":958,"o":"m 343 1032 l 343 604 l 745 604 l 745 1032 l 958 1032 l 958 0 l 745 0 l 745 441 l 343 441 l 343 0 l 127 0 l 127 1032 l 343 1032 z "},"Ħ":{"ha":1099,"x_min":16,"x_max":1084,"o":"m 1084 709 l 972 709 l 972 0 l 753 0 l 753 421 l 346 421 l 346 0 l 127 0 l 127 709 l 16 709 l 16 839 l 127 839 l 127 1032 l 346 1032 l 346 839 l 753 839 l 753 1032 l 972 1032 l 972 839 l 1084 839 l 1084 709 m 753 709 l 346 709 l 346 579 l 753 579 l 753 709 z "},"Ĥ":{"ha":1086,"x_min":127,"x_max":958,"o":"m 343 1032 l 343 604 l 745 604 l 745 1032 l 958 1032 l 958 0 l 745 0 l 745 441 l 343 441 l 343 0 l 127 0 l 127 1032 l 343 1032 m 468 1329 l 617 1329 l 804 1120 l 692 1057 l 543 1192 l 392 1057 l 282 1118 l 468 1329 z "},"I":{"ha":490,"x_min":136,"x_max":353,"o":"m 353 1032 l 353 0 l 136 0 l 136 1032 l 353 1032 z "},"Ĳ":{"ha":1031,"x_min":136,"x_max":897,"o":"m 353 1032 l 353 0 l 136 0 l 136 1032 l 353 1032 m 483 -111 q 592 -42 545 -88 q 657 79 640 4 q 674 212 670 133 q 679 412 679 291 l 679 1032 l 896 1032 l 896 416 l 897 264 q 894 152 897 200 q 883 62 891 103 q 807 -92 866 -27 q 673 -190 748 -156 q 535 -225 598 -223 l 483 -111 z "},"Í":{"ha":490,"x_min":136,"x_max":496,"o":"m 353 1032 l 353 0 l 136 0 l 136 1032 l 353 1032 m 149 1131 q 269 1249 197 1176 q 349 1343 341 1321 l 496 1254 q 420 1171 466 1215 q 327 1092 374 1126 q 248 1046 279 1057 l 149 1131 z "},"Ĭ":{"ha":490,"x_min":-5,"x_max":493,"o":"m 353 1032 l 353 0 l 136 0 l 136 1032 l 353 1032 m 127 1329 q 137 1284 129 1305 q 171 1247 145 1263 q 244 1232 196 1232 q 363 1329 355 1232 l 490 1329 q 465 1206 493 1259 q 379 1124 436 1154 q 244 1094 323 1094 q 105 1123 162 1094 q 22 1206 49 1153 q -3 1329 -5 1259 l 127 1329 z "},"Ǐ":{"ha":490,"x_min":-10,"x_max":501,"o":"m 353 1032 l 353 0 l 136 0 l 136 1032 l 353 1032 m 96 1329 l 245 1206 l 397 1329 l 501 1267 l 320 1069 l 172 1069 l -10 1267 l 96 1329 z "},"Î":{"ha":490,"x_min":-16,"x_max":507,"o":"m 353 1032 l 353 0 l 136 0 l 136 1032 l 353 1032 m 170 1329 l 319 1329 l 507 1120 l 395 1057 l 245 1192 l 94 1057 l -16 1118 l 170 1329 z "},"Ï":{"ha":490,"x_min":-53,"x_max":543,"o":"m 353 1032 l 353 0 l 136 0 l 136 1032 l 353 1032 m -53 1206 q -36 1268 -53 1240 q 10 1313 -19 1297 q 74 1329 39 1329 q 158 1299 129 1329 q 188 1218 188 1269 q 171 1155 188 1183 q 126 1111 155 1127 q 62 1095 97 1095 q -22 1125 9 1095 q -53 1206 -53 1156 m 302 1206 q 319 1268 302 1240 q 366 1313 336 1297 q 429 1329 395 1329 q 513 1299 484 1329 q 543 1218 543 1269 q 526 1155 543 1183 q 481 1111 510 1127 q 416 1095 452 1095 q 334 1125 365 1095 q 302 1206 302 1156 z "},"İ":{"ha":490,"x_min":126,"x_max":371,"o":"m 353 1032 l 353 0 l 136 0 l 136 1032 l 353 1032 m 126 1205 q 143 1267 126 1239 q 191 1312 161 1295 q 255 1328 220 1328 q 341 1298 311 1328 q 371 1217 371 1267 q 354 1154 371 1182 q 308 1110 337 1126 q 243 1094 278 1094 q 158 1124 191 1094 q 126 1205 126 1154 z "},"Ì":{"ha":490,"x_min":-5,"x_max":353,"o":"m 353 1032 l 353 0 l 136 0 l 136 1032 l 353 1032 m 243 1046 q 165 1092 214 1057 q 69 1173 117 1127 q -5 1254 22 1218 l 142 1343 q 206 1265 150 1321 q 342 1131 262 1208 l 243 1046 z "},"Ī":{"ha":490,"x_min":47,"x_max":448,"o":"m 353 1032 l 353 0 l 136 0 l 136 1032 l 353 1032 m 448 1283 l 448 1143 l 47 1143 l 47 1283 l 448 1283 z "},"Į":{"ha":496,"x_min":24,"x_max":361,"o":"m 276 -211 q 361 -197 313 -211 l 361 -304 q 290 -338 332 -326 q 205 -350 248 -350 q 121 -334 161 -350 q 56 -287 81 -317 q 28 -214 30 -256 q 67 -90 24 -145 q 174 0 111 -35 l 136 0 l 136 1032 l 353 1032 l 353 0 l 315 0 q 225 -71 256 -39 q 194 -144 194 -103 q 276 -211 194 -211 z "},"Ĩ":{"ha":490,"x_min":-50,"x_max":545,"o":"m 353 1032 l 353 0 l 136 0 l 136 1032 l 353 1032 m -50 1174 q 27 1284 -26 1242 q 155 1327 80 1327 q 222 1314 195 1327 q 279 1276 248 1301 q 317 1248 302 1257 q 354 1239 333 1239 q 410 1260 385 1239 q 459 1314 435 1281 l 545 1241 q 469 1128 520 1171 q 342 1086 418 1086 q 278 1099 303 1086 q 222 1137 252 1112 q 180 1167 197 1158 q 140 1177 163 1177 q 86 1156 113 1177 q 35 1107 58 1136 l -50 1174 z "},"J":{"ha":541,"x_min":-7,"x_max":407,"o":"m -7 -111 q 102 -42 55 -88 q 168 79 150 4 q 185 212 180 133 q 189 412 189 291 l 189 1032 l 406 1032 l 406 416 l 407 264 q 404 152 407 200 q 393 62 401 103 q 317 -92 376 -27 q 183 -190 258 -156 q 45 -225 109 -223 l -7 -111 z "},"Ĵ":{"ha":541,"x_min":-7,"x_max":555,"o":"m -7 -111 q 102 -42 55 -88 q 168 79 150 4 q 185 212 180 133 q 189 412 189 291 l 189 1032 l 406 1032 l 406 416 l 407 264 q 404 152 407 200 q 393 62 401 103 q 317 -92 376 -27 q 183 -190 258 -156 q 45 -225 109 -223 l -7 -111 m 218 1329 l 368 1329 l 555 1120 l 443 1058 l 293 1193 l 142 1058 l 33 1119 l 218 1329 z "},"K":{"ha":979,"x_min":127,"x_max":957,"o":"m 957 0 l 717 0 q 697 35 709 11 q 688 52 694 41 q 674 77 683 62 q 563 264 623 168 q 450 438 503 361 l 343 318 l 343 0 l 127 0 l 127 1032 l 343 1032 l 343 575 l 706 1032 l 943 1032 l 595 595 q 743 360 640 529 q 913 75 846 191 l 957 0 z "},"Ķ":{"ha":979,"x_min":127,"x_max":957,"o":"m 444 -332 q 464 -240 464 -310 q 450 -190 464 -214 q 422 -159 437 -165 l 422 -125 l 547 -58 q 579 -79 562 -62 q 609 -125 597 -96 q 621 -191 621 -154 q 602 -282 621 -241 q 560 -348 584 -323 q 519 -380 536 -374 l 444 -350 l 444 -332 m 957 0 l 717 0 q 697 35 709 11 q 688 52 694 41 q 674 77 683 62 q 563 264 623 168 q 450 438 503 361 l 343 318 l 343 0 l 127 0 l 127 1032 l 343 1032 l 343 575 l 706 1032 l 943 1032 l 595 595 q 743 360 640 529 q 913 75 846 191 l 957 0 z "},"L":{"ha":760,"x_min":127,"x_max":715,"o":"m 343 1032 l 343 164 l 715 164 l 715 0 l 127 0 l 127 1032 l 343 1032 z "},"Ǉ":{"ha":1301,"x_min":127,"x_max":1166,"o":"m 343 1032 l 343 164 l 715 164 l 715 0 l 127 0 l 127 1032 l 343 1032 m 753 -111 q 862 -42 814 -88 q 927 79 909 4 q 944 212 940 133 q 949 412 949 291 l 949 1032 l 1166 1032 l 1166 416 l 1166 264 q 1164 152 1166 200 q 1153 62 1161 103 q 1077 -92 1136 -27 q 943 -190 1018 -156 q 805 -225 868 -223 l 753 -111 z "},"Ĺ":{"ha":760,"x_min":127,"x_max":715,"o":"m 140 1131 q 261 1249 189 1176 q 340 1343 333 1321 l 488 1254 q 412 1171 458 1215 q 318 1092 366 1126 q 239 1046 271 1057 l 140 1131 m 343 1032 l 343 164 l 715 164 l 715 0 l 127 0 l 127 1032 l 343 1032 z "},"Ľ":{"ha":760,"x_min":127,"x_max":745,"o":"m 343 1032 l 343 164 l 715 164 l 715 0 l 127 0 l 127 1032 l 343 1032 m 568 720 q 579 808 575 751 q 583 920 584 865 q 571 1008 583 966 q 543 1067 559 1050 l 551 1111 l 697 1158 q 745 977 745 1113 q 733 861 745 921 q 701 753 720 801 q 664 685 682 706 l 574 704 l 568 720 z "},"Ļ":{"ha":760,"x_min":127,"x_max":715,"o":"m 353 -332 q 373 -240 373 -310 q 359 -190 373 -214 q 331 -159 346 -165 l 331 -125 l 456 -58 q 489 -79 471 -62 q 518 -125 506 -96 q 530 -191 530 -154 q 511 -282 530 -241 q 469 -348 493 -323 q 428 -380 445 -374 l 353 -350 l 353 -332 m 343 1032 l 343 164 l 715 164 l 715 0 l 127 0 l 127 1032 l 343 1032 z "},"Ŀ":{"ha":956,"x_min":127,"x_max":863,"o":"m 599 574 q 618 645 599 612 q 669 697 637 677 q 737 717 701 717 q 804 700 776 717 q 848 652 833 682 q 863 584 863 621 q 844 513 863 546 q 794 461 826 481 q 726 442 763 442 q 661 459 690 442 q 615 507 631 477 q 599 574 599 537 m 343 1032 l 343 164 l 715 164 l 715 0 l 127 0 l 127 1032 l 343 1032 z "},"ǈ":{"ha":1196,"x_min":127,"x_max":1108,"o":"m 343 1032 l 343 164 l 715 164 l 715 0 l 127 0 l 127 1032 l 343 1032 m 689 -191 q 725 -201 699 -196 q 768 -206 751 -206 q 833 -187 810 -206 q 867 -123 857 -168 q 878 1 878 -78 l 878 773 l 1089 773 l 1089 56 q 1017 -249 1089 -153 q 808 -344 945 -344 q 744 -338 787 -344 q 689 -328 701 -332 l 689 -191 m 851 1002 q 870 1065 851 1036 q 920 1112 889 1095 q 986 1129 951 1129 q 1075 1097 1042 1129 q 1108 1014 1108 1065 q 1089 950 1108 980 q 1040 904 1071 921 q 974 886 1009 886 q 911 901 939 886 q 867 943 884 916 q 851 1002 851 969 z "},"Ł":{"ha":760,"x_min":17,"x_max":715,"o":"m 715 164 l 715 0 l 127 0 l 127 410 l 61 385 l 17 500 l 127 541 l 127 1032 l 343 1032 l 343 621 l 555 699 l 600 583 l 343 488 l 343 164 l 715 164 z "},"M":{"ha":1279,"x_min":47,"x_max":1232,"o":"m 460 1032 l 598 490 l 650 262 l 690 490 l 814 1032 l 1108 1032 l 1232 0 l 1020 0 l 969 553 l 951 869 l 875 553 l 727 -10 l 556 -10 l 393 553 l 316 869 l 292 553 l 248 0 l 47 -1 l 157 1032 l 460 1032 z "},"Ṁ":{"ha":1279,"x_min":47,"x_max":1232,"o":"m 532 1205 q 549 1267 532 1239 q 596 1312 566 1295 q 661 1328 626 1328 q 746 1298 716 1328 q 777 1217 777 1267 q 760 1154 777 1182 q 713 1110 743 1126 q 648 1094 684 1094 q 564 1124 596 1094 q 532 1205 532 1154 m 460 1032 l 598 490 l 650 262 l 690 490 l 814 1032 l 1108 1032 l 1232 0 l 1020 0 l 969 553 l 951 869 l 875 553 l 727 -10 l 556 -10 l 393 553 l 316 869 l 292 553 l 248 0 l 47 -1 l 157 1032 l 460 1032 z "},"N":{"ha":1099,"x_min":127,"x_max":971,"o":"m 971 1032 l 971 0 l 755 0 l 387 584 l 305 749 l 328 503 l 328 0 l 127 0 l 127 1032 l 328 1032 l 712 425 l 790 271 l 770 519 l 770 1032 l 971 1032 z "},"Ǌ":{"ha":1640,"x_min":127,"x_max":1506,"o":"m 971 1032 l 971 0 l 755 0 l 387 584 l 305 749 l 328 503 l 328 0 l 127 0 l 127 1032 l 328 1032 l 712 425 l 790 271 l 770 519 l 770 1032 l 971 1032 m 1092 -111 q 1201 -42 1154 -88 q 1266 79 1249 4 q 1283 212 1279 133 q 1288 412 1288 291 l 1288 1032 l 1505 1032 l 1505 416 l 1506 264 q 1503 152 1506 200 q 1492 62 1500 103 q 1416 -92 1475 -27 q 1282 -190 1357 -156 q 1144 -225 1207 -223 l 1092 -111 z "},"Ń":{"ha":1100,"x_min":127,"x_max":971,"o":"m 453 1131 q 573 1249 501 1176 q 653 1343 646 1321 l 800 1254 q 724 1171 770 1215 q 631 1092 678 1126 q 552 1046 584 1057 l 453 1131 m 971 1032 l 971 0 l 755 0 l 387 584 l 305 749 l 328 503 l 328 0 l 127 0 l 127 1032 l 328 1032 l 712 425 l 790 271 l 770 519 l 770 1032 l 971 1032 z "},"Ň":{"ha":1100,"x_min":127,"x_max":971,"o":"m 401 1329 l 550 1206 l 701 1329 l 806 1267 l 625 1069 l 476 1069 l 294 1267 l 401 1329 m 971 1032 l 971 0 l 755 0 l 387 584 l 305 749 l 328 503 l 328 0 l 127 0 l 127 1032 l 328 1032 l 712 425 l 790 271 l 770 519 l 770 1032 l 971 1032 z "},"Ņ":{"ha":1100,"x_min":127,"x_max":971,"o":"m 465 -332 q 485 -240 485 -310 q 471 -190 485 -214 q 443 -159 458 -165 l 443 -125 l 568 -58 q 601 -79 583 -62 q 630 -125 618 -96 q 642 -191 642 -154 q 623 -282 642 -241 q 581 -348 605 -323 q 540 -380 557 -374 l 465 -350 l 465 -332 m 971 1032 l 971 0 l 755 0 l 387 584 l 305 749 l 328 503 l 328 0 l 127 0 l 127 1032 l 328 1032 l 712 425 l 790 271 l 770 519 l 770 1032 l 971 1032 z "},"Ṅ":{"ha":1099,"x_min":127,"x_max":971,"o":"m 971 1032 l 971 0 l 755 0 l 387 584 l 305 749 l 328 503 l 328 0 l 127 0 l 127 1032 l 328 1032 l 712 425 l 790 271 l 770 519 l 770 1032 l 971 1032 m 431 1205 q 448 1267 431 1239 q 495 1312 465 1295 q 559 1328 525 1328 q 645 1298 615 1328 q 675 1217 675 1267 q 659 1154 675 1182 q 612 1110 642 1126 q 547 1094 583 1094 q 463 1124 495 1094 q 431 1205 431 1154 z "},"Ŋ":{"ha":1099,"x_min":127,"x_max":971,"o":"m 971 183 q 967 68 971 116 q 949 -25 962 21 q 869 -162 928 -101 q 725 -259 809 -223 q 550 -299 641 -295 l 503 -214 q 619 -161 562 -197 q 713 -79 676 -125 q 749 13 749 -33 l 393 584 l 315 741 l 340 503 l 340 0 l 127 0 l 127 1032 l 336 1032 l 705 425 l 781 275 l 757 519 l 757 1032 l 970 1032 l 970 277 l 971 183 z "},"ǋ":{"ha":1535,"x_min":127,"x_max":1447,"o":"m 971 1032 l 971 0 l 755 0 l 387 584 l 305 749 l 328 503 l 328 0 l 127 0 l 127 1032 l 328 1032 l 712 425 l 790 271 l 770 519 l 770 1032 l 971 1032 m 1028 -191 q 1064 -201 1038 -196 q 1107 -206 1090 -206 q 1172 -187 1149 -206 q 1206 -123 1196 -168 q 1217 1 1217 -78 l 1217 773 l 1428 773 l 1428 56 q 1356 -249 1428 -153 q 1147 -344 1284 -344 q 1083 -338 1126 -344 q 1028 -328 1040 -332 l 1028 -191 m 1190 1002 q 1209 1065 1190 1036 q 1259 1112 1228 1095 q 1325 1129 1291 1129 q 1414 1097 1381 1129 q 1447 1014 1447 1065 q 1429 950 1447 980 q 1379 904 1410 921 q 1313 886 1348 886 q 1251 901 1278 886 q 1206 943 1223 916 q 1190 1002 1190 969 z "},"Ñ":{"ha":1100,"x_min":127,"x_max":971,"o":"m 255 1174 q 332 1284 279 1242 q 459 1327 385 1327 q 526 1314 500 1327 q 583 1276 553 1301 q 622 1248 606 1257 q 659 1239 637 1239 q 714 1260 689 1239 q 764 1314 739 1281 l 849 1241 q 773 1128 825 1171 q 647 1086 722 1086 q 582 1099 608 1086 q 527 1137 557 1112 q 485 1167 502 1158 q 444 1177 468 1177 q 390 1156 418 1177 q 340 1107 363 1136 l 255 1174 m 971 1032 l 971 0 l 755 0 l 387 584 l 305 749 l 328 503 l 328 0 l 127 0 l 127 1032 l 328 1032 l 712 425 l 790 271 l 770 519 l 770 1032 l 971 1032 z "},"O":{"ha":1082,"x_min":64,"x_max":1018,"o":"m 66 522 q 133 810 70 695 q 304 982 195 925 q 557 1043 413 1039 q 802 982 697 1047 q 963 796 907 917 q 1015 517 1018 675 q 949 223 1012 341 q 778 47 887 104 q 524 -11 669 -11 q 277 57 382 -11 q 118 245 172 124 q 66 522 64 366 m 792 524 q 765 708 792 628 q 685 833 739 788 q 552 879 631 879 q 418 842 477 879 q 324 723 359 804 q 290 514 290 642 q 318 328 290 410 q 402 197 346 245 q 541 150 459 150 q 726 243 660 150 q 792 524 792 336 z "},"Ó":{"ha":1082,"x_min":64,"x_max":1018,"o":"m 462 1156 q 582 1273 510 1200 q 662 1367 654 1345 l 809 1278 q 733 1195 779 1240 q 640 1116 687 1151 q 561 1071 593 1082 l 462 1156 m 66 522 q 133 810 70 695 q 304 982 195 925 q 557 1043 413 1039 q 802 982 697 1047 q 963 796 907 917 q 1015 517 1018 675 q 949 223 1012 341 q 778 47 887 104 q 524 -11 669 -11 q 277 57 382 -11 q 118 245 172 124 q 66 522 64 366 m 792 524 q 765 708 792 628 q 685 833 739 788 q 552 879 631 879 q 418 842 477 879 q 324 723 359 804 q 290 514 290 642 q 318 328 290 410 q 402 197 346 245 q 541 150 459 150 q 726 243 660 150 q 792 524 792 336 z "},"Ŏ":{"ha":1082,"x_min":64,"x_max":1018,"o":"m 440 1329 q 450 1284 442 1305 q 484 1247 458 1263 q 557 1232 509 1232 q 677 1329 669 1232 l 804 1329 q 778 1206 806 1259 q 693 1124 749 1154 q 557 1094 636 1094 q 419 1123 475 1094 q 335 1206 362 1153 q 311 1329 308 1259 l 440 1329 m 66 522 q 133 810 70 695 q 304 982 195 925 q 557 1043 413 1039 q 802 982 697 1047 q 963 796 907 917 q 1015 517 1018 675 q 949 223 1012 341 q 778 47 887 104 q 524 -11 669 -11 q 277 57 382 -11 q 118 245 172 124 q 66 522 64 366 m 792 524 q 765 708 792 628 q 685 833 739 788 q 552 879 631 879 q 418 842 477 879 q 324 723 359 804 q 290 514 290 642 q 318 328 290 410 q 402 197 346 245 q 541 150 459 150 q 726 243 660 150 q 792 524 792 336 z "},"Ǒ":{"ha":1082,"x_min":64,"x_max":1018,"o":"m 66 522 q 133 810 70 695 q 304 982 195 925 q 557 1043 413 1039 q 802 982 697 1047 q 963 796 907 917 q 1015 517 1018 675 q 949 223 1012 341 q 778 47 887 104 q 524 -11 669 -11 q 277 57 382 -11 q 118 245 172 124 q 66 522 64 366 m 792 524 q 765 708 792 628 q 685 833 739 788 q 552 879 631 879 q 418 842 477 879 q 324 723 359 804 q 290 514 290 642 q 318 328 290 410 q 402 197 346 245 q 541 150 459 150 q 726 243 660 150 q 792 524 792 336 m 410 1329 l 559 1206 l 710 1329 l 814 1267 l 633 1069 l 485 1069 l 303 1267 l 410 1329 z "},"Ô":{"ha":1082,"x_min":64,"x_max":1018,"o":"m 66 522 q 133 810 70 695 q 304 982 195 925 q 557 1043 413 1039 q 802 982 697 1047 q 963 796 907 917 q 1015 517 1018 675 q 949 223 1012 341 q 778 47 887 104 q 524 -11 669 -11 q 277 57 382 -11 q 118 245 172 124 q 66 522 64 366 m 792 524 q 765 708 792 628 q 685 833 739 788 q 552 879 631 879 q 418 842 477 879 q 324 723 359 804 q 290 514 290 642 q 318 328 290 410 q 402 197 346 245 q 541 150 459 150 q 726 243 660 150 q 792 524 792 336 m 484 1329 l 633 1329 l 820 1120 l 708 1057 l 558 1192 l 408 1057 l 298 1118 l 484 1329 z "},"Ö":{"ha":1082,"x_min":64,"x_max":1018,"o":"m 260 1206 q 277 1268 260 1240 q 323 1313 294 1297 q 387 1329 353 1329 q 472 1299 442 1329 q 501 1218 501 1269 q 485 1155 501 1183 q 439 1111 468 1127 q 375 1095 410 1095 q 292 1125 323 1095 q 260 1206 260 1156 m 616 1206 q 633 1268 616 1240 q 679 1313 650 1297 q 743 1329 708 1329 q 827 1299 798 1329 q 856 1218 856 1269 q 840 1155 856 1183 q 794 1111 823 1127 q 730 1095 766 1095 q 647 1125 678 1095 q 616 1206 616 1156 m 66 522 q 133 810 70 695 q 304 982 195 925 q 557 1043 413 1039 q 802 982 697 1047 q 963 796 907 917 q 1015 517 1018 675 q 949 223 1012 341 q 778 47 887 104 q 524 -11 669 -11 q 277 57 382 -11 q 118 245 172 124 q 66 522 64 366 m 792 524 q 765 708 792 628 q 685 833 739 788 q 552 879 631 879 q 418 842 477 879 q 324 723 359 804 q 290 514 290 642 q 318 328 290 410 q 402 197 346 245 q 541 150 459 150 q 726 243 660 150 q 792 524 792 336 z "},"Ò":{"ha":1082,"x_min":64,"x_max":1018,"o":"m 557 1046 q 478 1092 527 1057 q 382 1173 430 1127 q 309 1254 335 1218 l 456 1343 q 519 1265 463 1321 q 656 1131 576 1208 l 557 1046 m 66 522 q 133 810 70 695 q 304 982 195 925 q 557 1043 413 1039 q 802 982 697 1047 q 963 796 907 917 q 1015 517 1018 675 q 949 223 1012 341 q 778 47 887 104 q 524 -11 669 -11 q 277 57 382 -11 q 118 245 172 124 q 66 522 64 366 m 792 524 q 765 708 792 628 q 685 833 739 788 q 552 879 631 879 q 418 842 477 879 q 324 723 359 804 q 290 514 290 642 q 318 328 290 410 q 402 197 346 245 q 541 150 459 150 q 726 243 660 150 q 792 524 792 336 z "},"Ő":{"ha":1082,"x_min":64,"x_max":1018,"o":"m 66 522 q 133 810 70 695 q 304 982 195 925 q 557 1043 413 1039 q 802 982 697 1047 q 963 796 907 917 q 1015 517 1018 675 q 949 223 1012 341 q 778 47 887 104 q 524 -11 669 -11 q 277 57 382 -11 q 118 245 172 124 q 66 522 64 366 m 792 524 q 765 708 792 628 q 685 833 739 788 q 552 879 631 879 q 418 842 477 879 q 324 723 359 804 q 290 514 290 642 q 318 328 290 410 q 402 197 346 245 q 541 150 459 150 q 726 243 660 150 q 792 524 792 336 m 305 1131 q 351 1183 315 1140 q 417 1270 386 1227 q 454 1329 449 1313 l 610 1253 q 509 1128 566 1187 q 415 1053 453 1069 l 305 1131 m 653 1131 q 700 1183 664 1140 q 768 1269 736 1226 q 805 1326 800 1311 l 958 1250 q 859 1128 916 1187 q 762 1053 802 1069 l 653 1131 z "},"Ō":{"ha":1082,"x_min":64,"x_max":1018,"o":"m 761 1283 l 761 1143 l 360 1143 l 360 1283 l 761 1283 m 66 522 q 133 810 70 695 q 304 982 195 925 q 557 1043 413 1039 q 802 982 697 1047 q 963 796 907 917 q 1015 517 1018 675 q 949 223 1012 341 q 778 47 887 104 q 524 -11 669 -11 q 277 57 382 -11 q 118 245 172 124 q 66 522 64 366 m 792 524 q 765 708 792 628 q 685 833 739 788 q 552 879 631 879 q 418 842 477 879 q 324 723 359 804 q 290 514 290 642 q 318 328 290 410 q 402 197 346 245 q 541 150 459 150 q 726 243 660 150 q 792 524 792 336 z "},"Ø":{"ha":1082,"x_min":64,"x_max":1015,"o":"m 760 1004 q 898 901 840 968 q 985 739 955 833 q 1015 534 1015 646 q 953 230 1015 352 q 780 49 891 109 q 523 -11 669 -11 q 396 5 456 -11 l 340 -149 l 255 -127 l 315 35 q 178 146 235 75 q 93 313 121 217 q 66 522 64 408 q 133 810 70 695 q 304 982 195 925 q 557 1043 413 1039 q 677 1032 618 1045 l 741 1208 l 826 1186 l 760 1004 m 290 514 q 313 344 290 420 q 381 218 336 267 l 618 869 q 552 879 586 879 q 418 842 477 879 q 324 723 359 804 q 290 514 290 642 m 541 150 q 726 243 660 150 q 792 524 792 336 q 767 701 792 623 q 694 825 743 779 l 454 166 q 541 150 493 150 z "},"Ǿ":{"ha":1082,"x_min":64,"x_max":1015,"o":"m 406 1156 q 527 1273 454 1200 q 606 1367 599 1345 l 753 1278 q 677 1195 724 1240 q 584 1116 631 1151 q 505 1071 537 1082 l 406 1156 m 760 1004 q 898 901 840 968 q 985 739 955 833 q 1015 534 1015 646 q 953 230 1015 352 q 780 49 891 109 q 523 -11 669 -11 q 396 5 456 -11 l 340 -149 l 255 -127 l 315 35 q 178 146 235 75 q 93 313 121 217 q 66 522 64 408 q 133 810 70 695 q 304 982 195 925 q 557 1043 413 1039 q 677 1032 618 1045 l 741 1208 l 826 1186 l 760 1004 m 290 514 q 313 344 290 420 q 381 218 336 267 l 618 869 q 552 879 586 879 q 418 842 477 879 q 324 723 359 804 q 290 514 290 642 m 541 150 q 726 243 660 150 q 792 524 792 336 q 767 701 792 623 q 694 825 743 779 l 454 166 q 541 150 493 150 z "},"Õ":{"ha":1082,"x_min":64,"x_max":1018,"o":"m 264 1174 q 340 1284 288 1242 q 468 1327 393 1327 q 535 1314 509 1327 q 592 1276 562 1301 q 631 1248 615 1257 q 667 1239 646 1239 q 723 1260 698 1239 q 772 1314 748 1281 l 858 1241 q 782 1128 833 1171 q 656 1086 731 1086 q 591 1099 616 1086 q 536 1137 566 1112 q 494 1167 511 1158 q 453 1177 477 1177 q 399 1156 427 1177 q 349 1107 372 1136 l 264 1174 m 66 522 q 133 810 70 695 q 304 982 195 925 q 557 1043 413 1039 q 802 982 697 1047 q 963 796 907 917 q 1015 517 1018 675 q 949 223 1012 341 q 778 47 887 104 q 524 -11 669 -11 q 277 57 382 -11 q 118 245 172 124 q 66 522 64 366 m 792 524 q 765 708 792 628 q 685 833 739 788 q 552 879 631 879 q 418 842 477 879 q 324 723 359 804 q 290 514 290 642 q 318 328 290 410 q 402 197 346 245 q 541 150 459 150 q 726 243 660 150 q 792 524 792 336 z "},"Œ":{"ha":1447,"x_min":72,"x_max":1388,"o":"m 1388 170 l 1388 0 l 715 0 l 715 28 q 532 -11 644 -11 q 287 55 391 -11 q 127 239 182 121 q 72 506 72 356 q 135 799 72 677 q 310 981 199 920 q 562 1043 420 1043 q 715 1012 653 1043 l 715 1032 l 1344 1032 l 1344 867 l 930 867 l 930 613 l 1236 613 l 1236 450 l 930 450 l 930 170 l 1388 170 m 545 150 q 644 165 603 150 q 715 216 686 180 l 715 807 q 556 879 652 879 q 426 846 485 879 q 330 731 367 812 q 292 514 292 650 q 322 322 292 405 q 408 195 351 240 q 545 150 465 150 z "},"P":{"ha":922,"x_min":127,"x_max":874,"o":"m 193 1032 q 356 1038 254 1032 q 497 1043 451 1043 q 778 958 681 1043 q 874 687 874 872 q 826 485 874 569 q 686 357 779 401 q 461 313 593 313 q 343 314 391 313 l 343 0 l 127 0 l 127 1032 l 193 1032 m 456 476 q 603 524 547 476 q 660 690 660 572 q 607 839 660 788 q 454 886 554 890 q 390 883 414 885 q 343 877 365 882 l 343 481 q 456 476 387 476 z "},"Ṗ":{"ha":922,"x_min":127,"x_max":874,"o":"m 388 1206 q 405 1268 388 1240 q 452 1312 422 1296 q 517 1329 482 1329 q 603 1298 572 1329 q 633 1217 633 1268 q 616 1155 633 1183 q 569 1111 599 1127 q 505 1095 540 1095 q 420 1125 452 1095 q 388 1206 388 1155 m 193 1032 q 356 1038 254 1032 q 497 1043 451 1043 q 778 958 681 1043 q 874 687 874 872 q 826 485 874 569 q 686 357 779 401 q 461 313 593 313 q 343 314 391 313 l 343 0 l 127 0 l 127 1032 l 193 1032 m 456 476 q 603 524 547 476 q 660 690 660 572 q 607 839 660 788 q 454 886 554 890 q 390 883 414 885 q 343 877 365 882 l 343 481 q 456 476 387 476 z "},"Þ":{"ha":922,"x_min":127,"x_max":869,"o":"m 508 873 q 774 791 679 873 q 869 546 869 710 q 824 346 869 429 q 690 218 779 262 q 476 174 602 174 q 385 177 420 174 q 343 180 349 180 l 343 0 l 127 0 l 127 1032 l 343 1032 l 343 865 l 387 867 q 508 873 463 873 m 449 339 q 557 355 512 339 q 629 416 602 371 q 656 544 656 461 q 607 667 656 625 q 464 710 557 710 q 343 697 395 710 l 343 346 q 392 340 368 341 q 449 339 416 339 z "},"Q":{"ha":1082,"x_min":64,"x_max":1051,"o":"m 914 -55 q 987 -50 944 -55 q 1051 -38 1029 -45 l 1051 -186 q 984 -210 1035 -198 q 888 -221 934 -221 q 624 -173 726 -221 q 485 -9 522 -125 q 258 70 354 0 q 113 256 163 139 q 66 522 64 373 q 133 810 70 695 q 304 982 195 925 q 557 1043 413 1039 q 799 984 695 1047 q 959 804 903 921 q 1015 533 1015 687 q 972 275 1015 384 q 852 99 930 165 q 669 6 775 32 q 725 -34 690 -20 q 804 -51 760 -47 q 914 -55 848 -55 m 290 514 q 318 328 290 410 q 402 197 346 245 q 541 150 459 150 q 726 243 660 150 q 792 524 792 336 q 765 708 792 628 q 685 833 739 788 q 552 879 631 879 q 418 842 477 879 q 324 723 359 804 q 290 514 290 642 z "},"R":{"ha":973,"x_min":127,"x_max":937,"o":"m 937 0 l 696 0 q 683 23 690 9 q 668 54 676 36 l 659 75 q 637 126 647 99 q 612 197 627 153 q 575 301 591 262 q 536 366 559 340 q 479 393 512 393 q 343 390 410 390 l 343 0 l 127 0 l 127 1032 l 227 1032 q 307 1036 262 1032 q 393 1041 344 1039 q 501 1043 443 1043 q 769 971 666 1043 q 873 731 873 900 q 829 537 873 610 q 701 431 785 465 q 764 351 737 401 q 827 216 791 302 q 894 75 867 121 l 937 0 m 343 545 q 485 541 377 541 q 620 593 576 541 q 663 725 663 646 q 649 805 663 771 q 593 861 634 840 q 475 882 551 882 q 343 870 395 882 l 343 545 z "},"Ŕ":{"ha":973,"x_min":127,"x_max":937,"o":"m 937 0 l 696 0 q 683 23 690 9 q 668 54 676 36 l 659 75 q 637 126 647 99 q 612 197 627 153 q 575 301 591 262 q 536 366 559 340 q 479 393 512 393 q 343 390 410 390 l 343 0 l 127 0 l 127 1032 l 227 1032 q 307 1036 262 1032 q 393 1041 344 1039 q 501 1043 443 1043 q 769 971 666 1043 q 873 731 873 900 q 829 537 873 610 q 701 431 785 465 q 764 351 737 401 q 827 216 791 302 q 894 75 867 121 l 937 0 m 343 545 q 485 541 377 541 q 620 593 576 541 q 663 725 663 646 q 649 805 663 771 q 593 861 634 840 q 475 882 551 882 q 343 870 395 882 l 343 545 m 416 1131 q 536 1249 464 1176 q 616 1343 608 1321 l 763 1254 q 687 1171 733 1215 q 594 1092 641 1126 q 515 1046 547 1057 l 416 1131 z "},"Ř":{"ha":973,"x_min":127,"x_max":937,"o":"m 363 1329 l 513 1206 l 664 1329 l 768 1267 l 587 1069 l 439 1069 l 257 1267 l 363 1329 m 937 0 l 696 0 q 683 23 690 9 q 668 54 676 36 l 659 75 q 637 126 647 99 q 612 197 627 153 q 575 301 591 262 q 536 366 559 340 q 479 393 512 393 q 343 390 410 390 l 343 0 l 127 0 l 127 1032 l 227 1032 q 307 1036 262 1032 q 393 1041 344 1039 q 501 1043 443 1043 q 769 971 666 1043 q 873 731 873 900 q 829 537 873 610 q 701 431 785 465 q 764 351 737 401 q 827 216 791 302 q 894 75 867 121 l 937 0 m 343 545 q 485 541 377 541 q 620 593 576 541 q 663 725 663 646 q 649 805 663 771 q 593 861 634 840 q 475 882 551 882 q 343 870 395 882 l 343 545 z "},"Ŗ":{"ha":973,"x_min":127,"x_max":937,"o":"m 436 -332 q 456 -240 456 -310 q 443 -190 456 -214 q 414 -159 429 -165 l 414 -125 l 539 -58 q 572 -79 555 -62 q 601 -125 589 -96 q 613 -191 613 -154 q 595 -282 613 -241 q 552 -348 576 -323 q 511 -380 528 -374 l 436 -350 l 436 -332 m 937 0 l 696 0 q 683 23 690 9 q 668 54 676 36 l 659 75 q 637 126 647 99 q 612 197 627 153 q 575 301 591 262 q 536 366 559 340 q 479 393 512 393 q 343 390 410 390 l 343 0 l 127 0 l 127 1032 l 227 1032 q 307 1036 262 1032 q 393 1041 344 1039 q 501 1043 443 1043 q 769 971 666 1043 q 873 731 873 900 q 829 537 873 610 q 701 431 785 465 q 764 351 737 401 q 827 216 791 302 q 894 75 867 121 l 937 0 m 343 545 q 485 541 377 541 q 620 593 576 541 q 663 725 663 646 q 649 805 663 771 q 593 861 634 840 q 475 882 551 882 q 343 870 395 882 l 343 545 z "},"S":{"ha":819,"x_min":94,"x_max":768,"o":"m 134 223 q 253 177 183 196 q 399 158 323 158 q 517 183 483 158 q 551 263 551 209 q 534 325 551 300 q 476 376 517 351 q 351 444 436 402 q 165 576 237 500 q 94 765 94 651 q 142 925 94 863 q 271 1015 190 987 q 454 1043 352 1043 q 615 1024 543 1043 q 721 983 687 1005 l 686 816 q 585 863 640 845 q 460 882 530 882 q 342 854 378 882 q 306 776 306 827 q 324 714 306 740 q 377 665 342 688 q 484 604 412 642 q 640 511 582 552 q 733 413 698 470 q 768 277 768 356 q 724 121 768 186 q 599 23 680 56 q 413 -11 519 -11 q 286 -1 350 -11 q 173 23 222 9 q 103 50 123 37 l 134 223 z "},"Ś":{"ha":819,"x_min":94,"x_max":768,"o":"m 134 223 q 253 177 183 196 q 399 158 323 158 q 517 183 483 158 q 551 263 551 209 q 534 325 551 300 q 476 376 517 351 q 351 444 436 402 q 165 576 237 500 q 94 765 94 651 q 142 925 94 863 q 271 1015 190 987 q 454 1043 352 1043 q 615 1024 543 1043 q 721 983 687 1005 l 686 816 q 585 863 640 845 q 460 882 530 882 q 342 854 378 882 q 306 776 306 827 q 324 714 306 740 q 377 665 342 688 q 484 604 412 642 q 640 511 582 552 q 733 413 698 470 q 768 277 768 356 q 724 121 768 186 q 599 23 680 56 q 413 -11 519 -11 q 286 -1 350 -11 q 173 23 222 9 q 103 50 123 37 l 134 223 m 344 1131 q 464 1249 392 1176 q 544 1343 536 1321 l 691 1254 q 615 1171 661 1215 q 522 1092 569 1126 q 443 1046 475 1057 l 344 1131 z "},"Š":{"ha":819,"x_min":94,"x_max":768,"o":"m 134 223 q 253 177 183 196 q 399 158 323 158 q 517 183 483 158 q 551 263 551 209 q 534 325 551 300 q 476 376 517 351 q 351 444 436 402 q 165 576 237 500 q 94 765 94 651 q 142 925 94 863 q 271 1015 190 987 q 454 1043 352 1043 q 615 1024 543 1043 q 721 983 687 1005 l 686 816 q 585 863 640 845 q 460 882 530 882 q 342 854 378 882 q 306 776 306 827 q 324 714 306 740 q 377 665 342 688 q 484 604 412 642 q 640 511 582 552 q 733 413 698 470 q 768 277 768 356 q 724 121 768 186 q 599 23 680 56 q 413 -11 519 -11 q 286 -1 350 -11 q 173 23 222 9 q 103 50 123 37 l 134 223 m 292 1329 l 441 1206 l 592 1329 l 696 1267 l 515 1069 l 367 1069 l 185 1267 l 292 1329 z "},"Ş":{"ha":819,"x_min":94,"x_max":768,"o":"m 768 277 q 693 84 768 157 q 488 -6 618 11 q 508 -71 502 -33 q 512 -150 513 -110 q 461 -274 509 -233 q 339 -315 412 -315 q 268 -309 307 -315 q 217 -296 229 -303 l 231 -184 q 283 -193 245 -193 q 340 -168 317 -193 q 365 -92 363 -142 q 366 -69 366 -83 q 357 -9 366 -35 q 204 15 277 -3 q 103 50 131 33 l 134 223 q 253 177 183 196 q 399 158 323 158 q 517 183 483 158 q 551 263 551 209 q 534 325 551 300 q 476 376 517 351 q 351 444 436 402 q 165 576 237 500 q 94 765 94 651 q 142 925 94 863 q 271 1015 190 987 q 454 1043 352 1043 q 615 1024 543 1043 q 721 983 687 1005 l 686 816 q 585 863 640 845 q 460 882 530 882 q 342 854 378 882 q 306 776 306 827 q 324 714 306 740 q 377 665 342 688 q 484 604 412 642 q 640 511 582 552 q 733 413 698 470 q 768 277 768 356 z "},"Ŝ":{"ha":819,"x_min":94,"x_max":768,"o":"m 134 223 q 253 177 183 196 q 399 158 323 158 q 517 183 483 158 q 551 263 551 209 q 534 325 551 300 q 476 376 517 351 q 351 444 436 402 q 165 576 237 500 q 94 765 94 651 q 142 925 94 863 q 271 1015 190 987 q 454 1043 352 1043 q 615 1024 543 1043 q 721 983 687 1005 l 686 816 q 585 863 640 845 q 460 882 530 882 q 342 854 378 882 q 306 776 306 827 q 324 714 306 740 q 377 665 342 688 q 484 604 412 642 q 640 511 582 552 q 733 413 698 470 q 768 277 768 356 q 724 121 768 186 q 599 23 680 56 q 413 -11 519 -11 q 286 -1 350 -11 q 173 23 222 9 q 103 50 123 37 l 134 223 m 366 1329 l 515 1329 l 702 1120 l 590 1057 l 440 1192 l 290 1057 l 180 1118 l 366 1329 z "},"Ș":{"ha":819,"x_min":94,"x_max":768,"o":"m 349 -332 q 369 -240 369 -310 q 355 -190 369 -214 q 327 -159 342 -165 l 327 -125 l 452 -58 q 485 -79 467 -62 q 514 -125 502 -96 q 526 -191 526 -154 q 507 -282 526 -241 q 465 -348 489 -323 q 424 -380 441 -374 l 349 -350 l 349 -332 m 134 223 q 253 177 183 196 q 399 158 323 158 q 517 183 483 158 q 551 263 551 209 q 534 325 551 300 q 476 376 517 351 q 351 444 436 402 q 165 576 237 500 q 94 765 94 651 q 142 925 94 863 q 271 1015 190 987 q 454 1043 352 1043 q 615 1024 543 1043 q 721 983 687 1005 l 686 816 q 585 863 640 845 q 460 882 530 882 q 342 854 378 882 q 306 776 306 827 q 324 714 306 740 q 377 665 342 688 q 484 604 412 642 q 640 511 582 552 q 733 413 698 470 q 768 277 768 356 q 724 121 768 186 q 599 23 680 56 q 413 -11 519 -11 q 286 -1 350 -11 q 173 23 222 9 q 103 50 123 37 l 134 223 z "},"Ṡ":{"ha":819,"x_min":94,"x_max":768,"o":"m 321 1205 q 339 1267 321 1239 q 386 1312 356 1295 q 450 1328 416 1328 q 536 1298 506 1328 q 566 1217 566 1267 q 549 1154 566 1182 q 503 1110 532 1126 q 438 1094 473 1094 q 354 1124 386 1094 q 321 1205 321 1154 m 134 223 q 253 177 183 196 q 399 158 323 158 q 517 183 483 158 q 551 263 551 209 q 534 325 551 300 q 476 376 517 351 q 351 444 436 402 q 165 576 237 500 q 94 765 94 651 q 142 925 94 863 q 271 1015 190 987 q 454 1043 352 1043 q 615 1024 543 1043 q 721 983 687 1005 l 686 816 q 585 863 640 845 q 460 882 530 882 q 342 854 378 882 q 306 776 306 827 q 324 714 306 740 q 377 665 342 688 q 484 604 412 642 q 640 511 582 552 q 733 413 698 470 q 768 277 768 356 q 724 121 768 186 q 599 23 680 56 q 413 -11 519 -11 q 286 -1 350 -11 q 173 23 222 9 q 103 50 123 37 l 134 223 z "},"ẞ":{"ha":1029,"x_min":70,"x_max":1016,"o":"m 766 609 q 878 576 820 609 q 976 479 936 544 q 1016 326 1016 415 q 972 148 1016 225 q 849 27 929 71 q 663 -16 770 -16 q 505 -1 565 -16 q 399 39 446 14 l 458 194 q 530 159 486 174 q 622 143 574 143 q 700 161 663 143 q 761 217 737 179 q 785 310 785 254 q 757 415 785 375 q 670 475 730 456 q 511 494 610 494 l 515 606 l 707 857 q 650 878 684 871 q 575 886 616 886 q 372 811 443 886 q 300 589 300 736 l 300 0 l 70 0 l 70 511 q 127 796 70 676 q 297 979 184 916 q 571 1043 410 1043 q 706 1031 646 1043 q 839 999 766 1019 q 900 983 879 987 q 939 978 921 978 l 938 812 l 766 609 z "},"T":{"ha":848,"x_min":20,"x_max":827,"o":"m 20 867 l 20 1032 l 827 1032 l 827 867 l 533 867 l 533 0 l 316 0 l 316 867 l 20 867 z "},"Ŧ":{"ha":848,"x_min":20,"x_max":827,"o":"m 533 867 l 533 540 l 729 540 l 729 405 l 533 405 l 533 0 l 316 0 l 316 405 l 131 405 l 131 540 l 316 540 l 316 867 l 20 867 l 20 1032 l 827 1032 l 827 867 l 533 867 z "},"Ť":{"ha":848,"x_min":20,"x_max":827,"o":"m 273 1329 l 422 1206 l 573 1329 l 677 1267 l 496 1069 l 348 1069 l 166 1267 l 273 1329 m 20 867 l 20 1032 l 827 1032 l 827 867 l 533 867 l 533 0 l 316 0 l 316 867 l 20 867 z "},"Ţ":{"ha":848,"x_min":20,"x_max":827,"o":"m 827 1032 l 827 867 l 533 867 l 533 0 l 496 0 q 518 -66 511 -26 q 523 -150 524 -107 q 472 -274 520 -233 q 350 -315 423 -315 q 279 -309 318 -315 q 228 -296 240 -303 l 241 -184 q 294 -193 256 -193 q 351 -168 328 -193 q 376 -92 374 -142 q 376 -70 376 -84 q 365 0 376 -30 l 316 0 l 316 867 l 20 867 l 20 1032 l 827 1032 z "},"Ț":{"ha":848,"x_min":20,"x_max":827,"o":"m 359 -332 q 380 -240 380 -310 q 366 -190 380 -214 q 338 -159 353 -165 l 338 -125 l 463 -58 q 495 -79 478 -62 q 525 -125 513 -96 q 536 -191 536 -154 q 518 -282 536 -241 q 476 -348 500 -323 q 435 -380 452 -374 l 359 -350 l 359 -332 m 20 867 l 20 1032 l 827 1032 l 827 867 l 533 867 l 533 0 l 316 0 l 316 867 l 20 867 z "},"Ṫ":{"ha":848,"x_min":20,"x_max":827,"o":"m 302 1205 q 320 1267 302 1239 q 367 1312 337 1295 q 431 1328 397 1328 q 517 1298 487 1328 q 547 1217 547 1267 q 530 1154 547 1182 q 484 1110 513 1126 q 419 1094 454 1094 q 335 1124 367 1094 q 302 1205 302 1154 m 20 867 l 20 1032 l 827 1032 l 827 867 l 533 867 l 533 0 l 316 0 l 316 867 l 20 867 z "},"U":{"ha":1034,"x_min":101,"x_max":933,"o":"m 103 1032 l 317 1032 l 315 454 q 338 273 315 337 q 405 185 361 210 q 520 161 449 161 q 632 188 589 161 q 698 278 675 214 q 721 454 721 342 l 721 1032 l 933 1032 l 933 434 q 827 103 933 216 q 514 -11 722 -11 q 197 107 293 -11 q 102 443 101 224 l 103 1032 z "},"Ú":{"ha":1034,"x_min":101,"x_max":933,"o":"m 425 1131 q 545 1249 473 1176 q 625 1343 617 1321 l 772 1254 q 696 1171 742 1215 q 603 1092 650 1126 q 524 1046 555 1057 l 425 1131 m 103 1032 l 317 1032 l 315 454 q 338 273 315 337 q 405 185 361 210 q 520 161 449 161 q 632 188 589 161 q 698 278 675 214 q 721 454 721 342 l 721 1032 l 933 1032 l 933 434 q 827 103 933 216 q 514 -11 722 -11 q 197 107 293 -11 q 102 443 101 224 l 103 1032 z "},"Ŭ":{"ha":1034,"x_min":101,"x_max":933,"o":"m 403 1329 q 413 1284 405 1305 q 447 1247 421 1263 q 520 1232 472 1232 q 640 1329 631 1232 l 766 1329 q 741 1206 769 1259 q 655 1124 712 1154 q 520 1094 599 1094 q 381 1123 438 1094 q 298 1206 325 1153 q 273 1329 271 1259 l 403 1329 m 103 1032 l 317 1032 l 315 454 q 338 273 315 337 q 405 185 361 210 q 520 161 449 161 q 632 188 589 161 q 698 278 675 214 q 721 454 721 342 l 721 1032 l 933 1032 l 933 434 q 827 103 933 216 q 514 -11 722 -11 q 197 107 293 -11 q 102 443 101 224 l 103 1032 z "},"Ǔ":{"ha":1034,"x_min":101,"x_max":933,"o":"m 103 1032 l 317 1032 l 315 454 q 338 273 315 337 q 405 185 361 210 q 520 161 449 161 q 632 188 589 161 q 698 278 675 214 q 721 454 721 342 l 721 1032 l 933 1032 l 933 434 q 827 103 933 216 q 514 -11 722 -11 q 197 107 293 -11 q 102 443 101 224 l 103 1032 m 372 1329 l 522 1206 l 673 1329 l 777 1267 l 596 1069 l 448 1069 l 266 1267 l 372 1329 z "},"Û":{"ha":1034,"x_min":101,"x_max":933,"o":"m 103 1032 l 317 1032 l 315 454 q 338 273 315 337 q 405 185 361 210 q 520 161 449 161 q 632 188 589 161 q 698 278 675 214 q 721 454 721 342 l 721 1032 l 933 1032 l 933 434 q 827 103 933 216 q 514 -11 722 -11 q 197 107 293 -11 q 102 443 101 224 l 103 1032 m 446 1329 l 595 1329 l 783 1120 l 671 1057 l 521 1192 l 370 1057 l 260 1118 l 446 1329 z "},"Ü":{"ha":1034,"x_min":101,"x_max":933,"o":"m 223 1206 q 240 1268 223 1240 q 286 1313 257 1297 q 350 1329 315 1329 q 434 1299 405 1329 q 464 1218 464 1269 q 447 1155 464 1183 q 402 1111 431 1127 q 338 1095 373 1095 q 254 1125 286 1095 q 223 1206 223 1156 m 578 1206 q 595 1268 578 1240 q 642 1313 612 1297 q 705 1329 671 1329 q 789 1299 760 1329 q 819 1218 819 1269 q 802 1155 819 1183 q 757 1111 786 1127 q 692 1095 728 1095 q 610 1125 641 1095 q 578 1206 578 1156 m 103 1032 l 317 1032 l 315 454 q 338 273 315 337 q 405 185 361 210 q 520 161 449 161 q 632 188 589 161 q 698 278 675 214 q 721 454 721 342 l 721 1032 l 933 1032 l 933 434 q 827 103 933 216 q 514 -11 722 -11 q 197 107 293 -11 q 102 443 101 224 l 103 1032 z "},"Ù":{"ha":1034,"x_min":101,"x_max":933,"o":"m 519 1046 q 441 1092 490 1057 q 345 1173 393 1127 q 271 1254 298 1218 l 418 1343 q 482 1265 426 1321 q 618 1131 538 1208 l 519 1046 m 103 1032 l 317 1032 l 315 454 q 338 273 315 337 q 405 185 361 210 q 520 161 449 161 q 632 188 589 161 q 698 278 675 214 q 721 454 721 342 l 721 1032 l 933 1032 l 933 434 q 827 103 933 216 q 514 -11 722 -11 q 197 107 293 -11 q 102 443 101 224 l 103 1032 z "},"Ű":{"ha":1034,"x_min":101,"x_max":933,"o":"m 103 1032 l 317 1032 l 315 454 q 338 273 315 337 q 405 185 361 210 q 520 161 449 161 q 632 188 589 161 q 698 278 675 214 q 721 454 721 342 l 721 1032 l 933 1032 l 933 434 q 827 103 933 216 q 514 -11 722 -11 q 197 107 293 -11 q 102 443 101 224 l 103 1032 m 268 1131 q 313 1183 278 1140 q 380 1270 349 1227 q 417 1329 412 1313 l 573 1253 q 472 1128 528 1187 q 378 1053 416 1069 l 268 1131 m 616 1131 q 663 1183 627 1140 q 730 1269 699 1226 q 768 1326 762 1311 l 921 1250 q 822 1128 879 1187 q 725 1053 765 1069 l 616 1131 z "},"Ū":{"ha":1034,"x_min":101,"x_max":933,"o":"m 724 1283 l 724 1143 l 323 1143 l 323 1283 l 724 1283 m 103 1032 l 317 1032 l 315 454 q 338 273 315 337 q 405 185 361 210 q 520 161 449 161 q 632 188 589 161 q 698 278 675 214 q 721 454 721 342 l 721 1032 l 933 1032 l 933 434 q 827 103 933 216 q 514 -11 722 -11 q 197 107 293 -11 q 102 443 101 224 l 103 1032 z "},"Ų":{"ha":1034,"x_min":101,"x_max":933,"o":"m 933 1032 l 933 434 q 868 156 933 263 q 674 10 803 50 q 587 -151 587 -70 q 611 -197 589 -182 q 669 -211 633 -211 q 754 -197 707 -211 l 754 -304 q 683 -338 725 -326 q 598 -350 642 -350 q 515 -330 555 -350 q 449 -276 475 -311 q 421 -201 423 -242 q 447 -92 417 -139 q 526 -11 476 -45 l 514 -11 q 197 107 293 -11 q 102 443 101 224 l 103 1032 l 317 1032 l 315 454 q 338 273 315 337 q 405 185 361 210 q 520 161 449 161 q 632 188 589 161 q 698 278 675 214 q 721 454 721 342 l 721 1032 l 933 1032 z "},"Ů":{"ha":1034,"x_min":101,"x_max":933,"o":"m 103 1032 l 317 1032 l 315 454 q 338 273 315 337 q 405 185 361 210 q 520 161 449 161 q 632 188 589 161 q 698 278 675 214 q 721 454 721 342 l 721 1032 l 933 1032 l 933 434 q 827 103 933 216 q 514 -11 722 -11 q 197 107 293 -11 q 102 443 101 224 l 103 1032 m 288 1217 q 321 1325 288 1283 q 408 1385 355 1367 q 523 1404 460 1404 q 691 1357 631 1404 q 751 1219 751 1310 q 719 1110 751 1153 q 633 1048 686 1067 q 517 1028 581 1028 q 348 1078 408 1028 q 288 1217 288 1127 m 627 1215 q 596 1282 627 1260 q 515 1305 566 1305 q 440 1286 468 1305 q 412 1220 412 1267 q 441 1155 412 1178 q 519 1131 471 1131 q 600 1148 572 1131 q 627 1215 627 1166 z "},"Ũ":{"ha":1034,"x_min":101,"x_max":933,"o":"m 227 1174 q 303 1284 250 1242 q 431 1327 356 1327 q 498 1314 471 1327 q 555 1276 524 1301 q 593 1248 578 1257 q 630 1239 609 1239 q 686 1260 661 1239 q 735 1314 711 1281 l 821 1241 q 745 1128 796 1171 q 618 1086 694 1086 q 554 1099 579 1086 q 498 1137 528 1112 q 456 1167 473 1158 q 416 1177 439 1177 q 362 1156 389 1177 q 311 1107 334 1136 l 227 1174 m 103 1032 l 317 1032 l 315 454 q 338 273 315 337 q 405 185 361 210 q 520 161 449 161 q 632 188 589 161 q 698 278 675 214 q 721 454 721 342 l 721 1032 l 933 1032 l 933 434 q 827 103 933 216 q 514 -11 722 -11 q 197 107 293 -11 q 102 443 101 224 l 103 1032 z "},"V":{"ha":940,"x_min":-3,"x_max":943,"o":"m 228 1032 l 420 469 l 475 272 l 531 469 l 713 1032 l 943 1032 l 564 -4 l 380 -4 l -3 1032 l 228 1032 z "},"W":{"ha":1338,"x_min":3,"x_max":1335,"o":"m 1335 1032 l 1065 -11 l 844 -11 l 699 566 l 665 788 l 635 565 l 486 -11 l 280 -11 l 3 1032 l 220 1032 l 347 426 l 383 175 l 425 426 l 574 1032 l 766 1032 l 925 426 l 967 186 l 1002 426 l 1119 1032 l 1335 1032 z "},"Ẃ":{"ha":1338,"x_min":3,"x_max":1335,"o":"m 559 1131 q 679 1249 607 1176 q 759 1343 751 1321 l 906 1254 q 830 1171 876 1215 q 737 1092 784 1126 q 658 1046 690 1057 l 559 1131 m 1335 1032 l 1065 -11 l 844 -11 l 699 566 l 665 788 l 635 565 l 486 -11 l 280 -11 l 3 1032 l 220 1032 l 347 426 l 383 175 l 425 426 l 574 1032 l 766 1032 l 925 426 l 967 186 l 1002 426 l 1119 1032 l 1335 1032 z "},"Ŵ":{"ha":1338,"x_min":3,"x_max":1335,"o":"m 1335 1032 l 1065 -11 l 844 -11 l 699 566 l 665 788 l 635 565 l 486 -11 l 280 -11 l 3 1032 l 220 1032 l 347 426 l 383 175 l 425 426 l 574 1032 l 766 1032 l 925 426 l 967 186 l 1002 426 l 1119 1032 l 1335 1032 m 581 1329 l 730 1329 l 917 1120 l 805 1057 l 655 1192 l 505 1057 l 395 1118 l 581 1329 z "},"Ẅ":{"ha":1338,"x_min":3,"x_max":1335,"o":"m 357 1206 q 374 1268 357 1240 q 420 1313 391 1297 q 484 1329 450 1329 q 569 1299 539 1329 q 598 1218 598 1269 q 582 1155 598 1183 q 536 1111 565 1127 q 472 1095 507 1095 q 389 1125 420 1095 q 357 1206 357 1156 m 713 1206 q 730 1268 713 1240 q 776 1313 747 1297 q 840 1329 805 1329 q 924 1299 895 1329 q 953 1218 953 1269 q 937 1155 953 1183 q 891 1111 920 1127 q 827 1095 863 1095 q 744 1125 775 1095 q 713 1206 713 1156 m 1335 1032 l 1065 -11 l 844 -11 l 699 566 l 665 788 l 635 565 l 486 -11 l 280 -11 l 3 1032 l 220 1032 l 347 426 l 383 175 l 425 426 l 574 1032 l 766 1032 l 925 426 l 967 186 l 1002 426 l 1119 1032 l 1335 1032 z "},"Ẁ":{"ha":1338,"x_min":3,"x_max":1335,"o":"m 654 1046 q 575 1092 624 1057 q 479 1173 527 1127 q 406 1254 432 1218 l 553 1343 q 616 1265 560 1321 q 753 1131 673 1208 l 654 1046 m 1335 1032 l 1065 -11 l 844 -11 l 699 566 l 665 788 l 635 565 l 486 -11 l 280 -11 l 3 1032 l 220 1032 l 347 426 l 383 175 l 425 426 l 574 1032 l 766 1032 l 925 426 l 967 186 l 1002 426 l 1119 1032 l 1335 1032 z "},"X":{"ha":933,"x_min":22,"x_max":911,"o":"m 911 0 l 672 0 l 507 288 l 456 377 l 247 0 l 22 0 l 333 533 l 29 1032 l 265 1033 l 477 667 l 528 760 l 677 1032 l 905 1032 l 597 510 l 911 0 z "},"Y":{"ha":842,"x_min":-34,"x_max":876,"o":"m 529 361 l 529 0 l 313 0 l 313 363 l -34 1032 l 203 1032 l 393 632 l 423 555 l 449 632 l 644 1032 l 876 1032 l 529 361 z "},"Ý":{"ha":842,"x_min":-34,"x_max":876,"o":"m 529 361 l 529 0 l 313 0 l 313 363 l -34 1032 l 203 1032 l 393 632 l 423 555 l 449 632 l 644 1032 l 876 1032 l 529 361 m 337 1131 q 457 1249 385 1176 q 537 1343 530 1321 l 684 1254 q 608 1171 654 1215 q 515 1092 562 1126 q 436 1046 468 1057 l 337 1131 z "},"Ŷ":{"ha":842,"x_min":-34,"x_max":876,"o":"m 529 361 l 529 0 l 313 0 l 313 363 l -34 1032 l 203 1032 l 393 632 l 423 555 l 449 632 l 644 1032 l 876 1032 l 529 361 m 359 1329 l 508 1329 l 695 1120 l 583 1057 l 433 1192 l 283 1057 l 173 1118 l 359 1329 z "},"Ÿ":{"ha":842,"x_min":-34,"x_max":876,"o":"m 529 361 l 529 0 l 313 0 l 313 363 l -34 1032 l 203 1032 l 393 632 l 423 555 l 449 632 l 644 1032 l 876 1032 l 529 361 m 136 1206 q 153 1268 136 1240 q 199 1313 170 1297 q 262 1329 228 1329 q 347 1299 317 1329 q 376 1218 376 1269 q 360 1155 376 1183 q 314 1111 343 1127 q 250 1095 286 1095 q 167 1125 198 1095 q 136 1206 136 1156 m 491 1206 q 508 1268 491 1240 q 554 1313 525 1297 q 618 1329 583 1329 q 702 1299 673 1329 q 731 1218 731 1269 q 715 1155 731 1183 q 670 1111 699 1127 q 605 1095 641 1095 q 522 1125 553 1095 q 491 1206 491 1156 z "},"Ẏ":{"ha":842,"x_min":-34,"x_max":876,"o":"m 529 361 l 529 0 l 313 0 l 313 363 l -34 1032 l 203 1032 l 393 632 l 423 555 l 449 632 l 644 1032 l 876 1032 l 529 361 m 315 1205 q 332 1267 315 1239 q 379 1312 349 1295 q 444 1328 409 1328 q 529 1298 499 1328 q 559 1217 559 1267 q 543 1154 559 1182 q 496 1110 526 1126 q 431 1094 467 1094 q 347 1124 379 1094 q 315 1205 315 1154 z "},"Ỳ":{"ha":842,"x_min":-34,"x_max":876,"o":"m 529 361 l 529 0 l 313 0 l 313 363 l -34 1032 l 203 1032 l 393 632 l 423 555 l 449 632 l 644 1032 l 876 1032 l 529 361 m 432 1046 q 354 1092 402 1057 q 258 1173 305 1127 q 184 1254 210 1218 l 331 1343 q 395 1265 338 1321 q 531 1131 451 1208 l 432 1046 z "},"Z":{"ha":886,"x_min":37,"x_max":838,"o":"m 502 821 l 541 876 l 88 876 l 88 1032 l 812 1032 l 838 977 l 382 227 l 332 164 l 811 164 l 811 0 l 64 0 l 37 57 l 502 821 z "},"Ź":{"ha":886,"x_min":37,"x_max":838,"o":"m 502 821 l 541 876 l 88 876 l 88 1032 l 812 1032 l 838 977 l 382 227 l 332 164 l 811 164 l 811 0 l 64 0 l 37 57 l 502 821 m 362 1131 q 483 1249 410 1176 q 562 1343 555 1321 l 709 1254 q 633 1171 680 1215 q 540 1092 587 1126 q 461 1046 493 1057 l 362 1131 z "},"Ž":{"ha":886,"x_min":37,"x_max":838,"o":"m 310 1329 l 459 1206 l 610 1329 l 715 1267 l 534 1069 l 385 1069 l 203 1267 l 310 1329 m 502 821 l 541 876 l 88 876 l 88 1032 l 812 1032 l 838 977 l 382 227 l 332 164 l 811 164 l 811 0 l 64 0 l 37 57 l 502 821 z "},"Ż":{"ha":886,"x_min":37,"x_max":838,"o":"m 340 1205 q 357 1267 340 1239 q 404 1312 374 1295 q 469 1328 434 1328 q 554 1298 524 1328 q 585 1217 585 1267 q 568 1154 585 1182 q 521 1110 551 1126 q 456 1094 492 1094 q 372 1124 404 1094 q 340 1205 340 1154 m 502 821 l 541 876 l 88 876 l 88 1032 l 812 1032 l 838 977 l 382 227 l 332 164 l 811 164 l 811 0 l 64 0 l 37 57 l 502 821 z "},"a":{"ha":829,"x_min":69,"x_max":726,"o":"m 412 788 q 592 763 524 788 q 692 677 659 739 q 726 505 726 616 l 726 -11 l 602 -11 q 556 -7 572 -11 q 532 12 541 -3 q 523 60 523 27 l 523 65 q 436 11 488 33 q 321 -11 385 -11 q 190 21 247 -11 q 101 111 132 54 q 69 241 69 168 q 104 357 69 309 q 204 434 139 405 q 514 479 305 479 l 514 528 q 503 591 514 571 q 460 619 492 612 q 361 627 429 627 q 262 610 328 627 q 148 572 195 593 l 101 707 q 180 743 128 724 q 293 775 231 762 q 412 788 355 788 m 394 132 q 465 146 428 132 q 514 175 503 160 l 514 359 q 427 351 475 359 q 355 332 378 342 q 306 300 324 320 q 288 242 288 281 q 317 160 288 188 q 394 132 347 132 z "},"á":{"ha":829,"x_min":69,"x_max":726,"o":"m 412 788 q 592 763 524 788 q 692 677 659 739 q 726 505 726 616 l 726 -11 l 602 -11 q 556 -7 572 -11 q 532 12 541 -3 q 523 60 523 27 l 523 65 q 436 11 488 33 q 321 -11 385 -11 q 190 21 247 -11 q 101 111 132 54 q 69 241 69 168 q 104 357 69 309 q 204 434 139 405 q 514 479 305 479 l 514 528 q 503 591 514 571 q 460 619 492 612 q 361 627 429 627 q 262 610 328 627 q 148 572 195 593 l 101 707 q 180 743 128 724 q 293 775 231 762 q 412 788 355 788 m 394 132 q 465 146 428 132 q 514 175 503 160 l 514 359 q 427 351 475 359 q 355 332 378 342 q 306 300 324 320 q 288 242 288 281 q 317 160 288 188 q 394 132 347 132 m 334 941 q 456 1072 395 998 q 566 1225 516 1145 l 711 1107 q 638 1009 692 1065 q 525 907 585 954 q 435 848 465 861 l 334 941 z "},"ă":{"ha":829,"x_min":69,"x_max":726,"o":"m 412 788 q 592 763 524 788 q 692 677 659 739 q 726 505 726 616 l 726 -11 l 602 -11 q 556 -7 572 -11 q 532 12 541 -3 q 523 60 523 27 l 523 65 q 436 11 488 33 q 321 -11 385 -11 q 190 21 247 -11 q 101 111 132 54 q 69 241 69 168 q 104 357 69 309 q 204 434 139 405 q 514 479 305 479 l 514 528 q 503 591 514 571 q 460 619 492 612 q 361 627 429 627 q 262 610 328 627 q 148 572 195 593 l 101 707 q 180 743 128 724 q 293 775 231 762 q 412 788 355 788 m 394 132 q 465 146 428 132 q 514 175 503 160 l 514 359 q 427 351 475 359 q 355 332 378 342 q 306 300 324 320 q 288 242 288 281 q 317 160 288 188 q 394 132 347 132 m 311 1142 q 321 1092 314 1115 q 353 1048 328 1068 q 426 1027 378 1027 q 498 1048 473 1027 q 531 1092 523 1068 q 541 1142 538 1116 l 672 1142 q 645 1010 675 1071 q 557 915 614 950 q 425 880 500 880 q 290 915 347 880 q 204 1010 233 950 q 178 1142 176 1070 l 311 1142 z "},"ǎ":{"ha":829,"x_min":69,"x_max":726,"o":"m 412 788 q 592 763 524 788 q 692 677 659 739 q 726 505 726 616 l 726 -11 l 602 -11 q 556 -7 572 -11 q 532 12 541 -3 q 523 60 523 27 l 523 65 q 436 11 488 33 q 321 -11 385 -11 q 190 21 247 -11 q 101 111 132 54 q 69 241 69 168 q 104 357 69 309 q 204 434 139 405 q 514 479 305 479 l 514 528 q 503 591 514 571 q 460 619 492 612 q 361 627 429 627 q 262 610 328 627 q 148 572 195 593 l 101 707 q 180 743 128 724 q 293 775 231 762 q 412 788 355 788 m 394 132 q 465 146 428 132 q 514 175 503 160 l 514 359 q 427 351 475 359 q 355 332 378 342 q 306 300 324 320 q 288 242 288 281 q 317 160 288 188 q 394 132 347 132 m 424 994 l 582 1161 l 691 1100 l 499 848 l 348 848 l 154 1101 l 260 1161 l 424 994 z "},"â":{"ha":829,"x_min":69,"x_max":726,"o":"m 412 788 q 592 763 524 788 q 692 677 659 739 q 726 505 726 616 l 726 -11 l 602 -11 q 556 -7 572 -11 q 532 12 541 -3 q 523 60 523 27 l 523 65 q 436 11 488 33 q 321 -11 385 -11 q 190 21 247 -11 q 101 111 132 54 q 69 241 69 168 q 104 357 69 309 q 204 434 139 405 q 514 479 305 479 l 514 528 q 503 591 514 571 q 460 619 492 612 q 361 627 429 627 q 262 610 328 627 q 148 572 195 593 l 101 707 q 180 743 128 724 q 293 775 231 762 q 412 788 355 788 m 394 132 q 465 146 428 132 q 514 175 503 160 l 514 359 q 427 351 475 359 q 355 332 378 342 q 306 300 324 320 q 288 242 288 281 q 317 160 288 188 q 394 132 347 132 m 351 1152 l 502 1152 l 694 899 l 585 838 l 427 1005 l 262 838 l 157 899 l 351 1152 z "},"ä":{"ha":829,"x_min":69,"x_max":726,"o":"m 412 788 q 592 763 524 788 q 692 677 659 739 q 726 505 726 616 l 726 -11 l 602 -11 q 556 -7 572 -11 q 532 12 541 -3 q 523 60 523 27 l 523 65 q 436 11 488 33 q 321 -11 385 -11 q 190 21 247 -11 q 101 111 132 54 q 69 241 69 168 q 104 357 69 309 q 204 434 139 405 q 514 479 305 479 l 514 528 q 503 591 514 571 q 460 619 492 612 q 361 627 429 627 q 262 610 328 627 q 148 572 195 593 l 101 707 q 180 743 128 724 q 293 775 231 762 q 412 788 355 788 m 394 132 q 465 146 428 132 q 514 175 503 160 l 514 359 q 427 351 475 359 q 355 332 378 342 q 306 300 324 320 q 288 242 288 281 q 317 160 288 188 q 394 132 347 132 m 142 1002 q 159 1064 142 1035 q 204 1110 176 1093 q 267 1127 233 1127 q 350 1096 321 1127 q 378 1013 378 1064 q 362 950 378 979 q 317 905 346 922 q 254 888 289 888 q 173 920 203 888 q 142 1002 142 951 m 471 1002 q 488 1064 471 1035 q 533 1110 505 1093 q 596 1127 562 1127 q 679 1096 650 1127 q 707 1013 707 1064 q 691 950 707 979 q 646 905 675 922 q 583 888 618 888 q 502 920 532 888 q 471 1002 471 951 z "},"à":{"ha":829,"x_min":69,"x_max":726,"o":"m 412 788 q 592 763 524 788 q 692 677 659 739 q 726 505 726 616 l 726 -11 l 602 -11 q 556 -7 572 -11 q 532 12 541 -3 q 523 60 523 27 l 523 65 q 436 11 488 33 q 321 -11 385 -11 q 190 21 247 -11 q 101 111 132 54 q 69 241 69 168 q 104 357 69 309 q 204 434 139 405 q 514 479 305 479 l 514 528 q 503 591 514 571 q 460 619 492 612 q 361 627 429 627 q 262 610 328 627 q 148 572 195 593 l 101 707 q 180 743 128 724 q 293 775 231 762 q 412 788 355 788 m 394 132 q 465 146 428 132 q 514 175 503 160 l 514 359 q 427 351 475 359 q 355 332 378 342 q 306 300 324 320 q 288 242 288 281 q 317 160 288 188 q 394 132 347 132 m 406 848 q 316 907 374 863 q 204 1007 258 952 q 130 1107 151 1062 l 275 1225 q 381 1076 317 1155 q 507 941 446 998 l 406 848 z "},"ā":{"ha":829,"x_min":69,"x_max":726,"o":"m 412 788 q 592 763 524 788 q 692 677 659 739 q 726 505 726 616 l 726 -11 l 602 -11 q 556 -7 572 -11 q 532 12 541 -3 q 523 60 523 27 l 523 65 q 436 11 488 33 q 321 -11 385 -11 q 190 21 247 -11 q 101 111 132 54 q 69 241 69 168 q 104 357 69 309 q 204 434 139 405 q 514 479 305 479 l 514 528 q 503 591 514 571 q 460 619 492 612 q 361 627 429 627 q 262 610 328 627 q 148 572 195 593 l 101 707 q 180 743 128 724 q 293 775 231 762 q 412 788 355 788 m 394 132 q 465 146 428 132 q 514 175 503 160 l 514 359 q 427 351 475 359 q 355 332 378 342 q 306 300 324 320 q 288 242 288 281 q 317 160 288 188 q 394 132 347 132 m 625 1102 l 625 962 l 224 962 l 224 1102 l 625 1102 z "},"ą":{"ha":829,"x_min":69,"x_max":734,"o":"m 650 -211 q 734 -197 687 -211 l 734 -304 q 664 -338 705 -326 q 578 -350 622 -350 q 495 -334 535 -350 q 429 -287 455 -317 q 401 -214 404 -256 q 439 -92 397 -146 q 545 -2 481 -38 q 523 60 523 12 l 523 65 q 436 11 488 33 q 321 -11 385 -11 q 190 21 247 -11 q 101 111 132 54 q 69 241 69 168 q 104 357 69 309 q 204 434 139 405 q 514 479 305 479 l 514 528 q 503 591 514 571 q 460 619 492 612 q 361 627 429 627 q 262 610 328 627 q 148 572 195 593 l 101 707 q 180 743 128 724 q 293 775 231 762 q 412 788 355 788 q 592 763 524 788 q 692 677 659 739 q 726 505 726 616 l 726 -11 l 673 -11 q 594 -77 621 -46 q 568 -144 568 -107 q 650 -211 568 -211 m 394 132 q 465 146 428 132 q 514 175 503 160 l 514 359 q 427 351 475 359 q 355 332 378 342 q 306 300 324 320 q 288 242 288 281 q 317 160 288 188 q 394 132 347 132 z "},"å":{"ha":829,"x_min":69,"x_max":726,"o":"m 412 788 q 592 763 524 788 q 692 677 659 739 q 726 505 726 616 l 726 -11 l 602 -11 q 556 -7 572 -11 q 532 12 541 -3 q 523 60 523 27 l 523 65 q 436 11 488 33 q 321 -11 385 -11 q 190 21 247 -11 q 101 111 132 54 q 69 241 69 168 q 104 357 69 309 q 204 434 139 405 q 514 479 305 479 l 514 528 q 503 591 514 571 q 460 619 492 612 q 361 627 429 627 q 262 610 328 627 q 148 572 195 593 l 101 707 q 180 743 128 724 q 293 775 231 762 q 412 788 355 788 m 394 132 q 465 146 428 132 q 514 175 503 160 l 514 359 q 427 351 475 359 q 355 332 378 342 q 306 300 324 320 q 288 242 288 281 q 317 160 288 188 q 394 132 347 132 m 193 1086 q 226 1196 193 1153 q 313 1260 260 1240 q 428 1280 366 1280 q 595 1230 534 1280 q 656 1088 656 1181 q 624 978 656 1022 q 538 912 591 933 q 422 890 485 890 q 299 914 351 890 q 220 982 248 938 q 193 1086 193 1025 m 532 1084 q 501 1155 532 1129 q 421 1181 470 1181 q 347 1159 376 1181 q 317 1089 317 1137 q 347 1020 317 1046 q 424 994 377 994 q 504 1014 476 993 q 532 1084 532 1034 z "},"ã":{"ha":829,"x_min":69,"x_max":726,"o":"m 412 788 q 592 763 524 788 q 692 677 659 739 q 726 505 726 616 l 726 -11 l 602 -11 q 556 -7 572 -11 q 532 12 541 -3 q 523 60 523 27 l 523 65 q 436 11 488 33 q 321 -11 385 -11 q 190 21 247 -11 q 101 111 132 54 q 69 241 69 168 q 104 357 69 309 q 204 434 139 405 q 514 479 305 479 l 514 528 q 503 591 514 571 q 460 619 492 612 q 361 627 429 627 q 262 610 328 627 q 148 572 195 593 l 101 707 q 180 743 128 724 q 293 775 231 762 q 412 788 355 788 m 394 132 q 465 146 428 132 q 514 175 503 160 l 514 359 q 427 351 475 359 q 355 332 378 342 q 306 300 324 320 q 288 242 288 281 q 317 160 288 188 q 394 132 347 132 m 122 998 q 199 1109 146 1066 q 326 1152 252 1152 q 397 1138 370 1152 q 453 1099 424 1124 q 490 1072 475 1081 q 526 1063 505 1063 q 581 1084 556 1063 q 631 1139 606 1105 l 716 1065 q 641 953 692 995 q 514 911 589 911 q 449 924 475 911 q 394 962 424 937 q 352 991 369 982 q 311 1001 335 1001 q 257 981 285 1001 q 207 932 230 960 l 122 998 z "},"æ":{"ha":1255,"x_min":69,"x_max":1190,"o":"m 1190 481 q 1182 336 1190 383 l 725 336 q 785 193 731 240 q 931 146 839 146 q 1038 158 975 146 q 1130 186 1101 170 l 1164 66 q 1044 12 1124 34 q 878 -11 964 -11 q 713 20 785 -11 q 596 108 642 50 q 471 17 541 44 q 322 -11 402 -11 q 194 16 252 -11 q 103 96 136 43 q 69 224 69 149 q 108 348 69 294 q 214 432 146 402 q 350 468 269 456 q 509 479 431 479 l 509 520 q 496 583 509 560 q 454 616 483 606 q 376 627 425 627 q 294 618 338 627 q 212 596 250 609 q 155 572 174 583 l 108 707 q 177 739 132 721 q 289 773 223 758 q 425 788 355 788 q 565 770 510 788 q 651 711 620 753 q 886 784 745 784 q 1038 753 970 784 q 1147 655 1106 723 q 1190 481 1188 587 m 993 453 q 994 483 994 463 q 966 595 994 557 q 876 633 938 633 q 776 592 813 633 q 728 453 739 551 l 993 453 m 394 132 q 479 154 437 132 q 543 202 522 175 q 513 359 517 269 q 426 352 467 360 q 358 332 385 344 q 321 313 336 322 q 297 284 307 303 q 286 235 286 266 q 316 158 286 184 q 394 132 346 132 z "},"ǽ":{"ha":1255,"x_min":69,"x_max":1190,"o":"m 547 941 q 669 1072 608 998 q 779 1225 729 1145 l 924 1107 q 851 1009 905 1065 q 738 907 798 954 q 648 848 677 861 l 547 941 m 1190 481 q 1182 336 1190 383 l 725 336 q 785 193 731 240 q 931 146 839 146 q 1038 158 975 146 q 1130 186 1101 170 l 1164 66 q 1044 12 1124 34 q 878 -11 964 -11 q 713 20 785 -11 q 596 108 642 50 q 471 17 541 44 q 322 -11 402 -11 q 194 16 252 -11 q 103 96 136 43 q 69 224 69 149 q 108 348 69 294 q 214 432 146 402 q 350 468 269 456 q 509 479 431 479 l 509 520 q 496 583 509 560 q 454 616 483 606 q 376 627 425 627 q 294 618 338 627 q 212 596 250 609 q 155 572 174 583 l 108 707 q 177 739 132 721 q 289 773 223 758 q 425 788 355 788 q 565 770 510 788 q 651 711 620 753 q 886 784 745 784 q 1038 753 970 784 q 1147 655 1106 723 q 1190 481 1188 587 m 993 453 q 994 483 994 463 q 966 595 994 557 q 876 633 938 633 q 776 592 813 633 q 728 453 739 551 l 993 453 m 394 132 q 479 154 437 132 q 543 202 522 175 q 513 359 517 269 q 426 352 467 360 q 358 332 385 344 q 321 313 336 322 q 297 284 307 303 q 286 235 286 266 q 316 158 286 184 q 394 132 346 132 z "},"b":{"ha":909,"x_min":114,"x_max":844,"o":"m 536 784 q 691 743 621 784 q 803 619 761 702 q 844 415 844 536 q 793 190 844 288 q 651 38 743 92 q 440 -16 559 -16 q 304 -5 375 -16 q 180 20 233 5 q 114 43 126 34 l 114 1126 l 326 1126 l 326 830 l 320 703 q 408 761 357 737 q 536 784 460 784 m 623 404 q 584 576 623 526 q 471 626 545 626 q 390 612 429 626 q 326 578 351 599 l 326 157 q 445 131 350 131 q 536 163 496 131 q 600 257 576 195 q 623 404 623 319 z "},"ḃ":{"ha":909,"x_min":114,"x_max":844,"o":"m 536 784 q 691 743 621 784 q 803 619 761 702 q 844 415 844 536 q 793 190 844 288 q 651 38 743 92 q 440 -16 559 -16 q 304 -5 375 -16 q 180 20 233 5 q 114 43 126 34 l 114 1126 l 326 1126 l 326 830 l 320 703 q 408 761 357 737 q 536 784 460 784 m 623 404 q 584 576 623 526 q 471 626 545 626 q 390 612 429 626 q 326 578 351 599 l 326 157 q 445 131 350 131 q 536 163 496 131 q 600 257 576 195 q 623 404 623 319 m 437 1002 q 456 1065 437 1036 q 506 1112 475 1095 q 572 1129 537 1129 q 661 1097 627 1129 q 694 1014 694 1065 q 675 950 694 980 q 626 904 656 921 q 559 886 595 886 q 497 901 525 886 q 453 943 469 916 q 437 1002 437 969 z "},"c":{"ha":711,"x_min":64,"x_max":663,"o":"m 450 784 q 574 772 519 784 q 651 745 630 760 l 625 581 q 560 604 595 597 q 472 611 524 611 q 379 590 423 611 q 306 523 335 570 q 275 404 277 477 q 296 268 273 323 q 364 186 320 213 q 464 159 408 159 q 561 169 515 159 q 632 191 608 178 l 663 66 q 562 10 627 31 q 425 -11 498 -11 q 227 39 309 -11 q 105 177 146 89 q 64 377 64 264 q 107 586 64 494 q 237 731 150 678 q 450 784 323 784 z "},"ć":{"ha":711,"x_min":64,"x_max":718,"o":"m 342 942 q 463 1072 403 999 q 573 1226 524 1145 l 718 1108 q 646 1010 700 1065 q 532 908 592 954 q 443 849 472 862 l 342 942 m 450 784 q 574 772 519 784 q 651 745 630 760 l 625 581 q 560 604 595 597 q 472 611 524 611 q 379 590 423 611 q 306 523 335 570 q 275 404 277 477 q 296 268 273 323 q 364 186 320 213 q 464 159 408 159 q 561 169 515 159 q 632 191 608 178 l 663 66 q 562 10 627 31 q 425 -11 498 -11 q 227 39 309 -11 q 105 177 146 89 q 64 377 64 264 q 107 586 64 494 q 237 731 150 678 q 450 784 323 784 z "},"č":{"ha":711,"x_min":64,"x_max":699,"o":"m 431 995 l 589 1162 l 699 1101 l 507 848 l 355 848 l 161 1101 l 267 1162 l 431 995 m 450 784 q 574 772 519 784 q 651 745 630 760 l 625 581 q 560 604 595 597 q 472 611 524 611 q 379 590 423 611 q 306 523 335 570 q 275 404 277 477 q 296 268 273 323 q 364 186 320 213 q 464 159 408 159 q 561 169 515 159 q 632 191 608 178 l 663 66 q 562 10 627 31 q 425 -11 498 -11 q 227 39 309 -11 q 105 177 146 89 q 64 377 64 264 q 107 586 64 494 q 237 731 150 678 q 450 784 323 784 z "},"ç":{"ha":711,"x_min":64,"x_max":663,"o":"m 663 66 q 588 20 635 39 q 485 -7 541 1 q 504 -72 498 -33 q 508 -150 509 -111 q 457 -274 505 -233 q 335 -315 408 -315 q 264 -309 303 -315 q 213 -296 225 -303 l 227 -184 q 279 -193 241 -193 q 336 -168 313 -193 q 361 -92 359 -142 q 361 -68 361 -83 q 352 -5 361 -30 q 194 62 258 9 q 97 196 129 115 q 64 377 64 277 q 107 586 64 494 q 237 731 150 678 q 450 784 323 784 q 574 772 519 784 q 651 745 630 760 l 625 581 q 560 604 595 597 q 472 611 524 611 q 379 590 423 611 q 306 523 335 570 q 275 404 277 477 q 296 268 273 323 q 364 186 320 213 q 464 159 408 159 q 561 169 515 159 q 632 191 608 178 l 663 66 z "},"ĉ":{"ha":711,"x_min":64,"x_max":701,"o":"m 358 1152 l 509 1152 l 701 900 l 592 839 l 434 1006 l 270 839 l 164 899 l 358 1152 m 450 784 q 574 772 519 784 q 651 745 630 760 l 625 581 q 560 604 595 597 q 472 611 524 611 q 379 590 423 611 q 306 523 335 570 q 275 404 277 477 q 296 268 273 323 q 364 186 320 213 q 464 159 408 159 q 561 169 515 159 q 632 191 608 178 l 663 66 q 562 10 627 31 q 425 -11 498 -11 q 227 39 309 -11 q 105 177 146 89 q 64 377 64 264 q 107 586 64 494 q 237 731 150 678 q 450 784 323 784 z "},"ċ":{"ha":711,"x_min":64,"x_max":663,"o":"m 450 784 q 574 772 519 784 q 651 745 630 760 l 625 581 q 560 604 595 597 q 472 611 524 611 q 379 590 423 611 q 306 523 335 570 q 275 404 277 477 q 296 268 273 323 q 364 186 320 213 q 464 159 408 159 q 561 169 515 159 q 632 191 608 178 l 663 66 q 562 10 627 31 q 425 -11 498 -11 q 227 39 309 -11 q 105 177 146 89 q 64 377 64 264 q 107 586 64 494 q 237 731 150 678 q 450 784 323 784 m 300 1002 q 319 1065 300 1036 q 370 1112 338 1095 q 435 1129 401 1129 q 524 1097 491 1129 q 557 1014 557 1065 q 539 950 557 980 q 489 904 520 921 q 423 886 458 886 q 361 901 389 886 q 317 943 333 916 q 300 1002 300 969 z "},"d":{"ha":908,"x_min":64,"x_max":794,"o":"m 794 1127 l 794 -11 l 650 -11 q 612 -3 625 -11 q 600 28 600 5 l 600 81 q 509 16 562 43 q 372 -11 456 -11 q 218 31 288 -11 q 106 157 148 73 q 64 361 64 241 q 114 584 64 488 q 252 732 163 680 q 458 784 341 784 q 585 762 527 784 l 583 830 l 583 1127 l 794 1127 m 286 374 q 325 204 286 254 q 437 154 364 154 q 518 165 479 154 q 583 195 557 177 l 583 612 q 534 629 564 625 q 464 633 505 633 q 372 604 412 633 q 309 517 332 575 q 286 374 286 458 z "},"ð":{"ha":878,"x_min":64,"x_max":824,"o":"m 477 1082 q 660 923 581 1023 q 781 698 739 823 q 824 441 824 573 q 773 190 824 294 q 636 34 723 86 q 441 -18 549 -18 q 242 31 328 -18 q 111 169 157 80 q 64 373 64 257 q 106 588 64 496 q 229 729 149 680 q 423 779 310 779 q 553 744 496 779 q 488 864 532 806 q 385 963 444 921 l 306 856 l 205 923 l 288 1030 q 149 1093 219 1072 l 185 1212 q 290 1177 246 1194 q 372 1139 334 1160 q 422 1207 396 1171 q 457 1256 449 1244 l 560 1188 q 527 1145 553 1178 q 477 1082 501 1112 m 448 137 q 528 166 492 137 q 584 253 564 196 q 605 389 605 310 q 601 553 605 502 q 542 608 583 585 q 448 632 501 632 q 360 601 397 632 q 304 512 323 570 q 284 371 284 453 q 327 197 284 257 q 448 137 370 137 z "},"ď":{"ha":1117,"x_min":64,"x_max":1119,"o":"m 794 1127 l 794 -11 l 650 -11 q 612 -3 625 -11 q 600 28 600 5 l 600 81 q 509 16 562 43 q 372 -11 456 -11 q 218 31 288 -11 q 106 157 148 73 q 64 361 64 241 q 114 584 64 488 q 252 732 163 680 q 458 784 341 784 q 585 762 527 784 l 583 830 l 583 1127 l 794 1127 m 286 374 q 325 204 286 254 q 437 154 364 154 q 518 165 479 154 q 583 195 557 177 l 583 612 q 534 629 564 625 q 464 633 505 633 q 372 604 412 633 q 309 517 332 575 q 286 374 286 458 m 942 720 q 953 808 949 751 q 957 920 958 865 q 945 1008 957 966 q 917 1067 933 1050 l 925 1111 l 1071 1158 q 1119 977 1119 1113 q 1106 861 1119 921 q 1075 753 1094 801 q 1038 685 1056 706 l 947 704 l 942 720 z "},"đ":{"ha":908,"x_min":64,"x_max":881,"o":"m 881 877 l 794 877 l 794 -11 l 650 -11 q 612 -3 625 -11 q 600 28 600 5 l 600 81 q 509 16 562 43 q 372 -11 456 -11 q 218 31 288 -11 q 106 157 148 73 q 64 361 64 241 q 114 584 64 488 q 252 732 163 680 q 458 784 341 784 q 585 762 527 784 l 583 830 l 583 877 l 429 877 l 429 999 l 583 999 l 583 1127 l 794 1127 l 794 999 l 881 999 l 881 877 m 286 374 q 325 204 286 254 q 437 154 364 154 q 518 165 479 154 q 583 195 557 177 l 583 612 q 534 629 564 625 q 464 633 505 633 q 372 604 412 633 q 309 517 332 575 q 286 374 286 458 z "},"ḋ":{"ha":908,"x_min":64,"x_max":794,"o":"m 794 1127 l 794 -11 l 650 -11 q 612 -3 625 -11 q 600 28 600 5 l 600 81 q 509 16 562 43 q 372 -11 456 -11 q 218 31 288 -11 q 106 157 148 73 q 64 361 64 241 q 114 584 64 488 q 252 732 163 680 q 458 784 341 784 q 585 762 527 784 l 583 830 l 583 1127 l 794 1127 m 286 374 q 325 204 286 254 q 437 154 364 154 q 518 165 479 154 q 583 195 557 177 l 583 612 q 534 629 564 625 q 464 633 505 633 q 372 604 412 633 q 309 517 332 575 q 286 374 286 458 m 155 1002 q 174 1065 155 1036 q 224 1112 193 1095 q 290 1129 255 1129 q 378 1097 345 1129 q 412 1014 412 1065 q 393 950 412 980 q 343 904 374 921 q 277 886 313 886 q 215 901 243 886 q 171 943 187 916 q 155 1002 155 969 z "},"ǳ":{"ha":1659,"x_min":64,"x_max":1617,"o":"m 794 1127 l 794 -11 l 650 -11 q 612 -3 625 -11 q 600 28 600 5 l 600 81 q 509 16 562 43 q 372 -11 456 -11 q 218 31 288 -11 q 106 157 148 73 q 64 361 64 241 q 114 584 64 488 q 252 732 163 680 q 458 784 341 784 q 585 762 527 784 l 583 830 l 583 1127 l 794 1127 m 286 374 q 325 204 286 254 q 437 154 364 154 q 518 165 479 154 q 583 195 557 177 l 583 612 q 534 629 564 625 q 464 633 505 633 q 372 604 412 633 q 309 517 332 575 q 286 374 286 458 m 1296 570 l 1335 626 l 1004 626 l 1006 773 l 1593 773 l 1617 709 l 1289 203 l 1247 146 l 1606 146 l 1606 0 l 988 0 l 960 56 l 1296 570 z "},"ǆ":{"ha":1659,"x_min":64,"x_max":1617,"o":"m 794 1127 l 794 -11 l 650 -11 q 612 -3 625 -11 q 600 28 600 5 l 600 81 q 509 16 562 43 q 372 -11 456 -11 q 218 31 288 -11 q 106 157 148 73 q 64 361 64 241 q 114 584 64 488 q 252 732 163 680 q 458 784 341 784 q 585 762 527 784 l 583 830 l 583 1127 l 794 1127 m 286 374 q 325 204 286 254 q 437 154 364 154 q 518 165 479 154 q 583 195 557 177 l 583 612 q 534 629 564 625 q 464 633 505 633 q 372 604 412 633 q 309 517 332 575 q 286 374 286 458 m 1296 570 l 1335 626 l 1004 626 l 1006 773 l 1593 773 l 1617 709 l 1289 203 l 1247 146 l 1606 146 l 1606 0 l 988 0 l 960 56 l 1296 570 m 1295 994 l 1453 1161 l 1562 1100 l 1370 848 l 1219 848 l 1025 1101 l 1131 1161 l 1295 994 z "},"e":{"ha":807,"x_min":64,"x_max":741,"o":"m 741 481 q 734 336 741 383 l 277 336 q 337 193 283 240 q 483 146 391 146 q 590 158 527 146 q 682 186 652 170 l 716 66 q 596 12 676 34 q 429 -11 516 -11 q 231 37 313 -11 q 106 174 149 84 q 64 389 64 264 q 109 593 64 503 q 237 733 153 682 q 438 784 321 784 q 590 753 522 784 q 699 655 658 723 q 741 481 740 587 m 545 453 q 545 483 545 463 q 517 595 545 557 q 427 633 490 633 q 328 592 365 633 q 280 453 291 551 l 545 453 z "},"é":{"ha":807,"x_min":64,"x_max":741,"o":"m 340 942 q 461 1072 401 999 q 571 1226 522 1145 l 716 1108 q 644 1010 698 1065 q 530 908 590 954 q 441 849 470 862 l 340 942 m 741 481 q 734 336 741 383 l 277 336 q 337 193 283 240 q 483 146 391 146 q 590 158 527 146 q 682 186 652 170 l 716 66 q 596 12 676 34 q 429 -11 516 -11 q 231 37 313 -11 q 106 174 149 84 q 64 389 64 264 q 109 593 64 503 q 237 733 153 682 q 438 784 321 784 q 590 753 522 784 q 699 655 658 723 q 741 481 740 587 m 545 453 q 545 483 545 463 q 517 595 545 557 q 427 633 490 633 q 328 592 365 633 q 280 453 291 551 l 545 453 z "},"ĕ":{"ha":807,"x_min":64,"x_max":741,"o":"m 741 481 q 734 336 741 383 l 277 336 q 337 193 283 240 q 483 146 391 146 q 590 158 527 146 q 682 186 652 170 l 716 66 q 596 12 676 34 q 429 -11 516 -11 q 231 37 313 -11 q 106 174 149 84 q 64 389 64 264 q 109 593 64 503 q 237 733 153 682 q 438 784 321 784 q 590 753 522 784 q 699 655 658 723 q 741 481 740 587 m 545 453 q 545 483 545 463 q 517 595 545 557 q 427 633 490 633 q 328 592 365 633 q 280 453 291 551 l 545 453 m 317 1143 q 326 1092 319 1116 q 358 1048 333 1069 q 431 1028 383 1028 q 503 1048 478 1028 q 536 1093 528 1069 q 547 1143 544 1116 l 677 1143 q 650 1011 680 1072 q 563 916 620 951 q 431 880 505 880 q 296 916 353 880 q 210 1011 239 951 q 184 1143 181 1071 l 317 1143 z "},"ě":{"ha":807,"x_min":64,"x_max":741,"o":"m 429 995 l 587 1162 l 696 1101 l 505 848 l 353 848 l 159 1101 l 265 1162 l 429 995 m 741 481 q 734 336 741 383 l 277 336 q 337 193 283 240 q 483 146 391 146 q 590 158 527 146 q 682 186 652 170 l 716 66 q 596 12 676 34 q 429 -11 516 -11 q 231 37 313 -11 q 106 174 149 84 q 64 389 64 264 q 109 593 64 503 q 237 733 153 682 q 438 784 321 784 q 590 753 522 784 q 699 655 658 723 q 741 481 740 587 m 545 453 q 545 483 545 463 q 517 595 545 557 q 427 633 490 633 q 328 592 365 633 q 280 453 291 551 l 545 453 z "},"ê":{"ha":807,"x_min":64,"x_max":741,"o":"m 356 1152 l 507 1152 l 699 900 l 590 839 l 432 1006 l 268 839 l 162 899 l 356 1152 m 741 481 q 734 336 741 383 l 277 336 q 337 193 283 240 q 483 146 391 146 q 590 158 527 146 q 682 186 652 170 l 716 66 q 596 12 676 34 q 429 -11 516 -11 q 231 37 313 -11 q 106 174 149 84 q 64 389 64 264 q 109 593 64 503 q 237 733 153 682 q 438 784 321 784 q 590 753 522 784 q 699 655 658 723 q 741 481 740 587 m 545 453 q 545 483 545 463 q 517 595 545 557 q 427 633 490 633 q 328 592 365 633 q 280 453 291 551 l 545 453 z "},"ë":{"ha":807,"x_min":64,"x_max":741,"o":"m 147 1002 q 164 1064 147 1036 q 210 1111 181 1093 q 273 1128 239 1128 q 355 1096 327 1128 q 384 1014 384 1065 q 368 951 384 980 q 323 905 351 922 q 260 888 294 888 q 178 920 209 888 q 147 1002 147 952 m 476 1002 q 493 1064 476 1036 q 539 1111 510 1093 q 602 1128 568 1128 q 684 1096 656 1128 q 713 1014 713 1065 q 696 951 713 980 q 652 905 680 922 q 589 888 623 888 q 507 920 538 888 q 476 1002 476 952 m 741 481 q 734 336 741 383 l 277 336 q 337 193 283 240 q 483 146 391 146 q 590 158 527 146 q 682 186 652 170 l 716 66 q 596 12 676 34 q 429 -11 516 -11 q 231 37 313 -11 q 106 174 149 84 q 64 389 64 264 q 109 593 64 503 q 237 733 153 682 q 438 784 321 784 q 590 753 522 784 q 699 655 658 723 q 741 481 740 587 m 545 453 q 545 483 545 463 q 517 595 545 557 q 427 633 490 633 q 328 592 365 633 q 280 453 291 551 l 545 453 z "},"ė":{"ha":807,"x_min":64,"x_max":741,"o":"m 741 481 q 734 336 741 383 l 277 336 q 337 193 283 240 q 483 146 391 146 q 590 158 527 146 q 682 186 652 170 l 716 66 q 596 12 676 34 q 429 -11 516 -11 q 231 37 313 -11 q 106 174 149 84 q 64 389 64 264 q 109 593 64 503 q 237 733 153 682 q 438 784 321 784 q 590 753 522 784 q 699 655 658 723 q 741 481 740 587 m 545 453 q 545 483 545 463 q 517 595 545 557 q 427 633 490 633 q 328 592 365 633 q 280 453 291 551 l 545 453 m 298 1002 q 317 1065 298 1036 q 368 1112 336 1095 q 433 1129 399 1129 q 522 1097 489 1129 q 555 1014 555 1065 q 537 950 555 980 q 487 904 518 921 q 421 886 456 886 q 359 901 387 886 q 315 943 331 916 q 298 1002 298 969 z "},"è":{"ha":807,"x_min":64,"x_max":741,"o":"m 741 481 q 734 336 741 383 l 277 336 q 337 193 283 240 q 483 146 391 146 q 590 158 527 146 q 682 186 652 170 l 716 66 q 596 12 676 34 q 429 -11 516 -11 q 231 37 313 -11 q 106 174 149 84 q 64 389 64 264 q 109 593 64 503 q 237 733 153 682 q 438 784 321 784 q 590 753 522 784 q 699 655 658 723 q 741 481 740 587 m 545 453 q 545 483 545 463 q 517 595 545 557 q 427 633 490 633 q 328 592 365 633 q 280 453 291 551 l 545 453 m 411 849 q 321 908 380 863 q 210 1008 263 953 q 135 1108 156 1063 l 281 1226 q 387 1077 322 1156 q 512 942 451 998 l 411 849 z "},"ē":{"ha":807,"x_min":64,"x_max":741,"o":"m 741 481 q 734 336 741 383 l 277 336 q 337 193 283 240 q 483 146 391 146 q 590 158 527 146 q 682 186 652 170 l 716 66 q 596 12 676 34 q 429 -11 516 -11 q 231 37 313 -11 q 106 174 149 84 q 64 389 64 264 q 109 593 64 503 q 237 733 153 682 q 438 784 321 784 q 590 753 522 784 q 699 655 658 723 q 741 481 740 587 m 545 453 q 545 483 545 463 q 517 595 545 557 q 427 633 490 633 q 328 592 365 633 q 280 453 291 551 l 545 453 m 631 1103 l 631 963 l 230 963 l 230 1103 l 631 1103 z "},"ę":{"ha":807,"x_min":64,"x_max":741,"o":"m 741 481 q 734 336 741 383 l 277 336 q 337 193 283 240 q 483 146 391 146 q 590 158 527 146 q 682 186 652 170 l 716 66 q 712 63 714 64 q 709 61 710 62 l 709 61 q 604 -37 647 15 q 561 -151 561 -89 q 584 -197 562 -182 q 643 -211 606 -211 q 728 -197 680 -211 l 728 -304 q 657 -338 699 -326 q 572 -350 615 -350 q 488 -334 528 -350 q 422 -287 448 -317 q 395 -214 397 -256 q 423 -95 391 -149 q 508 -6 456 -41 q 429 -11 463 -11 q 231 37 313 -11 q 106 174 149 84 q 64 389 64 264 q 109 593 64 503 q 237 733 153 682 q 438 784 321 784 q 590 753 522 784 q 699 655 658 723 q 741 481 740 587 m 545 453 q 545 483 545 463 q 517 595 545 557 q 427 633 490 633 q 328 592 365 633 q 280 453 291 551 l 545 453 z "},"f":{"ha":582,"x_min":56,"x_max":587,"o":"m 56 627 l 56 750 l 161 773 l 161 847 q 203 1019 161 954 q 310 1113 245 1085 q 450 1141 376 1141 q 531 1136 490 1141 q 587 1126 572 1131 l 587 976 q 481 992 553 992 q 402 956 431 992 q 372 852 372 920 l 372 773 l 553 773 l 553 627 l 372 627 l 372 0 l 161 0 l 161 627 l 56 627 z "},"ḟ":{"ha":582,"x_min":56,"x_max":587,"o":"m 87 1229 q 106 1292 87 1263 q 157 1338 125 1321 q 222 1356 188 1356 q 311 1323 278 1356 q 345 1240 345 1291 q 326 1177 345 1206 q 276 1130 307 1147 q 210 1113 245 1113 q 148 1128 176 1113 q 104 1169 120 1143 q 87 1229 87 1196 m 56 627 l 56 750 l 161 773 l 161 847 q 203 1019 161 954 q 310 1113 245 1085 q 450 1141 376 1141 q 531 1136 490 1141 q 587 1126 572 1131 l 587 976 q 481 992 553 992 q 402 956 431 992 q 372 852 372 920 l 372 773 l 553 773 l 553 627 l 372 627 l 372 0 l 161 0 l 161 627 l 56 627 z "},"g":{"ha":885,"x_min":62,"x_max":873,"o":"m 873 620 l 745 620 q 759 532 759 581 q 669 342 759 408 q 415 277 579 277 q 348 282 377 277 q 326 254 334 271 q 319 219 319 237 q 339 176 319 186 q 410 165 359 165 l 539 165 q 773 99 710 165 q 837 -69 837 33 q 782 -220 837 -156 q 635 -317 726 -283 q 437 -350 543 -350 q 160 -292 258 -350 q 62 -124 62 -234 q 95 -29 62 -71 q 181 37 127 13 q 133 85 149 54 q 118 152 118 116 q 146 241 118 198 q 241 311 175 283 q 125 399 168 342 q 83 526 83 456 q 174 721 83 659 q 429 784 264 784 q 663 728 578 784 q 716 760 685 747 q 787 773 747 773 l 873 773 l 873 620 m 418 407 q 522 433 485 407 q 559 526 559 458 q 526 621 559 589 q 428 653 493 653 q 325 625 362 653 q 287 528 287 597 q 321 439 287 471 q 418 407 355 407 m 342 0 q 300 1 328 0 q 272 -77 272 -24 q 312 -183 272 -141 q 437 -225 351 -225 q 577 -198 527 -225 q 628 -111 628 -170 q 616 -48 628 -71 q 566 -12 604 -24 q 453 0 528 0 l 342 0 z "},"ğ":{"ha":885,"x_min":62,"x_max":873,"o":"m 873 620 l 745 620 q 759 532 759 581 q 669 342 759 408 q 415 277 579 277 q 348 282 377 277 q 326 254 334 271 q 319 219 319 237 q 339 176 319 186 q 410 165 359 165 l 539 165 q 773 99 710 165 q 837 -69 837 33 q 782 -220 837 -156 q 635 -317 726 -283 q 437 -350 543 -350 q 160 -292 258 -350 q 62 -124 62 -234 q 95 -29 62 -71 q 181 37 127 13 q 133 85 149 54 q 118 152 118 116 q 146 241 118 198 q 241 311 175 283 q 125 399 168 342 q 83 526 83 456 q 174 721 83 659 q 429 784 264 784 q 663 728 578 784 q 716 760 685 747 q 787 773 747 773 l 873 773 l 873 620 m 418 407 q 522 433 485 407 q 559 526 559 458 q 526 621 559 589 q 428 653 493 653 q 325 625 362 653 q 287 528 287 597 q 321 439 287 471 q 418 407 355 407 m 342 0 q 300 1 328 0 q 272 -77 272 -24 q 312 -183 272 -141 q 437 -225 351 -225 q 577 -198 527 -225 q 628 -111 628 -170 q 616 -48 628 -71 q 566 -12 604 -24 q 453 0 528 0 l 342 0 m 316 1143 q 326 1092 319 1116 q 357 1048 332 1069 q 431 1028 382 1028 q 503 1048 477 1028 q 535 1093 528 1069 q 546 1143 543 1116 l 677 1143 q 649 1011 680 1072 q 562 916 619 951 q 430 880 505 880 q 295 916 352 880 q 209 1011 238 951 q 183 1143 180 1071 l 316 1143 z "},"ǧ":{"ha":885,"x_min":62,"x_max":873,"o":"m 873 620 l 745 620 q 759 532 759 581 q 669 342 759 408 q 415 277 579 277 q 348 282 377 277 q 326 254 334 271 q 319 219 319 237 q 339 176 319 186 q 410 165 359 165 l 539 165 q 773 99 710 165 q 837 -69 837 33 q 782 -220 837 -156 q 635 -317 726 -283 q 437 -350 543 -350 q 160 -292 258 -350 q 62 -124 62 -234 q 95 -29 62 -71 q 181 37 127 13 q 133 85 149 54 q 118 152 118 116 q 146 241 118 198 q 241 311 175 283 q 125 399 168 342 q 83 526 83 456 q 174 721 83 659 q 429 784 264 784 q 663 728 578 784 q 716 760 685 747 q 787 773 747 773 l 873 773 l 873 620 m 418 407 q 522 433 485 407 q 559 526 559 458 q 526 621 559 589 q 428 653 493 653 q 325 625 362 653 q 287 528 287 597 q 321 439 287 471 q 418 407 355 407 m 342 0 q 300 1 328 0 q 272 -77 272 -24 q 312 -183 272 -141 q 437 -225 351 -225 q 577 -198 527 -225 q 628 -111 628 -170 q 616 -48 628 -71 q 566 -12 604 -24 q 453 0 528 0 l 342 0 m 429 995 l 587 1162 l 696 1101 l 504 848 l 353 848 l 159 1101 l 264 1162 l 429 995 z "},"ĝ":{"ha":885,"x_min":62,"x_max":873,"o":"m 355 1152 l 507 1152 l 699 900 l 589 839 l 431 1006 l 267 839 l 161 899 l 355 1152 m 873 620 l 745 620 q 759 532 759 581 q 669 342 759 408 q 415 277 579 277 q 348 282 377 277 q 326 254 334 271 q 319 219 319 237 q 339 176 319 186 q 410 165 359 165 l 539 165 q 773 99 710 165 q 837 -69 837 33 q 782 -220 837 -156 q 635 -317 726 -283 q 437 -350 543 -350 q 160 -292 258 -350 q 62 -124 62 -234 q 95 -29 62 -71 q 181 37 127 13 q 133 85 149 54 q 118 152 118 116 q 146 241 118 198 q 241 311 175 283 q 125 399 168 342 q 83 526 83 456 q 174 721 83 659 q 429 784 264 784 q 663 728 578 784 q 716 760 685 747 q 787 773 747 773 l 873 773 l 873 620 m 418 407 q 522 433 485 407 q 559 526 559 458 q 526 621 559 589 q 428 653 493 653 q 325 625 362 653 q 287 528 287 597 q 321 439 287 471 q 418 407 355 407 m 342 0 q 300 1 328 0 q 272 -77 272 -24 q 312 -183 272 -141 q 437 -225 351 -225 q 577 -198 527 -225 q 628 -111 628 -170 q 616 -48 628 -71 q 566 -12 604 -24 q 453 0 528 0 l 342 0 z "},"ģ":{"ha":885,"x_min":62,"x_max":873,"o":"m 443 873 q 376 901 408 878 q 325 963 345 924 q 305 1050 305 1002 q 326 1147 305 1103 q 377 1221 347 1192 q 435 1259 408 1251 l 515 1224 l 515 1208 q 488 1165 497 1187 q 479 1105 479 1143 q 496 1039 479 1071 q 537 1002 513 1007 l 537 956 l 443 873 m 873 620 l 745 620 q 759 532 759 581 q 669 342 759 408 q 415 277 579 277 q 348 282 377 277 q 326 254 334 271 q 319 219 319 237 q 339 176 319 186 q 410 165 359 165 l 539 165 q 773 99 710 165 q 837 -69 837 33 q 782 -220 837 -156 q 635 -317 726 -283 q 437 -350 543 -350 q 160 -292 258 -350 q 62 -124 62 -234 q 95 -29 62 -71 q 181 37 127 13 q 133 85 149 54 q 118 152 118 116 q 146 241 118 198 q 241 311 175 283 q 125 399 168 342 q 83 526 83 456 q 174 721 83 659 q 429 784 264 784 q 663 728 578 784 q 716 760 685 747 q 787 773 747 773 l 873 773 l 873 620 m 418 407 q 522 433 485 407 q 559 526 559 458 q 526 621 559 589 q 428 653 493 653 q 325 625 362 653 q 287 528 287 597 q 321 439 287 471 q 418 407 355 407 m 342 0 q 300 1 328 0 q 272 -77 272 -24 q 312 -183 272 -141 q 437 -225 351 -225 q 577 -198 527 -225 q 628 -111 628 -170 q 616 -48 628 -71 q 566 -12 604 -24 q 453 0 528 0 l 342 0 z "},"ġ":{"ha":885,"x_min":62,"x_max":873,"o":"m 873 620 l 745 620 q 759 532 759 581 q 669 342 759 408 q 415 277 579 277 q 348 282 377 277 q 326 254 334 271 q 319 219 319 237 q 339 176 319 186 q 410 165 359 165 l 539 165 q 773 99 710 165 q 837 -69 837 33 q 782 -220 837 -156 q 635 -317 726 -283 q 437 -350 543 -350 q 160 -292 258 -350 q 62 -124 62 -234 q 95 -29 62 -71 q 181 37 127 13 q 133 85 149 54 q 118 152 118 116 q 146 241 118 198 q 241 311 175 283 q 125 399 168 342 q 83 526 83 456 q 174 721 83 659 q 429 784 264 784 q 663 728 578 784 q 716 760 685 747 q 787 773 747 773 l 873 773 l 873 620 m 418 407 q 522 433 485 407 q 559 526 559 458 q 526 621 559 589 q 428 653 493 653 q 325 625 362 653 q 287 528 287 597 q 321 439 287 471 q 418 407 355 407 m 342 0 q 300 1 328 0 q 272 -77 272 -24 q 312 -183 272 -141 q 437 -225 351 -225 q 577 -198 527 -225 q 628 -111 628 -170 q 616 -48 628 -71 q 566 -12 604 -24 q 453 0 528 0 l 342 0 m 298 1002 q 317 1065 298 1036 q 367 1112 336 1095 q 433 1129 398 1129 q 522 1097 488 1129 q 555 1014 555 1065 q 536 950 555 980 q 487 904 517 921 q 420 886 456 886 q 358 901 386 886 q 314 943 330 916 q 298 1002 298 969 z "},"ḡ":{"ha":885,"x_min":62,"x_max":873,"o":"m 873 620 l 745 620 q 759 532 759 581 q 669 342 759 408 q 415 277 579 277 q 348 282 377 277 q 326 254 334 271 q 319 219 319 237 q 339 176 319 186 q 410 165 359 165 l 539 165 q 773 99 710 165 q 837 -69 837 33 q 782 -220 837 -156 q 635 -317 726 -283 q 437 -350 543 -350 q 160 -292 258 -350 q 62 -124 62 -234 q 95 -29 62 -71 q 181 37 127 13 q 133 85 149 54 q 118 152 118 116 q 146 241 118 198 q 241 311 175 283 q 125 399 168 342 q 83 526 83 456 q 174 721 83 659 q 429 784 264 784 q 663 728 578 784 q 716 760 685 747 q 787 773 747 773 l 873 773 l 873 620 m 418 407 q 522 433 485 407 q 559 526 559 458 q 526 621 559 589 q 428 653 493 653 q 325 625 362 653 q 287 528 287 597 q 321 439 287 471 q 418 407 355 407 m 342 0 q 300 1 328 0 q 272 -77 272 -24 q 312 -183 272 -141 q 437 -225 351 -225 q 577 -198 527 -225 q 628 -111 628 -170 q 616 -48 628 -71 q 566 -12 604 -24 q 453 0 528 0 l 342 0 m 630 1103 l 630 963 l 229 963 l 229 1103 l 630 1103 z "},"h":{"ha":916,"x_min":114,"x_max":806,"o":"m 550 786 q 693 759 637 789 q 778 661 750 729 q 806 481 806 593 l 806 0 l 595 0 l 595 439 q 584 538 595 502 q 550 591 574 574 q 486 607 527 607 q 405 593 451 607 q 326 549 359 578 l 326 0 l 114 0 l 114 1127 l 326 1127 l 326 830 l 314 693 q 424 756 357 729 q 550 786 490 784 z "},"ħ":{"ha":916,"x_min":24,"x_max":806,"o":"m 550 786 q 693 759 637 789 q 778 661 750 729 q 806 481 806 593 l 806 0 l 595 0 l 595 439 q 584 538 595 502 q 550 591 574 574 q 486 607 527 607 q 405 593 451 607 q 326 549 359 578 l 326 0 l 114 0 l 114 877 l 24 877 l 24 999 l 114 999 l 114 1127 l 326 1127 l 326 999 l 477 999 l 477 877 l 326 877 l 326 830 l 314 693 q 424 756 357 729 q 550 786 490 784 z "},"ĥ":{"ha":916,"x_min":114,"x_max":806,"o":"m 550 786 q 693 759 637 789 q 778 661 750 729 q 806 481 806 593 l 806 0 l 595 0 l 595 439 q 584 538 595 502 q 550 591 574 574 q 486 607 527 607 q 405 593 451 607 q 326 549 359 578 l 326 0 l 114 0 l 114 1127 l 282 1127 l 460 1329 l 610 1329 l 797 1120 l 685 1058 l 535 1193 l 385 1058 l 326 1090 l 326 830 l 314 693 q 424 756 357 729 q 550 786 490 784 z "},"i":{"ha":448,"x_min":92,"x_max":349,"o":"m 330 773 l 330 0 l 118 0 l 118 773 l 330 773 m 92 1002 q 111 1065 92 1036 q 161 1111 130 1094 q 227 1128 193 1128 q 316 1096 283 1128 q 349 1013 349 1064 q 331 950 349 979 q 281 903 312 920 q 215 886 250 886 q 153 901 180 886 q 109 942 125 916 q 92 1002 92 968 z "},"ı":{"ha":448,"x_min":118,"x_max":330,"o":"m 330 773 l 330 0 l 118 0 l 118 773 l 330 773 z "},"í":{"ha":448,"x_min":118,"x_max":510,"o":"m 134 941 q 255 1072 195 998 q 365 1225 315 1145 l 510 1107 q 438 1009 492 1065 q 324 907 384 954 q 235 848 264 861 l 134 941 m 330 773 l 330 0 l 118 0 l 118 773 l 330 773 z "},"ĭ":{"ha":448,"x_min":-25,"x_max":474,"o":"m 330 773 l 330 0 l 118 0 l 118 773 l 330 773 m 111 1142 q 120 1092 113 1115 q 152 1048 127 1068 q 225 1027 177 1027 q 297 1048 272 1027 q 330 1092 322 1068 q 340 1142 338 1116 l 471 1142 q 444 1010 474 1071 q 356 915 414 950 q 224 880 299 880 q 90 915 146 880 q 4 1010 33 950 q -22 1142 -25 1070 l 111 1142 z "},"ǐ":{"ha":448,"x_min":-47,"x_max":490,"o":"m 330 773 l 330 0 l 118 0 l 118 773 l 330 773 m 223 994 l 381 1161 l 490 1100 l 298 848 l 147 848 l -47 1101 l 59 1161 l 223 994 z "},"î":{"ha":448,"x_min":-44,"x_max":493,"o":"m 150 1152 l 301 1152 l 493 899 l 384 838 l 226 1005 l 62 838 l -44 899 l 150 1152 m 330 773 l 330 0 l 118 0 l 118 773 l 330 773 z "},"ï":{"ha":448,"x_min":-51,"x_max":498,"o":"m -51 1002 q -34 1064 -51 1035 q 12 1110 -17 1093 q 75 1127 41 1127 q 157 1096 129 1127 q 186 1013 186 1064 q 170 950 186 979 q 125 905 153 922 q 62 888 96 888 q -20 920 11 888 q -51 1002 -51 951 m 262 1002 q 279 1064 262 1035 q 325 1110 296 1093 q 387 1127 353 1127 q 470 1096 441 1127 q 498 1013 498 1064 q 482 950 498 979 q 437 905 466 922 q 374 888 409 888 q 293 920 323 888 q 262 1002 262 951 m 330 773 l 330 0 l 118 0 l 118 773 l 330 773 z "},"ì":{"ha":448,"x_min":-71,"x_max":330,"o":"m 330 773 l 330 0 l 118 0 l 118 773 l 330 773 m 205 848 q 115 907 174 863 q 3 1007 57 952 q -71 1107 -50 1062 l 75 1225 q 180 1076 116 1155 q 306 941 245 998 l 205 848 z "},"ĳ":{"ha":884,"x_min":92,"x_max":796,"o":"m 330 773 l 330 0 l 118 0 l 118 773 l 330 773 m 92 1002 q 111 1065 92 1036 q 161 1111 130 1094 q 227 1128 193 1128 q 316 1096 283 1128 q 349 1013 349 1064 q 331 950 349 979 q 281 903 312 920 q 215 886 250 886 q 153 901 180 886 q 109 942 125 916 q 92 1002 92 968 m 377 -191 q 413 -201 387 -196 q 456 -206 439 -206 q 521 -187 498 -206 q 555 -123 545 -168 q 566 1 566 -78 l 566 773 l 777 773 l 777 56 q 705 -249 777 -153 q 496 -344 633 -344 q 432 -338 475 -344 q 377 -328 389 -332 l 377 -191 m 539 1002 q 558 1065 539 1036 q 608 1112 577 1095 q 674 1129 640 1129 q 763 1097 730 1129 q 796 1014 796 1065 q 778 950 796 980 q 728 904 759 921 q 662 886 697 886 q 600 901 627 886 q 555 943 572 916 q 539 1002 539 969 z "},"ī":{"ha":448,"x_min":24,"x_max":425,"o":"m 330 773 l 330 0 l 118 0 l 118 773 l 330 773 m 425 1102 l 425 962 l 24 962 l 24 1102 l 425 1102 z "},"į":{"ha":448,"x_min":3,"x_max":357,"o":"m 223 886 q 161 901 189 886 q 117 943 133 916 q 100 1002 100 969 q 119 1065 100 1036 q 170 1112 138 1095 q 235 1129 201 1129 q 324 1097 291 1129 q 357 1014 357 1065 q 339 950 357 980 q 289 904 320 921 q 223 886 258 886 m 173 -144 q 255 -211 173 -211 q 340 -197 292 -211 l 340 -304 q 269 -338 311 -326 q 184 -350 227 -350 q 100 -334 140 -350 q 35 -287 60 -317 q 7 -214 9 -256 q 46 -90 3 -145 q 153 0 90 -35 l 118 0 l 118 773 l 330 773 l 330 0 l 294 0 q 204 -71 235 -39 q 173 -144 173 -103 z "},"ĩ":{"ha":448,"x_min":-79,"x_max":515,"o":"m 330 773 l 330 0 l 118 0 l 118 773 l 330 773 m -79 998 q -2 1109 -55 1066 q 125 1152 51 1152 q 196 1138 169 1152 q 252 1099 223 1124 q 289 1072 274 1081 q 325 1063 304 1063 q 380 1084 355 1063 q 430 1139 406 1105 l 515 1065 q 440 953 491 995 q 313 911 389 911 q 249 924 274 911 q 193 962 223 937 q 151 991 168 982 q 111 1001 134 1001 q 57 981 84 1001 q 6 932 29 960 l -79 998 z "},"j":{"ha":437,"x_min":-71,"x_max":349,"o":"m -71 -191 q -35 -201 -61 -196 q 9 -206 -8 -206 q 74 -187 50 -206 q 107 -123 97 -168 q 118 1 118 -78 l 118 773 l 330 773 l 330 56 q 257 -249 330 -153 q 48 -344 185 -344 q -16 -338 27 -344 q -71 -328 -58 -332 l -71 -191 m 92 1002 q 111 1065 92 1036 q 161 1112 130 1095 q 227 1129 192 1129 q 315 1097 282 1129 q 349 1014 349 1065 q 330 950 349 980 q 280 904 311 921 q 214 886 250 886 q 152 901 180 886 q 108 943 124 916 q 92 1002 92 969 z "},"ȷ":{"ha":437,"x_min":-71,"x_max":330,"o":"m -71 -191 q -35 -201 -61 -196 q 9 -206 -8 -206 q 74 -187 50 -206 q 107 -123 97 -168 q 118 1 118 -78 l 118 773 l 330 773 l 330 56 q 257 -249 330 -153 q 48 -344 185 -344 q -16 -338 27 -344 q -71 -328 -58 -332 l -71 -191 z "},"ĵ":{"ha":437,"x_min":-71,"x_max":492,"o":"m -71 -191 q -35 -201 -61 -196 q 9 -206 -8 -206 q 74 -187 50 -206 q 107 -123 97 -168 q 118 1 118 -78 l 118 773 l 330 773 l 330 56 q 257 -249 330 -153 q 48 -344 185 -344 q -16 -338 27 -344 q -71 -328 -58 -332 l -71 -191 m 149 1152 l 300 1152 l 492 900 l 383 839 l 225 1006 l 61 839 l -45 899 l 149 1152 z "},"k":{"ha":840,"x_min":114,"x_max":846,"o":"m 406 322 l 323 232 l 326 144 l 326 0 l 114 0 l 114 1126 l 326 1126 l 326 663 l 319 468 l 580 773 l 819 773 l 543 473 l 846 0 l 606 0 l 406 322 z "},"ķ":{"ha":840,"x_min":114,"x_max":846,"o":"m 380 -332 q 401 -240 401 -310 q 387 -190 401 -214 q 359 -159 374 -165 l 359 -125 l 484 -58 q 516 -79 499 -62 q 546 -125 534 -96 q 557 -191 557 -154 q 539 -282 557 -241 q 497 -348 521 -323 q 456 -380 473 -374 l 380 -350 l 380 -332 m 406 322 l 323 232 l 326 144 l 326 0 l 114 0 l 114 1126 l 326 1126 l 326 663 l 319 468 l 580 773 l 819 773 l 543 473 l 846 0 l 606 0 l 406 322 z "},"ĸ":{"ha":842,"x_min":118,"x_max":852,"o":"m 417 296 l 328 193 l 330 109 l 330 0 l 118 0 l 118 773 l 330 773 l 330 528 l 325 423 l 593 773 l 830 773 l 552 452 l 852 0 l 612 0 l 417 296 z "},"l":{"ha":456,"x_min":122,"x_max":334,"o":"m 334 1127 l 334 0 l 122 0 l 122 1127 l 334 1127 z "},"ĺ":{"ha":456,"x_min":122,"x_max":471,"o":"m 123 1131 q 244 1249 172 1176 q 323 1343 316 1321 l 471 1254 q 395 1171 441 1215 q 301 1092 349 1126 q 222 1046 254 1057 l 123 1131 m 334 1036 l 334 0 l 122 0 l 122 1036 l 334 1036 z "},"ľ":{"ha":648,"x_min":122,"x_max":646,"o":"m 334 1127 l 334 0 l 122 0 l 122 1127 l 334 1127 m 469 720 q 480 808 475 751 q 484 920 484 865 q 472 1008 484 966 q 444 1067 460 1050 l 452 1111 l 597 1158 q 646 977 646 1113 q 633 861 646 921 q 602 753 621 801 q 564 685 583 706 l 474 704 l 469 720 z "},"ļ":{"ha":456,"x_min":122,"x_max":341,"o":"m 164 -332 q 184 -240 184 -310 q 171 -190 184 -214 q 142 -159 157 -165 l 142 -125 l 267 -58 q 300 -79 283 -62 q 329 -125 317 -96 q 341 -191 341 -154 q 323 -282 341 -241 q 280 -348 304 -323 q 239 -380 256 -374 l 164 -350 l 164 -332 m 334 1127 l 334 0 l 122 0 l 122 1127 l 334 1127 z "},"ŀ":{"ha":726,"x_min":122,"x_max":715,"o":"m 334 1127 l 334 0 l 122 0 l 122 1127 l 334 1127 m 452 580 q 471 650 452 617 q 522 703 490 683 q 590 722 553 722 q 657 705 629 722 q 701 657 686 688 q 715 589 715 627 q 697 519 715 551 q 647 467 679 486 q 578 448 616 448 q 513 465 543 448 q 468 512 484 482 q 452 580 452 543 z "},"ǉ":{"ha":892,"x_min":122,"x_max":804,"o":"m 334 1127 l 334 0 l 122 0 l 122 1127 l 334 1127 m 385 -191 q 421 -201 395 -196 q 465 -206 448 -206 q 529 -187 506 -206 q 563 -123 553 -168 q 574 1 574 -78 l 574 773 l 785 773 l 785 56 q 713 -249 785 -153 q 504 -344 641 -344 q 440 -338 483 -344 q 385 -328 397 -332 l 385 -191 m 547 1002 q 566 1065 547 1036 q 616 1112 585 1095 q 682 1129 648 1129 q 771 1097 738 1129 q 804 1014 804 1065 q 786 950 804 980 q 736 904 767 921 q 670 886 705 886 q 608 901 635 886 q 564 943 580 916 q 547 1002 547 969 z "},"ł":{"ha":456,"x_min":12,"x_max":456,"o":"m 456 645 l 334 600 l 334 0 l 122 0 l 122 522 l 12 481 l 12 614 l 122 656 l 122 1127 l 334 1127 l 334 738 l 456 785 l 456 645 z "},"m":{"ha":1388,"x_min":118,"x_max":1278,"o":"m 1031 787 q 1167 758 1112 787 q 1250 662 1221 728 q 1278 486 1278 596 l 1278 0 l 1067 0 l 1067 440 q 1058 540 1067 505 q 1026 592 1049 576 q 960 608 1004 608 q 877 591 921 608 q 803 551 833 575 q 806 479 806 521 l 806 0 l 594 0 l 594 439 q 585 539 594 503 q 553 591 576 575 q 488 608 530 608 q 409 593 455 608 q 330 549 363 578 l 330 0 l 118 0 l 118 773 l 310 773 l 314 690 q 431 755 361 726 q 566 787 500 785 q 687 767 637 789 q 765 693 736 744 q 883 758 810 728 q 1031 787 956 787 z "},"ṁ":{"ha":1388,"x_min":118,"x_max":1278,"o":"m 1031 787 q 1167 758 1112 787 q 1250 662 1221 728 q 1278 486 1278 596 l 1278 0 l 1067 0 l 1067 440 q 1058 540 1067 505 q 1026 592 1049 576 q 960 608 1004 608 q 877 591 921 608 q 803 551 833 575 q 806 479 806 521 l 806 0 l 594 0 l 594 439 q 585 539 594 503 q 553 591 576 575 q 488 608 530 608 q 409 593 455 608 q 330 549 363 578 l 330 0 l 118 0 l 118 773 l 310 773 l 314 690 q 431 755 361 726 q 566 787 500 785 q 687 767 637 789 q 765 693 736 744 q 883 758 810 728 q 1031 787 956 787 m 564 1002 q 583 1065 564 1036 q 633 1111 602 1094 q 699 1128 664 1128 q 787 1096 754 1128 q 821 1013 821 1064 q 802 950 821 979 q 752 903 783 920 q 686 886 722 886 q 624 901 652 886 q 580 942 596 916 q 564 1002 564 968 z "},"n":{"ha":917,"x_min":118,"x_max":807,"o":"m 310 773 l 314 690 q 431 755 361 726 q 566 786 500 784 q 702 760 649 789 q 781 664 755 731 q 807 485 807 597 l 807 0 l 595 0 l 595 439 q 585 542 595 505 q 551 593 575 578 q 481 608 526 609 q 405 592 448 607 q 330 549 362 577 l 330 0 l 118 0 l 118 773 l 310 773 z "},"ń":{"ha":917,"x_min":118,"x_max":807,"o":"m 426 941 q 547 1072 487 998 q 657 1225 608 1145 l 802 1107 q 730 1009 784 1065 q 616 907 676 954 q 527 848 556 861 l 426 941 m 310 773 l 314 690 q 431 755 361 726 q 566 786 500 784 q 702 760 649 789 q 781 664 755 731 q 807 485 807 597 l 807 0 l 595 0 l 595 439 q 585 542 595 505 q 551 593 575 578 q 481 608 526 609 q 405 592 448 607 q 330 549 362 577 l 330 0 l 118 0 l 118 773 l 310 773 z "},"ŉ":{"ha":917,"x_min":118,"x_max":807,"o":"m 397 -332 q 418 -240 418 -310 q 404 -190 418 -214 q 376 -159 391 -165 l 376 -125 l 500 -58 q 533 -79 516 -62 q 563 -125 551 -96 q 574 -191 574 -154 q 556 -282 574 -241 q 514 -348 538 -323 q 473 -380 490 -374 l 397 -350 l 397 -332 m 310 773 l 314 690 q 431 755 361 726 q 566 786 500 784 q 702 760 649 789 q 781 664 755 731 q 807 485 807 597 l 807 0 l 595 0 l 595 439 q 585 542 595 505 q 551 593 575 578 q 481 608 526 609 q 405 592 448 607 q 330 549 362 577 l 330 0 l 118 0 l 118 773 l 310 773 z "},"ň":{"ha":917,"x_min":118,"x_max":807,"o":"m 515 994 l 673 1161 l 783 1100 l 591 848 l 439 848 l 245 1101 l 351 1161 l 515 994 m 310 773 l 314 690 q 431 755 361 726 q 566 786 500 784 q 702 760 649 789 q 781 664 755 731 q 807 485 807 597 l 807 0 l 595 0 l 595 439 q 585 542 595 505 q 551 593 575 578 q 481 608 526 609 q 405 592 448 607 q 330 549 362 577 l 330 0 l 118 0 l 118 773 l 310 773 z "},"ņ":{"ha":917,"x_min":118,"x_max":807,"o":"m 397 -332 q 418 -240 418 -310 q 404 -190 418 -214 q 376 -159 391 -165 l 376 -125 l 500 -58 q 533 -79 516 -62 q 563 -125 551 -96 q 574 -191 574 -154 q 556 -282 574 -241 q 514 -348 538 -323 q 473 -380 490 -374 l 397 -350 l 397 -332 m 310 773 l 314 690 q 431 755 361 726 q 566 786 500 784 q 702 760 649 789 q 781 664 755 731 q 807 485 807 597 l 807 0 l 595 0 l 595 439 q 585 542 595 505 q 551 593 575 578 q 481 608 526 609 q 405 592 448 607 q 330 549 362 577 l 330 0 l 118 0 l 118 773 l 310 773 z "},"ŋ":{"ha":917,"x_min":118,"x_max":807,"o":"m 310 772 l 314 690 q 431 755 361 726 q 566 786 500 784 q 702 760 649 789 q 781 665 755 732 q 807 486 807 598 l 807 -21 q 776 -206 807 -134 q 692 -311 745 -278 q 570 -344 639 -344 q 494 -341 534 -344 q 435 -334 454 -338 l 435 -201 q 469 -207 444 -205 q 508 -209 493 -209 q 559 -196 541 -209 q 587 -145 578 -183 q 595 -31 595 -107 l 595 446 q 586 548 595 511 q 551 600 576 584 q 483 614 527 615 q 406 597 450 613 q 330 552 362 581 l 330 0 l 118 0 l 118 772 l 310 772 z "},"ǌ":{"ha":1354,"x_min":118,"x_max":1265,"o":"m 310 773 l 314 690 q 431 755 361 726 q 566 786 500 784 q 702 760 649 789 q 781 664 755 731 q 807 485 807 597 l 807 0 l 595 0 l 595 439 q 585 542 595 505 q 551 593 575 578 q 481 608 526 609 q 405 592 448 607 q 330 549 362 577 l 330 0 l 118 0 l 118 773 l 310 773 m 846 -191 q 882 -201 856 -196 q 926 -206 909 -206 q 990 -187 967 -206 q 1024 -123 1014 -168 q 1035 1 1035 -78 l 1035 773 l 1246 773 l 1246 56 q 1174 -249 1246 -153 q 965 -344 1102 -344 q 901 -338 944 -344 q 846 -328 859 -332 l 846 -191 m 1008 1002 q 1027 1065 1008 1036 q 1078 1112 1046 1095 q 1143 1129 1109 1129 q 1232 1097 1199 1129 q 1265 1014 1265 1065 q 1247 950 1265 980 q 1197 904 1228 921 q 1131 886 1166 886 q 1069 901 1097 886 q 1025 943 1041 916 q 1008 1002 1008 969 z "},"ñ":{"ha":917,"x_min":118,"x_max":808,"o":"m 310 773 l 314 690 q 431 755 361 726 q 566 786 500 784 q 702 760 649 789 q 781 664 755 731 q 807 485 807 597 l 807 0 l 595 0 l 595 439 q 585 542 595 505 q 551 593 575 578 q 481 608 526 609 q 405 592 448 607 q 330 549 362 577 l 330 0 l 118 0 l 118 773 l 310 773 m 214 998 q 290 1109 237 1066 q 418 1152 343 1152 q 488 1138 461 1152 q 545 1099 515 1124 q 582 1072 566 1081 q 617 1063 597 1063 q 673 1084 648 1063 q 722 1139 698 1105 l 808 1065 q 732 953 783 995 q 606 911 681 911 q 541 924 566 911 q 486 962 515 937 q 444 991 460 982 q 403 1001 427 1001 q 349 981 376 1001 q 298 932 321 960 l 214 998 z "},"o":{"ha":883,"x_min":65,"x_max":818,"o":"m 65 394 q 114 606 65 518 q 250 739 163 694 q 449 784 336 784 q 660 730 577 784 q 780 586 743 676 q 818 381 818 495 q 769 168 818 256 q 633 35 720 80 q 435 -11 547 -11 q 223 43 306 -11 q 103 189 140 98 q 65 394 65 280 m 599 380 q 560 561 599 489 q 443 633 522 633 q 284 397 284 633 q 301 268 284 326 q 353 174 317 209 q 442 138 389 138 q 599 380 599 138 z "},"ó":{"ha":883,"x_min":65,"x_max":818,"o":"m 357 941 q 479 1072 418 998 q 589 1225 539 1145 l 734 1107 q 662 1009 715 1065 q 548 907 608 954 q 458 848 488 861 l 357 941 m 65 394 q 114 606 65 518 q 250 739 163 694 q 449 784 336 784 q 660 730 577 784 q 780 586 743 676 q 818 381 818 495 q 769 168 818 256 q 633 35 720 80 q 435 -11 547 -11 q 223 43 306 -11 q 103 189 140 98 q 65 394 65 280 m 599 380 q 560 561 599 489 q 443 633 522 633 q 284 397 284 633 q 301 268 284 326 q 353 174 317 209 q 442 138 389 138 q 599 380 599 138 z "},"ŏ":{"ha":883,"x_min":65,"x_max":818,"o":"m 65 394 q 114 606 65 518 q 250 739 163 694 q 449 784 336 784 q 660 730 577 784 q 780 586 743 676 q 818 381 818 495 q 769 168 818 256 q 633 35 720 80 q 435 -11 547 -11 q 223 43 306 -11 q 103 189 140 98 q 65 394 65 280 m 599 380 q 560 561 599 489 q 443 633 522 633 q 284 397 284 633 q 301 268 284 326 q 353 174 317 209 q 442 138 389 138 q 599 380 599 138 m 334 1142 q 344 1092 337 1115 q 376 1048 351 1068 q 449 1027 401 1027 q 521 1048 496 1027 q 554 1092 546 1068 q 564 1142 562 1116 l 695 1142 q 668 1010 698 1071 q 580 915 637 950 q 448 880 523 880 q 313 915 370 880 q 228 1010 256 950 q 201 1142 199 1070 l 334 1142 z "},"ǒ":{"ha":883,"x_min":65,"x_max":818,"o":"m 65 394 q 114 606 65 518 q 250 739 163 694 q 449 784 336 784 q 660 730 577 784 q 780 586 743 676 q 818 381 818 495 q 769 168 818 256 q 633 35 720 80 q 435 -11 547 -11 q 223 43 306 -11 q 103 189 140 98 q 65 394 65 280 m 599 380 q 560 561 599 489 q 443 633 522 633 q 284 397 284 633 q 301 268 284 326 q 353 174 317 209 q 442 138 389 138 q 599 380 599 138 m 447 994 l 605 1161 l 714 1100 l 522 848 l 371 848 l 177 1101 l 283 1161 l 447 994 z "},"ô":{"ha":883,"x_min":65,"x_max":818,"o":"m 374 1152 l 525 1152 l 717 899 l 608 838 l 450 1005 l 286 838 l 180 899 l 374 1152 m 65 394 q 114 606 65 518 q 250 739 163 694 q 449 784 336 784 q 660 730 577 784 q 780 586 743 676 q 818 381 818 495 q 769 168 818 256 q 633 35 720 80 q 435 -11 547 -11 q 223 43 306 -11 q 103 189 140 98 q 65 394 65 280 m 599 380 q 560 561 599 489 q 443 633 522 633 q 284 397 284 633 q 301 268 284 326 q 353 174 317 209 q 442 138 389 138 q 599 380 599 138 z "},"ö":{"ha":883,"x_min":65,"x_max":818,"o":"m 165 1002 q 182 1064 165 1035 q 228 1110 199 1093 q 290 1127 256 1127 q 373 1096 345 1127 q 401 1013 401 1064 q 385 950 401 979 q 340 905 369 922 q 277 888 312 888 q 196 920 227 888 q 165 1002 165 951 m 494 1002 q 511 1064 494 1035 q 556 1110 528 1093 q 619 1127 585 1127 q 702 1096 673 1127 q 730 1013 730 1064 q 714 950 730 979 q 669 905 698 922 q 606 888 641 888 q 525 920 555 888 q 494 1002 494 951 m 65 394 q 114 606 65 518 q 250 739 163 694 q 449 784 336 784 q 660 730 577 784 q 780 586 743 676 q 818 381 818 495 q 769 168 818 256 q 633 35 720 80 q 435 -11 547 -11 q 223 43 306 -11 q 103 189 140 98 q 65 394 65 280 m 599 380 q 560 561 599 489 q 443 633 522 633 q 284 397 284 633 q 301 268 284 326 q 353 174 317 209 q 442 138 389 138 q 599 380 599 138 z "},"ò":{"ha":883,"x_min":65,"x_max":818,"o":"m 65 394 q 114 606 65 518 q 250 739 163 694 q 449 784 336 784 q 660 730 577 784 q 780 586 743 676 q 818 381 818 495 q 769 168 818 256 q 633 35 720 80 q 435 -11 547 -11 q 223 43 306 -11 q 103 189 140 98 q 65 394 65 280 m 599 380 q 560 561 599 489 q 443 633 522 633 q 284 397 284 633 q 301 268 284 326 q 353 174 317 209 q 442 138 389 138 q 599 380 599 138 m 429 848 q 339 907 397 863 q 227 1007 281 952 q 153 1107 174 1062 l 298 1225 q 404 1076 340 1155 q 530 941 469 998 l 429 848 z "},"ő":{"ha":883,"x_min":65,"x_max":871,"o":"m 385 1244 l 517 1151 q 452 1064 495 1116 q 363 967 408 1012 q 288 905 317 922 l 201 968 l 385 1244 m 738 1241 l 871 1149 q 803 1060 848 1113 q 713 963 759 1008 q 636 905 667 919 l 553 968 l 738 1241 m 65 394 q 114 606 65 518 q 250 739 163 694 q 449 784 336 784 q 660 730 577 784 q 780 586 743 676 q 818 381 818 495 q 769 168 818 256 q 633 35 720 80 q 435 -11 547 -11 q 223 43 306 -11 q 103 189 140 98 q 65 394 65 280 m 599 380 q 560 561 599 489 q 443 633 522 633 q 284 397 284 633 q 301 268 284 326 q 353 174 317 209 q 442 138 389 138 q 599 380 599 138 z "},"ō":{"ha":883,"x_min":65,"x_max":818,"o":"m 648 1102 l 648 962 l 248 962 l 248 1102 l 648 1102 m 65 394 q 114 606 65 518 q 250 739 163 694 q 449 784 336 784 q 660 730 577 784 q 780 586 743 676 q 818 381 818 495 q 769 168 818 256 q 633 35 720 80 q 435 -11 547 -11 q 223 43 306 -11 q 103 189 140 98 q 65 394 65 280 m 599 380 q 560 561 599 489 q 443 633 522 633 q 284 397 284 633 q 301 268 284 326 q 353 174 317 209 q 442 138 389 138 q 599 380 599 138 z "},"ø":{"ha":883,"x_min":65,"x_max":820,"o":"m 616 753 q 771 606 722 708 q 818 370 820 505 q 767 163 817 249 q 631 33 718 77 q 435 -11 545 -11 q 348 -3 391 -11 l 296 -149 l 212 -127 l 264 22 q 114 165 163 66 q 65 394 65 264 q 114 606 65 518 q 250 739 163 694 q 449 784 336 784 q 532 777 496 784 l 585 927 l 670 905 l 616 753 m 284 397 q 295 289 284 339 q 329 203 307 238 l 479 629 q 443 633 459 633 q 284 397 284 633 m 442 138 q 599 380 599 138 q 587 489 599 439 q 553 574 576 539 l 400 144 q 442 138 419 138 z "},"ǿ":{"ha":883,"x_min":65,"x_max":820,"o":"m 616 753 q 771 606 722 708 q 818 370 820 505 q 767 163 817 249 q 631 33 718 77 q 435 -11 545 -11 q 348 -3 391 -11 l 296 -149 l 212 -127 l 264 22 q 114 165 163 66 q 65 394 65 264 q 114 606 65 518 q 250 739 163 694 q 449 784 336 784 q 532 777 496 784 l 585 927 l 670 905 l 616 753 m 284 397 q 295 289 284 339 q 329 203 307 238 l 479 629 q 443 633 459 633 q 284 397 284 633 m 442 138 q 599 380 599 138 q 587 489 599 439 q 553 574 576 539 l 400 144 q 442 138 419 138 m 253 942 q 374 1072 314 999 q 484 1226 435 1145 l 629 1108 q 557 1010 611 1065 q 443 908 503 954 q 354 849 383 862 l 253 942 z "},"õ":{"ha":883,"x_min":65,"x_max":818,"o":"m 65 394 q 114 606 65 518 q 250 739 163 694 q 449 784 336 784 q 660 730 577 784 q 780 586 743 676 q 818 381 818 495 q 769 168 818 256 q 633 35 720 80 q 435 -11 547 -11 q 223 43 306 -11 q 103 189 140 98 q 65 394 65 280 m 599 380 q 560 561 599 489 q 443 633 522 633 q 284 397 284 633 q 301 268 284 326 q 353 174 317 209 q 442 138 389 138 q 599 380 599 138 m 145 998 q 222 1109 169 1066 q 349 1152 275 1152 q 420 1138 393 1152 q 476 1099 447 1124 q 513 1072 498 1081 q 549 1063 528 1063 q 604 1084 579 1063 q 654 1139 629 1105 l 739 1065 q 664 953 715 995 q 537 911 612 911 q 472 924 498 911 q 417 962 447 937 q 375 991 392 982 q 334 1001 358 1001 q 280 981 308 1001 q 230 932 253 960 l 145 998 z "},"œ":{"ha":1331,"x_min":65,"x_max":1265,"o":"m 1265 481 q 1257 336 1265 383 l 800 336 q 860 193 806 240 q 1006 146 914 146 q 1113 158 1050 146 q 1205 186 1176 170 l 1240 66 q 1120 12 1200 34 q 953 -11 1040 -11 q 694 85 787 -11 q 579 14 646 38 q 431 -11 513 -11 q 221 43 302 -11 q 102 187 139 97 q 65 392 65 277 q 113 605 65 517 q 247 739 161 694 q 445 784 332 784 q 703 688 613 784 q 815 759 749 734 q 962 784 880 784 q 1114 753 1046 784 q 1224 655 1183 723 q 1265 481 1265 587 m 438 138 q 555 200 518 138 q 592 380 592 261 q 555 562 592 490 q 439 633 517 633 q 321 573 358 633 q 284 397 284 513 q 321 212 284 285 q 438 138 359 138 m 1068 453 q 1069 483 1069 463 q 1041 595 1069 557 q 951 633 1013 633 q 851 592 888 633 q 804 453 814 551 l 1068 453 z "},"p":{"ha":909,"x_min":114,"x_max":844,"o":"m 536 784 q 691 743 621 784 q 803 619 761 702 q 844 415 844 536 q 795 192 844 288 q 657 42 746 95 q 451 -11 568 -11 q 323 11 382 -11 l 326 -94 l 326 -343 l 114 -343 l 114 773 l 311 773 l 311 694 q 401 758 349 732 q 536 784 454 784 m 623 404 q 584 576 623 526 q 471 626 545 626 q 390 612 429 626 q 326 578 351 599 l 326 169 q 375 144 345 151 q 445 138 406 138 q 536 169 496 138 q 600 260 576 200 q 623 404 623 321 z "},"ṗ":{"ha":909,"x_min":114,"x_max":844,"o":"m 536 784 q 691 743 621 784 q 803 619 761 702 q 844 415 844 536 q 795 192 844 288 q 657 42 746 95 q 451 -11 568 -11 q 323 11 382 -11 l 326 -94 l 326 -343 l 114 -343 l 114 773 l 311 773 l 311 694 q 401 758 349 732 q 536 784 454 784 m 623 404 q 584 576 623 526 q 471 626 545 626 q 390 612 429 626 q 326 578 351 599 l 326 169 q 375 144 345 151 q 445 138 406 138 q 536 169 496 138 q 600 260 576 200 q 623 404 623 321 m 401 1002 q 420 1065 401 1036 q 471 1111 439 1094 q 536 1128 502 1128 q 625 1096 592 1128 q 659 1013 659 1064 q 640 950 659 979 q 590 903 621 920 q 524 886 559 886 q 462 901 490 886 q 418 942 434 916 q 401 1002 401 968 z "},"þ":{"ha":909,"x_min":114,"x_max":844,"o":"m 536 784 q 691 743 621 784 q 803 619 761 702 q 844 415 844 536 q 793 190 844 288 q 651 38 743 92 q 440 -16 559 -16 q 327 -8 385 -16 l 330 -115 l 330 -344 l 114 -344 l 114 1126 l 326 1126 l 326 830 l 320 703 q 408 761 357 737 q 536 784 460 784 m 623 404 q 584 576 623 526 q 471 626 545 626 q 390 612 429 626 q 326 578 351 599 l 326 157 q 445 131 350 131 q 536 163 496 131 q 600 257 576 195 q 623 404 623 319 z "},"q":{"ha":909,"x_min":64,"x_max":795,"o":"m 795 773 l 795 -343 l 583 -343 l 583 -94 l 587 69 q 372 -11 503 -11 q 218 31 288 -11 q 106 157 148 73 q 64 361 64 241 q 114 584 64 488 q 252 732 163 680 q 458 784 341 784 q 559 774 508 784 q 642 750 610 764 l 795 773 m 286 374 q 325 204 286 254 q 437 154 364 154 q 518 166 479 154 q 583 195 557 178 l 583 611 q 535 629 564 625 q 464 633 506 633 q 372 604 412 633 q 309 517 332 575 q 286 374 286 458 z "},"r":{"ha":628,"x_min":107,"x_max":584,"o":"m 524 786 q 584 777 568 786 l 584 572 q 548 586 568 581 q 491 591 528 591 q 319 522 393 591 l 319 0 l 107 0 l 107 773 l 295 773 l 304 667 q 355 724 321 697 q 433 769 389 751 q 524 786 477 786 z "},"ŕ":{"ha":628,"x_min":107,"x_max":653,"o":"m 277 942 q 398 1072 338 999 q 508 1226 458 1145 l 653 1108 q 581 1010 635 1065 q 467 908 527 954 q 378 849 407 862 l 277 942 m 524 786 q 584 777 568 786 l 584 572 q 548 586 568 581 q 491 591 528 591 q 319 522 393 591 l 319 0 l 107 0 l 107 773 l 295 773 l 304 667 q 355 724 321 697 q 433 769 389 751 q 524 786 477 786 z "},"ř":{"ha":628,"x_min":96,"x_max":633,"o":"m 366 995 l 524 1162 l 633 1101 l 441 848 l 290 848 l 96 1101 l 202 1162 l 366 995 m 524 786 q 584 777 568 786 l 584 572 q 548 586 568 581 q 491 591 528 591 q 319 522 393 591 l 319 0 l 107 0 l 107 773 l 295 773 l 304 667 q 355 724 321 697 q 433 769 389 751 q 524 786 477 786 z "},"ŗ":{"ha":628,"x_min":107,"x_max":584,"o":"m 155 -332 q 175 -240 175 -310 q 161 -190 175 -214 q 133 -159 148 -165 l 133 -125 l 258 -58 q 291 -79 273 -62 q 320 -125 308 -96 q 332 -191 332 -154 q 313 -282 332 -241 q 271 -348 295 -323 q 230 -380 247 -374 l 155 -350 l 155 -332 m 524 786 q 584 777 568 786 l 584 572 q 548 586 568 581 q 491 591 528 591 q 319 522 393 591 l 319 0 l 107 0 l 107 773 l 295 773 l 304 667 q 355 724 321 697 q 433 769 389 751 q 524 786 477 786 z "},"s":{"ha":711,"x_min":78,"x_max":651,"o":"m 100 206 q 148 181 113 196 q 230 156 183 167 q 321 145 276 145 q 414 159 385 144 q 443 210 443 174 q 402 269 443 242 q 275 323 362 295 q 126 416 172 357 q 81 559 81 474 q 120 682 81 631 q 231 758 160 732 q 393 784 301 784 q 525 770 467 784 q 610 740 583 755 l 587 577 q 513 614 564 598 q 414 629 462 629 q 314 615 345 629 q 283 567 283 600 q 297 527 283 543 q 343 495 311 510 q 434 459 374 479 q 561 400 513 432 q 629 326 608 368 q 651 227 651 284 q 571 49 651 109 q 348 -11 490 -11 q 240 -2 294 -11 q 143 21 186 7 q 78 49 100 35 l 100 206 z "},"ś":{"ha":711,"x_min":78,"x_max":651,"o":"m 275 941 q 396 1072 336 998 q 506 1225 456 1145 l 651 1107 q 579 1009 633 1065 q 465 907 525 954 q 376 848 405 861 l 275 941 m 100 206 q 148 181 113 196 q 230 156 183 167 q 321 145 276 145 q 414 159 385 144 q 443 210 443 174 q 402 269 443 242 q 275 323 362 295 q 126 416 172 357 q 81 559 81 474 q 120 682 81 631 q 231 758 160 732 q 393 784 301 784 q 525 770 467 784 q 610 740 583 755 l 587 577 q 513 614 564 598 q 414 629 462 629 q 314 615 345 629 q 283 567 283 600 q 297 527 283 543 q 343 495 311 510 q 434 459 374 479 q 561 400 513 432 q 629 326 608 368 q 651 227 651 284 q 571 49 651 109 q 348 -11 490 -11 q 240 -2 294 -11 q 143 21 186 7 q 78 49 100 35 l 100 206 z "},"š":{"ha":711,"x_min":78,"x_max":651,"o":"m 364 994 l 522 1161 l 631 1100 l 439 848 l 288 848 l 94 1101 l 200 1161 l 364 994 m 100 206 q 148 181 113 196 q 230 156 183 167 q 321 145 276 145 q 414 159 385 144 q 443 210 443 174 q 402 269 443 242 q 275 323 362 295 q 126 416 172 357 q 81 559 81 474 q 120 682 81 631 q 231 758 160 732 q 393 784 301 784 q 525 770 467 784 q 610 740 583 755 l 587 577 q 513 614 564 598 q 414 629 462 629 q 314 615 345 629 q 283 567 283 600 q 297 527 283 543 q 343 495 311 510 q 434 459 374 479 q 561 400 513 432 q 629 326 608 368 q 651 227 651 284 q 571 49 651 109 q 348 -11 490 -11 q 240 -2 294 -11 q 143 21 186 7 q 78 49 100 35 l 100 206 z "},"ş":{"ha":711,"x_min":78,"x_max":651,"o":"m 651 227 q 593 69 651 127 q 429 -5 535 11 q 449 -70 443 -31 q 453 -150 454 -109 q 402 -274 450 -233 q 280 -315 353 -315 q 209 -309 248 -315 q 158 -296 170 -303 l 172 -184 q 224 -193 186 -193 q 281 -168 258 -193 q 306 -92 304 -142 q 307 -69 307 -83 q 298 -9 307 -35 q 168 13 230 -3 q 78 49 106 30 l 100 206 q 148 181 113 196 q 230 156 183 167 q 321 145 276 145 q 414 159 385 144 q 443 210 443 174 q 402 269 443 242 q 275 323 362 295 q 126 416 172 357 q 81 559 81 474 q 120 682 81 631 q 231 758 160 732 q 393 784 301 784 q 525 770 467 784 q 610 740 583 755 l 587 577 q 513 614 564 598 q 414 629 462 629 q 314 615 345 629 q 283 567 283 600 q 297 527 283 543 q 343 495 311 510 q 434 459 374 479 q 561 400 513 432 q 629 326 608 368 q 651 227 651 284 z "},"ŝ":{"ha":711,"x_min":78,"x_max":651,"o":"m 291 1152 l 442 1152 l 634 899 l 525 838 l 367 1005 l 203 838 l 97 899 l 291 1152 m 100 206 q 148 181 113 196 q 230 156 183 167 q 321 145 276 145 q 414 159 385 144 q 443 210 443 174 q 402 269 443 242 q 275 323 362 295 q 126 416 172 357 q 81 559 81 474 q 120 682 81 631 q 231 758 160 732 q 393 784 301 784 q 525 770 467 784 q 610 740 583 755 l 587 577 q 513 614 564 598 q 414 629 462 629 q 314 615 345 629 q 283 567 283 600 q 297 527 283 543 q 343 495 311 510 q 434 459 374 479 q 561 400 513 432 q 629 326 608 368 q 651 227 651 284 q 571 49 651 109 q 348 -11 490 -11 q 240 -2 294 -11 q 143 21 186 7 q 78 49 100 35 l 100 206 z "},"ș":{"ha":711,"x_min":78,"x_max":651,"o":"m 290 -332 q 310 -240 310 -310 q 296 -190 310 -214 q 268 -159 283 -165 l 268 -125 l 393 -58 q 426 -79 408 -62 q 455 -125 443 -96 q 467 -191 467 -154 q 448 -282 467 -241 q 406 -348 430 -323 q 365 -380 382 -374 l 290 -350 l 290 -332 m 100 206 q 148 181 113 196 q 230 156 183 167 q 321 145 276 145 q 414 159 385 144 q 443 210 443 174 q 402 269 443 242 q 275 323 362 295 q 126 416 172 357 q 81 559 81 474 q 120 682 81 631 q 231 758 160 732 q 393 784 301 784 q 525 770 467 784 q 610 740 583 755 l 587 577 q 513 614 564 598 q 414 629 462 629 q 314 615 345 629 q 283 567 283 600 q 297 527 283 543 q 343 495 311 510 q 434 459 374 479 q 561 400 513 432 q 629 326 608 368 q 651 227 651 284 q 571 49 651 109 q 348 -11 490 -11 q 240 -2 294 -11 q 143 21 186 7 q 78 49 100 35 l 100 206 z "},"ṡ":{"ha":711,"x_min":78,"x_max":651,"o":"m 100 206 q 148 181 113 196 q 230 156 183 167 q 321 145 276 145 q 414 159 385 144 q 443 210 443 174 q 402 269 443 242 q 275 323 362 295 q 126 416 172 357 q 81 559 81 474 q 120 682 81 631 q 231 758 160 732 q 393 784 301 784 q 525 770 467 784 q 610 740 583 755 l 587 577 q 513 614 564 598 q 414 629 462 629 q 314 615 345 629 q 283 567 283 600 q 297 527 283 543 q 343 495 311 510 q 434 459 374 479 q 561 400 513 432 q 629 326 608 368 q 651 227 651 284 q 571 49 651 109 q 348 -11 490 -11 q 240 -2 294 -11 q 143 21 186 7 q 78 49 100 35 l 100 206 m 233 1002 q 252 1065 233 1036 q 302 1111 271 1094 q 368 1128 334 1128 q 457 1096 424 1128 q 490 1013 490 1064 q 472 950 490 979 q 422 903 453 920 q 356 886 391 886 q 294 901 321 886 q 250 942 266 916 q 233 1002 233 968 z "},"ß":{"ha":946,"x_min":37,"x_max":910,"o":"m 677 603 q 687 565 677 583 q 714 531 698 547 q 760 491 730 516 q 837 421 806 453 q 888 342 867 390 q 910 230 910 294 q 828 45 910 101 q 621 -11 746 -11 q 523 -4 567 -11 q 461 12 479 2 l 461 163 q 511 143 478 152 q 584 134 545 134 q 661 154 627 134 q 695 220 695 174 q 683 275 695 250 q 654 319 671 300 q 605 368 636 339 q 547 426 569 401 q 510 487 525 451 q 494 568 494 522 q 504 623 494 598 q 527 666 513 648 q 563 708 541 684 q 609 767 594 742 q 625 829 625 793 q 596 904 625 878 q 515 930 568 930 q 389 865 433 930 q 346 645 346 800 l 346 0 l 131 0 l 131 627 l 37 627 l 37 759 l 142 779 q 282 999 174 927 q 545 1071 390 1071 q 704 1045 636 1071 q 808 971 771 1019 q 844 860 844 923 q 829 786 844 818 q 794 734 814 755 q 741 688 773 713 q 692 644 708 663 q 677 603 677 626 z "},"t":{"ha":619,"x_min":50,"x_max":589,"o":"m 143 627 l 50 627 l 50 741 q 115 761 95 754 q 151 781 135 768 q 175 814 166 793 q 226 949 189 848 l 355 949 l 355 773 l 564 773 l 564 627 l 355 627 l 355 316 q 363 203 355 239 q 389 158 371 168 q 443 149 406 149 q 508 158 471 149 q 563 181 545 168 l 589 62 q 493 12 557 34 q 357 -11 430 -11 q 232 13 279 -11 q 164 90 186 37 q 143 230 143 142 l 143 627 z "},"ŧ":{"ha":619,"x_min":50,"x_max":589,"o":"m 589 62 q 493 12 557 34 q 357 -11 430 -11 q 232 13 279 -11 q 164 90 186 37 q 143 230 143 142 l 143 355 l 55 355 l 55 500 l 143 500 l 143 627 l 50 627 l 50 741 q 115 761 95 754 q 151 781 135 768 q 175 814 166 793 q 226 949 189 848 l 355 949 l 355 773 l 564 773 l 564 627 l 355 627 l 355 500 l 569 500 l 569 355 l 355 355 l 355 316 q 363 203 355 239 q 389 158 371 168 q 443 149 406 149 q 508 158 471 149 q 563 181 545 168 l 589 62 z "},"ť":{"ha":718,"x_min":50,"x_max":714,"o":"m 143 627 l 50 627 l 50 741 q 115 761 95 754 q 151 781 135 768 q 175 814 166 793 q 226 949 189 848 l 355 949 l 355 773 l 564 773 l 564 627 l 355 627 l 355 316 q 363 203 355 239 q 389 158 371 168 q 443 149 406 149 q 508 158 471 149 q 563 181 545 168 l 589 62 q 493 12 557 34 q 357 -11 430 -11 q 232 13 279 -11 q 164 90 186 37 q 143 230 143 142 l 143 627 m 537 863 q 548 952 544 895 q 552 1064 553 1009 q 540 1152 552 1109 q 512 1211 528 1194 l 520 1255 l 666 1302 q 714 1120 714 1257 q 702 1005 714 1065 q 670 897 689 945 q 633 829 651 850 l 543 848 l 537 863 z "},"ţ":{"ha":619,"x_min":50,"x_max":589,"o":"m 589 62 q 505 15 560 37 q 384 -10 449 -6 q 401 -74 396 -36 q 406 -150 407 -111 q 354 -274 403 -233 q 233 -315 306 -315 q 162 -309 201 -315 q 111 -296 123 -303 l 124 -184 q 176 -193 139 -193 q 234 -168 211 -193 q 258 -92 256 -142 q 259 -68 259 -83 q 244 7 259 -26 q 167 84 191 30 q 143 230 143 138 l 143 627 l 50 627 l 50 741 q 115 761 95 754 q 151 781 135 768 q 175 814 166 793 q 226 949 189 848 l 355 949 l 355 773 l 564 773 l 564 627 l 355 627 l 355 316 q 363 203 355 239 q 389 158 371 168 q 443 149 406 149 q 508 158 471 149 q 563 181 545 168 l 589 62 z "},"ț":{"ha":619,"x_min":50,"x_max":589,"o":"m 242 -332 q 262 -240 262 -310 q 249 -190 262 -214 q 220 -159 235 -165 l 220 -125 l 345 -58 q 378 -79 361 -62 q 407 -125 395 -96 q 419 -191 419 -154 q 401 -282 419 -241 q 358 -348 382 -323 q 317 -380 334 -374 l 242 -350 l 242 -332 m 143 627 l 50 627 l 50 741 q 115 761 95 754 q 151 781 135 768 q 175 814 166 793 q 226 949 189 848 l 355 949 l 355 773 l 564 773 l 564 627 l 355 627 l 355 316 q 363 203 355 239 q 389 158 371 168 q 443 149 406 149 q 508 158 471 149 q 563 181 545 168 l 589 62 q 493 12 557 34 q 357 -11 430 -11 q 232 13 279 -11 q 164 90 186 37 q 143 230 143 142 l 143 627 z "},"ṫ":{"ha":619,"x_min":50,"x_max":589,"o":"m 143 627 l 50 627 l 50 741 q 115 761 95 754 q 151 781 135 768 q 175 814 166 793 q 226 949 189 848 l 355 949 l 355 773 l 564 773 l 564 627 l 355 627 l 355 316 q 363 203 355 239 q 389 158 371 168 q 443 149 406 149 q 508 158 471 149 q 563 181 545 168 l 589 62 q 493 12 557 34 q 357 -11 430 -11 q 232 13 279 -11 q 164 90 186 37 q 143 230 143 142 l 143 627 m 162 1117 q 181 1180 162 1151 q 231 1226 200 1209 q 297 1244 262 1244 q 386 1212 353 1244 q 419 1128 419 1179 q 400 1065 419 1095 q 351 1018 382 1036 q 285 1001 320 1001 q 222 1016 250 1001 q 178 1057 195 1031 q 162 1117 162 1084 z "},"u":{"ha":899,"x_min":110,"x_max":781,"o":"m 781 773 l 781 -11 l 642 -11 q 602 -3 614 -11 q 590 28 590 5 l 590 64 q 483 11 546 33 q 364 -11 419 -11 q 203 29 258 -11 q 129 140 147 69 q 110 321 110 210 l 110 773 l 321 773 l 321 323 q 334 214 321 251 q 371 164 347 177 q 440 151 396 151 q 512 165 474 151 q 570 195 550 180 l 570 773 l 781 773 z "},"ú":{"ha":899,"x_min":110,"x_max":781,"o":"m 367 941 q 488 1072 428 998 q 598 1225 549 1145 l 743 1107 q 671 1009 725 1065 q 557 907 617 954 q 468 848 497 861 l 367 941 m 781 773 l 781 -11 l 642 -11 q 602 -3 614 -11 q 590 28 590 5 l 590 64 q 483 11 546 33 q 364 -11 419 -11 q 203 29 258 -11 q 129 140 147 69 q 110 321 110 210 l 110 773 l 321 773 l 321 323 q 334 214 321 251 q 371 164 347 177 q 440 151 396 151 q 512 165 474 151 q 570 195 550 180 l 570 773 l 781 773 z "},"ŭ":{"ha":899,"x_min":110,"x_max":781,"o":"m 781 773 l 781 -11 l 642 -11 q 602 -3 614 -11 q 590 28 590 5 l 590 64 q 483 11 546 33 q 364 -11 419 -11 q 203 29 258 -11 q 129 140 147 69 q 110 321 110 210 l 110 773 l 321 773 l 321 323 q 334 214 321 251 q 371 164 347 177 q 440 151 396 151 q 512 165 474 151 q 570 195 550 180 l 570 773 l 781 773 m 344 1142 q 353 1092 347 1115 q 385 1048 360 1068 q 458 1027 410 1027 q 530 1048 505 1027 q 563 1092 555 1068 q 574 1142 571 1116 l 705 1142 q 677 1010 707 1071 q 590 915 647 950 q 458 880 532 880 q 323 915 380 880 q 237 1010 266 950 q 211 1142 208 1070 l 344 1142 z "},"ǔ":{"ha":899,"x_min":110,"x_max":781,"o":"m 781 773 l 781 -11 l 642 -11 q 602 -3 614 -11 q 590 28 590 5 l 590 64 q 483 11 546 33 q 364 -11 419 -11 q 203 29 258 -11 q 129 140 147 69 q 110 321 110 210 l 110 773 l 321 773 l 321 323 q 334 214 321 251 q 371 164 347 177 q 440 151 396 151 q 512 165 474 151 q 570 195 550 180 l 570 773 l 781 773 m 456 994 l 614 1161 l 724 1100 l 532 848 l 380 848 l 186 1101 l 292 1161 l 456 994 z "},"û":{"ha":899,"x_min":110,"x_max":781,"o":"m 383 1152 l 534 1152 l 726 899 l 617 838 l 459 1005 l 295 838 l 189 899 l 383 1152 m 781 773 l 781 -11 l 642 -11 q 602 -3 614 -11 q 590 28 590 5 l 590 64 q 483 11 546 33 q 364 -11 419 -11 q 203 29 258 -11 q 129 140 147 69 q 110 321 110 210 l 110 773 l 321 773 l 321 323 q 334 214 321 251 q 371 164 347 177 q 440 151 396 151 q 512 165 474 151 q 570 195 550 180 l 570 773 l 781 773 z "},"ü":{"ha":899,"x_min":110,"x_max":781,"o":"m 174 1002 q 191 1064 174 1035 q 237 1110 208 1093 q 300 1127 266 1127 q 382 1096 354 1127 q 411 1013 411 1064 q 395 950 411 979 q 350 905 378 922 q 287 888 321 888 q 205 920 236 888 q 174 1002 174 951 m 503 1002 q 520 1064 503 1035 q 566 1110 537 1093 q 629 1127 595 1127 q 711 1096 683 1127 q 740 1013 740 1064 q 724 950 740 979 q 679 905 707 922 q 616 888 650 888 q 534 920 565 888 q 503 1002 503 951 m 781 773 l 781 -11 l 642 -11 q 602 -3 614 -11 q 590 28 590 5 l 590 64 q 483 11 546 33 q 364 -11 419 -11 q 203 29 258 -11 q 129 140 147 69 q 110 321 110 210 l 110 773 l 321 773 l 321 323 q 334 214 321 251 q 371 164 347 177 q 440 151 396 151 q 512 165 474 151 q 570 195 550 180 l 570 773 l 781 773 z "},"ù":{"ha":899,"x_min":110,"x_max":781,"o":"m 781 773 l 781 -11 l 642 -11 q 602 -3 614 -11 q 590 28 590 5 l 590 64 q 483 11 546 33 q 364 -11 419 -11 q 203 29 258 -11 q 129 140 147 69 q 110 321 110 210 l 110 773 l 321 773 l 321 323 q 334 214 321 251 q 371 164 347 177 q 440 151 396 151 q 512 165 474 151 q 570 195 550 180 l 570 773 l 781 773 m 438 848 q 349 907 407 863 q 237 1007 290 952 q 162 1107 183 1062 l 308 1225 q 414 1076 349 1155 q 539 941 478 998 l 438 848 z "},"ű":{"ha":899,"x_min":110,"x_max":880,"o":"m 781 773 l 781 -11 l 642 -11 q 602 -3 614 -11 q 590 28 590 5 l 590 64 q 483 11 546 33 q 364 -11 419 -11 q 203 29 258 -11 q 129 140 147 69 q 110 321 110 210 l 110 773 l 321 773 l 321 323 q 334 214 321 251 q 371 164 347 177 q 440 151 396 151 q 512 165 474 151 q 570 195 550 180 l 570 773 l 781 773 m 394 1244 l 526 1151 q 461 1064 505 1116 q 372 967 418 1012 q 297 905 327 922 l 211 968 l 394 1244 m 747 1241 l 880 1149 q 813 1060 857 1113 q 722 963 768 1008 q 646 905 676 919 l 563 968 l 747 1241 z "},"ū":{"ha":899,"x_min":110,"x_max":781,"o":"m 781 773 l 781 -11 l 642 -11 q 602 -3 614 -11 q 590 28 590 5 l 590 64 q 483 11 546 33 q 364 -11 419 -11 q 203 29 258 -11 q 129 140 147 69 q 110 321 110 210 l 110 773 l 321 773 l 321 323 q 334 214 321 251 q 371 164 347 177 q 440 151 396 151 q 512 165 474 151 q 570 195 550 180 l 570 773 l 781 773 m 658 1102 l 658 962 l 257 962 l 257 1102 l 658 1102 z "},"ų":{"ha":899,"x_min":110,"x_max":813,"o":"m 728 -211 q 813 -197 766 -211 l 813 -304 q 742 -338 784 -326 q 657 -350 701 -350 q 574 -334 614 -350 q 508 -287 534 -317 q 480 -214 482 -256 q 515 -96 477 -149 q 613 -8 553 -44 q 596 4 602 -5 q 590 28 590 13 l 590 64 q 483 11 546 33 q 364 -11 419 -11 q 203 29 258 -11 q 129 140 147 69 q 110 321 110 210 l 110 773 l 321 773 l 321 323 q 334 214 321 251 q 371 164 347 177 q 440 151 396 151 q 512 165 474 151 q 570 195 550 180 l 570 773 l 781 773 l 781 -11 l 751 -11 q 673 -77 700 -46 q 646 -144 646 -107 q 728 -211 646 -211 z "},"ů":{"ha":899,"x_min":110,"x_max":781,"o":"m 225 1086 q 259 1196 225 1153 q 346 1260 292 1240 q 460 1280 399 1280 q 628 1230 567 1280 q 688 1088 688 1181 q 656 978 688 1022 q 571 912 624 933 q 454 890 517 890 q 332 914 383 890 q 253 982 280 938 q 225 1086 225 1025 m 564 1084 q 533 1155 564 1129 q 454 1181 503 1181 q 379 1159 408 1181 q 350 1089 350 1137 q 380 1020 350 1046 q 456 994 410 994 q 536 1014 509 993 q 564 1084 564 1034 m 781 773 l 781 -11 l 642 -11 q 602 -3 614 -11 q 590 28 590 5 l 590 64 q 483 11 546 33 q 364 -11 419 -11 q 203 29 258 -11 q 129 140 147 69 q 110 321 110 210 l 110 773 l 321 773 l 321 323 q 334 214 321 251 q 371 164 347 177 q 440 151 396 151 q 512 165 474 151 q 570 195 550 180 l 570 773 l 781 773 z "},"ũ":{"ha":899,"x_min":110,"x_max":781,"o":"m 781 773 l 781 -11 l 642 -11 q 602 -3 614 -11 q 590 28 590 5 l 590 64 q 483 11 546 33 q 364 -11 419 -11 q 203 29 258 -11 q 129 140 147 69 q 110 321 110 210 l 110 773 l 321 773 l 321 323 q 334 214 321 251 q 371 164 347 177 q 440 151 396 151 q 512 165 474 151 q 570 195 550 180 l 570 773 l 781 773 m 155 998 q 231 1109 178 1066 q 359 1152 284 1152 q 429 1138 402 1152 q 486 1099 456 1124 q 523 1072 507 1081 q 558 1063 538 1063 q 614 1084 589 1063 q 663 1139 639 1105 l 749 1065 q 673 953 724 995 q 547 911 622 911 q 482 924 507 911 q 427 962 456 937 q 385 991 401 982 q 344 1001 368 1001 q 290 981 317 1001 q 239 932 262 960 l 155 998 z "},"v":{"ha":808,"x_min":12,"x_max":796,"o":"m 796 773 l 501 -11 l 305 -11 l 12 773 l 240 773 l 358 393 l 408 205 l 454 393 l 572 773 l 796 773 z "},"w":{"ha":1192,"x_min":12,"x_max":1179,"o":"m 1179 773 l 938 -11 l 749 -11 l 626 401 l 596 549 l 566 401 l 444 -11 l 248 -11 l 12 773 l 224 773 l 320 399 l 355 212 l 394 399 l 506 773 l 703 773 l 815 399 l 850 214 l 885 397 l 975 773 l 1179 773 z "},"ẃ":{"ha":1192,"x_min":12,"x_max":1179,"o":"m 509 945 q 631 1075 570 1002 q 741 1229 691 1148 l 886 1111 q 813 1013 867 1068 q 700 911 760 957 q 610 852 640 865 l 509 945 m 1179 773 l 938 -11 l 749 -11 l 626 401 l 596 549 l 566 401 l 444 -11 l 248 -11 l 12 773 l 224 773 l 320 399 l 355 212 l 394 399 l 506 773 l 703 773 l 815 399 l 850 214 l 885 397 l 975 773 l 1179 773 z "},"ŵ":{"ha":1192,"x_min":12,"x_max":1179,"o":"m 526 1155 l 677 1155 l 869 903 l 760 842 l 602 1008 l 437 842 l 332 902 l 526 1155 m 1179 773 l 938 -11 l 749 -11 l 626 401 l 596 549 l 566 401 l 444 -11 l 248 -11 l 12 773 l 224 773 l 320 399 l 355 212 l 394 399 l 506 773 l 703 773 l 815 399 l 850 214 l 885 397 l 975 773 l 1179 773 z "},"ẅ":{"ha":1192,"x_min":12,"x_max":1179,"o":"m 317 1005 q 334 1067 317 1038 q 379 1113 351 1096 q 442 1131 408 1131 q 525 1099 496 1131 q 553 1017 553 1067 q 537 954 553 983 q 492 908 521 925 q 429 891 464 891 q 348 923 378 891 q 317 1005 317 955 m 646 1005 q 663 1067 646 1038 q 708 1113 680 1096 q 771 1131 737 1131 q 854 1099 825 1131 q 882 1017 882 1067 q 866 954 882 983 q 821 908 850 925 q 758 891 793 891 q 676 923 707 891 q 646 1005 646 955 m 1179 773 l 938 -11 l 749 -11 l 626 401 l 596 549 l 566 401 l 444 -11 l 248 -11 l 12 773 l 224 773 l 320 399 l 355 212 l 394 399 l 506 773 l 703 773 l 815 399 l 850 214 l 885 397 l 975 773 l 1179 773 z "},"ẁ":{"ha":1192,"x_min":12,"x_max":1179,"o":"m 1179 773 l 938 -11 l 749 -11 l 626 401 l 596 549 l 566 401 l 444 -11 l 248 -11 l 12 773 l 224 773 l 320 399 l 355 212 l 394 399 l 506 773 l 703 773 l 815 399 l 850 214 l 885 397 l 975 773 l 1179 773 m 581 852 q 491 911 549 866 q 379 1010 433 956 q 304 1111 326 1065 l 450 1229 q 556 1080 492 1158 q 682 945 621 1001 l 581 852 z "},"x":{"ha":827,"x_min":24,"x_max":813,"o":"m 813 0 l 571 0 l 431 218 l 409 253 l 391 216 l 267 0 l 24 0 l 296 391 l 24 773 l 264 773 l 397 572 l 421 531 l 441 572 l 569 773 l 808 773 l 534 395 l 813 0 z "},"y":{"ha":806,"x_min":12,"x_max":788,"o":"m 788 773 l 547 -20 q 439 -229 507 -153 q 288 -330 371 -305 q 236 -339 270 -335 q 184 -344 201 -344 q 127 -339 167 -344 q 81 -331 87 -335 l 81 -159 q 120 -168 94 -163 q 158 -173 147 -173 q 241 -164 206 -173 q 310 -118 276 -155 q 365 0 345 -80 l 274 0 l 12 773 l 241 773 l 358 360 l 414 137 l 467 360 l 561 773 l 788 773 z "},"ý":{"ha":806,"x_min":12,"x_max":788,"o":"m 788 773 l 547 -20 q 439 -229 507 -153 q 288 -330 371 -305 q 236 -339 270 -335 q 184 -344 201 -344 q 127 -339 167 -344 q 81 -331 87 -335 l 81 -159 q 120 -168 94 -163 q 158 -173 147 -173 q 241 -164 206 -173 q 310 -118 276 -155 q 365 0 345 -80 l 274 0 l 12 773 l 241 773 l 358 360 l 414 137 l 467 360 l 561 773 l 788 773 m 325 941 q 446 1072 386 998 q 556 1225 507 1145 l 701 1107 q 629 1009 683 1065 q 515 907 575 954 q 426 848 455 861 l 325 941 z "},"ŷ":{"ha":806,"x_min":12,"x_max":788,"o":"m 788 773 l 547 -20 q 439 -229 507 -153 q 288 -330 371 -305 q 236 -339 270 -335 q 184 -344 201 -344 q 127 -339 167 -344 q 81 -331 87 -335 l 81 -159 q 120 -168 94 -163 q 158 -173 147 -173 q 241 -164 206 -173 q 310 -118 276 -155 q 365 0 345 -80 l 274 0 l 12 773 l 241 773 l 358 360 l 414 137 l 467 360 l 561 773 l 788 773 m 341 1152 l 492 1152 l 684 899 l 575 838 l 417 1005 l 253 838 l 147 899 l 341 1152 z "},"ÿ":{"ha":806,"x_min":12,"x_max":788,"o":"m 788 773 l 547 -20 q 439 -229 507 -153 q 288 -330 371 -305 q 236 -339 270 -335 q 184 -344 201 -344 q 127 -339 167 -344 q 81 -331 87 -335 l 81 -159 q 120 -168 94 -163 q 158 -173 147 -173 q 241 -164 206 -173 q 310 -118 276 -155 q 365 0 345 -80 l 274 0 l 12 773 l 241 773 l 358 360 l 414 137 l 467 360 l 561 773 l 788 773 m 132 1002 q 149 1064 132 1035 q 195 1110 166 1093 q 258 1127 224 1127 q 340 1096 312 1127 q 369 1013 369 1064 q 353 950 369 979 q 308 905 336 922 q 245 888 279 888 q 163 920 194 888 q 132 1002 132 951 m 461 1002 q 478 1064 461 1035 q 524 1110 495 1093 q 587 1127 553 1127 q 669 1096 641 1127 q 698 1013 698 1064 q 682 950 698 979 q 637 905 665 922 q 574 888 608 888 q 492 920 523 888 q 461 1002 461 951 z "},"ẏ":{"ha":806,"x_min":12,"x_max":788,"o":"m 788 773 l 547 -20 q 439 -229 507 -153 q 288 -330 371 -305 q 236 -339 270 -335 q 184 -344 201 -344 q 127 -339 167 -344 q 81 -331 87 -335 l 81 -159 q 120 -168 94 -163 q 158 -173 147 -173 q 241 -164 206 -173 q 310 -118 276 -155 q 365 0 345 -80 l 274 0 l 12 773 l 241 773 l 358 360 l 414 137 l 467 360 l 561 773 l 788 773 m 283 1002 q 302 1065 283 1036 q 353 1111 321 1094 q 418 1128 384 1128 q 507 1096 474 1128 q 541 1013 541 1064 q 522 950 541 979 q 472 903 503 920 q 406 886 441 886 q 344 901 372 886 q 300 942 316 916 q 283 1002 283 968 z "},"ỳ":{"ha":806,"x_min":12,"x_max":788,"o":"m 788 773 l 547 -20 q 439 -229 507 -153 q 288 -330 371 -305 q 236 -339 270 -335 q 184 -344 201 -344 q 127 -339 167 -344 q 81 -331 87 -335 l 81 -159 q 120 -168 94 -163 q 158 -173 147 -173 q 241 -164 206 -173 q 310 -118 276 -155 q 365 0 345 -80 l 274 0 l 12 773 l 241 773 l 358 360 l 414 137 l 467 360 l 561 773 l 788 773 m 396 848 q 307 907 365 863 q 195 1007 248 952 q 120 1107 141 1062 l 266 1225 q 372 1076 307 1155 q 497 941 436 998 l 396 848 z "},"z":{"ha":751,"x_min":52,"x_max":709,"o":"m 388 570 l 427 626 l 96 626 l 98 773 l 685 773 l 709 709 l 380 203 l 339 146 l 698 146 l 698 0 l 80 0 l 52 56 l 388 570 z "},"ź":{"ha":751,"x_min":52,"x_max":709,"o":"m 297 941 q 418 1072 358 998 q 528 1225 479 1145 l 673 1107 q 601 1009 655 1065 q 487 907 547 954 q 398 848 427 861 l 297 941 m 388 570 l 427 626 l 96 626 l 98 773 l 685 773 l 709 709 l 380 203 l 339 146 l 698 146 l 698 0 l 80 0 l 52 56 l 388 570 z "},"ž":{"ha":751,"x_min":52,"x_max":709,"o":"m 412 994 l 570 1161 l 679 1100 l 487 848 l 336 848 l 142 1101 l 248 1161 l 412 994 m 388 570 l 427 626 l 96 626 l 98 773 l 685 773 l 709 709 l 380 203 l 339 146 l 698 146 l 698 0 l 80 0 l 52 56 l 388 570 z "},"ż":{"ha":751,"x_min":52,"x_max":709,"o":"m 388 570 l 427 626 l 96 626 l 98 773 l 685 773 l 709 709 l 380 203 l 339 146 l 698 146 l 698 0 l 80 0 l 52 56 l 388 570 m 256 1002 q 275 1065 256 1036 q 325 1111 294 1094 q 391 1128 356 1128 q 479 1096 446 1128 q 513 1013 513 1064 q 494 950 513 979 q 445 903 475 920 q 378 886 414 886 q 316 901 344 886 q 272 942 288 916 q 256 1002 256 968 z "},"ﬁ":{"ha":1029,"x_min":56,"x_max":931,"o":"m 56 627 l 56 750 l 161 773 l 161 847 q 203 1019 161 954 q 310 1113 245 1085 q 450 1141 376 1141 q 531 1136 490 1141 q 587 1126 572 1131 l 587 976 q 481 992 553 992 q 402 956 431 992 q 372 852 372 920 l 372 773 l 553 773 l 553 627 l 372 627 l 372 0 l 161 0 l 161 627 l 56 627 m 911 773 l 911 0 l 700 0 l 700 773 l 911 773 m 674 1002 q 693 1065 674 1036 q 743 1111 712 1094 q 809 1128 774 1128 q 898 1096 865 1128 q 931 1013 931 1064 q 912 950 931 979 q 863 903 894 920 q 797 886 832 886 q 734 901 762 886 q 690 942 707 916 q 674 1002 674 968 z "},"ﬂ":{"ha":1038,"x_min":56,"x_max":916,"o":"m 56 627 l 56 750 l 161 773 l 161 847 q 203 1019 161 954 q 310 1113 245 1085 q 450 1141 376 1141 q 531 1136 490 1141 q 587 1126 572 1131 l 587 976 q 481 992 553 992 q 402 956 431 992 q 372 852 372 920 l 372 773 l 553 773 l 553 627 l 372 627 l 372 0 l 161 0 l 161 627 l 56 627 m 916 1127 l 916 0 l 704 0 l 704 1127 l 916 1127 z "},"ª":{"ha":724,"x_min":81,"x_max":633,"o":"m 370 1096 q 516 1076 459 1096 q 603 1010 574 1056 q 633 886 633 964 l 633 459 l 545 459 q 496 461 509 459 q 473 473 482 463 q 465 510 465 484 l 465 519 q 421 489 450 504 q 355 463 392 473 q 280 452 317 452 q 174 475 219 452 q 105 540 129 498 q 81 637 81 582 q 117 751 81 705 q 212 821 152 798 q 456 859 313 859 l 456 882 q 445 937 456 918 q 408 961 433 955 q 338 968 382 968 q 267 959 308 968 q 190 939 226 951 q 138 916 153 926 l 100 1021 q 159 1052 113 1034 q 262 1083 205 1069 q 370 1096 320 1096 m 254 650 q 278 600 254 617 q 337 582 302 582 q 409 593 374 582 q 456 615 444 605 l 456 760 q 368 755 403 760 q 305 736 333 751 q 266 700 277 720 q 254 650 254 679 z "},"º":{"ha":722,"x_min":56,"x_max":666,"o":"m 374 1097 q 534 1057 468 1097 q 633 945 600 1017 q 666 778 666 873 q 624 594 666 667 q 512 487 582 521 q 359 454 443 454 q 194 494 262 454 q 91 607 126 534 q 56 779 56 680 q 102 960 56 888 q 219 1064 147 1031 q 374 1097 292 1097 m 365 583 q 456 627 427 583 q 485 769 485 671 q 456 916 485 863 q 369 968 427 968 q 271 924 304 968 q 237 784 237 881 q 270 637 237 690 q 365 583 302 583 z "},"Δ":{"ha":1100,"x_min":53,"x_max":1047,"o":"m 519 1023 l 541 1023 l 1047 18 l 1036 0 l 62 0 l 53 15 l 519 1023 m 532 669 l 307 171 l 771 171 l 532 669 z "},"Ω":{"ha":1244,"x_min":115,"x_max":1129,"o":"m 1129 148 l 1129 0 l 718 0 l 718 121 q 799 207 761 147 q 860 357 836 267 q 884 554 884 446 q 848 748 884 671 q 753 862 812 825 q 623 898 694 898 q 485 862 547 898 q 386 749 423 826 q 349 554 349 671 q 377 358 349 448 q 448 209 406 269 q 534 121 490 148 l 534 0 l 115 0 l 115 148 l 321 148 q 224 260 269 193 q 152 410 179 328 q 126 572 125 491 q 197 843 130 737 q 375 999 264 949 q 623 1048 486 1048 q 878 998 769 1048 q 1046 844 986 947 q 1107 587 1107 741 q 1082 417 1107 500 q 1015 264 1058 334 q 917 148 972 194 l 1129 148 z "},"μ":{"ha":952,"x_min":123,"x_max":907,"o":"m 907 59 q 876 32 900 49 q 815 1 852 15 q 734 -12 778 -12 q 632 81 636 -12 q 563 17 606 44 q 453 -11 519 -11 q 360 0 399 -11 q 294 35 321 10 l 314 -252 l 123 -252 l 123 773 l 334 773 l 334 328 q 348 229 334 266 q 392 174 361 191 q 473 157 422 157 q 534 171 502 157 q 589 203 566 184 l 589 773 l 801 773 l 801 191 q 830 139 801 139 q 854 143 839 139 q 886 157 869 147 l 907 59 z "},"π":{"ha":1085,"x_min":45,"x_max":1044,"o":"m 841 137 q 887 152 865 137 q 924 184 909 168 q 961 231 938 200 l 1039 149 q 986 69 1023 106 q 893 7 949 31 q 768 -16 837 -16 q 653 31 690 -16 q 616 157 616 78 q 618 189 616 168 l 654 602 l 470 602 l 453 290 q 437 170 449 216 q 405 96 425 124 q 350 35 385 67 q 296 2 328 16 q 227 -16 264 -12 l 107 77 q 137 90 117 80 q 174 113 156 99 q 241 200 222 149 q 269 330 261 250 l 298 602 l 254 602 q 198 593 222 602 q 162 574 175 585 q 127 545 149 564 l 45 597 q 56 645 47 616 q 81 694 66 673 q 155 753 111 734 q 277 773 200 773 l 826 773 q 885 784 867 773 q 912 824 903 795 l 1044 824 q 1016 695 1040 744 q 946 624 992 646 q 829 602 901 602 l 818 602 l 801 223 q 810 159 799 181 q 841 137 821 137 z "},"⁄":{"ha":703,"x_min":86,"x_max":616,"o":"m 452 1038 l 616 1038 l 249 0 l 86 0 l 452 1038 z "},"½":{"ha":1735,"x_min":141,"x_max":1606,"o":"m 1606 162 l 1606 -1 l 1052 -1 l 1023 103 q 1166 197 1083 134 q 1310 332 1249 260 q 1371 464 1371 404 q 1259 568 1371 568 q 1161 542 1204 568 q 1076 465 1117 517 l 1002 566 q 1069 632 1024 600 q 1176 685 1115 665 q 1305 706 1238 706 q 1456 675 1396 706 q 1543 597 1516 644 q 1570 503 1570 551 q 1500 317 1570 404 q 1302 149 1431 230 l 1606 162 m 286 947 q 168 919 220 928 l 141 1028 q 232 1064 179 1039 q 330 1115 284 1088 q 392 1156 375 1141 l 490 1139 l 490 456 l 301 456 l 301 951 l 286 947 m 888 1038 l 1053 1038 l 686 0 l 523 0 l 888 1038 z "},"¼":{"ha":1735,"x_min":140,"x_max":1600,"o":"m 1600 132 l 1489 132 l 1489 -52 l 1316 -52 l 1316 132 l 946 132 l 911 196 l 1249 799 l 1295 799 l 1421 736 l 1123 262 l 1316 262 l 1333 439 l 1489 439 l 1489 262 l 1600 262 l 1600 132 m 888 1038 l 1053 1038 l 686 0 l 523 0 l 888 1038 m 286 947 q 168 919 220 928 l 140 1028 q 231 1064 178 1039 q 329 1115 283 1088 q 391 1156 374 1141 l 490 1139 l 490 456 l 300 456 l 300 951 l 286 947 z "},"¾":{"ha":1735,"x_min":77,"x_max":1600,"o":"m 1600 132 l 1489 132 l 1489 -52 l 1316 -52 l 1316 132 l 946 132 l 911 196 l 1249 799 l 1295 799 l 1421 736 l 1123 262 l 1316 262 l 1333 439 l 1489 439 l 1489 262 l 1600 262 l 1600 132 m 101 555 q 181 539 148 545 q 267 534 214 534 q 391 562 353 535 q 430 640 430 588 q 402 700 430 674 q 311 736 374 725 l 203 713 l 204 839 q 289 854 252 846 q 368 898 338 869 q 398 962 398 926 q 370 1014 398 996 q 291 1031 342 1031 q 210 1018 255 1031 q 122 979 164 1004 l 77 1085 q 146 1124 102 1106 q 239 1152 191 1141 q 324 1162 287 1162 q 466 1140 410 1162 q 548 1082 522 1119 q 574 997 574 1044 q 546 895 574 941 q 446 810 518 849 q 537 784 499 808 q 596 725 576 761 q 616 648 616 689 q 581 520 616 576 q 475 431 547 464 q 296 399 404 399 q 214 405 250 399 q 137 422 178 412 q 105 431 121 427 l 101 555 m 888 1038 l 1053 1038 l 686 0 l 523 0 l 888 1038 z "},"¹":{"ha":723,"x_min":119,"x_max":468,"o":"m 264 947 q 146 919 198 928 l 119 1028 q 209 1064 157 1039 q 307 1115 262 1088 q 370 1156 353 1141 l 468 1139 l 468 456 l 279 456 l 279 951 l 264 947 z "},"²":{"ha":837,"x_min":106,"x_max":709,"o":"m 709 625 l 709 461 l 155 461 l 126 566 q 269 660 186 597 q 413 794 352 722 q 475 926 475 867 q 363 1030 475 1030 q 264 1005 308 1030 q 179 928 220 979 l 106 1029 q 173 1095 127 1063 q 280 1148 218 1127 q 408 1168 341 1168 q 559 1137 500 1168 q 646 1060 619 1106 q 673 966 673 1013 q 604 779 673 866 q 406 611 534 692 l 709 625 z "},"³":{"ha":837,"x_min":168,"x_max":707,"o":"m 192 555 q 272 539 239 545 q 358 534 304 534 q 482 562 444 535 q 521 640 521 588 q 493 700 521 674 q 402 736 465 725 l 294 713 l 295 839 q 380 854 342 846 q 459 898 429 869 q 489 962 489 926 q 461 1014 489 996 q 382 1031 433 1031 q 300 1018 346 1031 q 213 979 255 1004 l 168 1085 q 237 1124 193 1106 q 330 1152 281 1141 q 415 1162 378 1162 q 556 1140 500 1162 q 639 1082 612 1119 q 665 997 665 1044 q 637 895 665 941 q 537 810 609 849 q 628 784 590 808 q 687 725 667 761 q 707 648 707 689 q 672 520 707 576 q 566 431 637 464 q 387 399 494 399 q 305 405 340 399 q 228 422 269 412 q 196 431 212 427 l 192 555 z "},"⁴":{"ha":801,"x_min":60,"x_max":750,"o":"m 750 582 l 639 582 l 639 397 l 465 397 l 466 582 l 96 582 l 60 646 l 398 1249 l 444 1249 l 571 1186 l 273 712 l 466 712 l 483 888 l 639 888 l 639 712 l 750 712 l 750 582 z "},"*":{"ha":914,"x_min":88,"x_max":826,"o":"m 422 732 l 331 639 l 172 526 l 92 667 l 263 758 l 386 794 q 332 808 382 796 q 262 827 275 822 l 88 913 l 163 1055 l 328 943 l 420 855 q 415 878 420 860 q 408 905 410 895 q 389 979 391 966 l 372 1177 l 532 1177 l 520 982 l 491 857 q 528 895 496 861 q 581 948 572 941 l 745 1061 l 821 921 l 650 832 l 527 795 l 651 762 l 826 678 l 745 533 l 587 643 l 492 731 q 505 682 493 725 q 524 608 521 624 l 542 409 l 382 408 l 393 607 l 422 732 z "},"\\":{"ha":586,"x_min":9,"x_max":563,"o":"m 563 -246 l 390 -246 l 9 1084 l 182 1084 l 563 -246 z "},"·":{"ha":435,"x_min":85,"x_max":349,"o":"m 85 530 q 104 600 85 567 q 155 652 123 633 q 224 672 187 672 q 291 655 262 672 q 334 607 319 637 q 349 539 349 576 q 331 469 349 501 q 281 417 313 436 q 212 397 250 397 q 147 415 176 397 q 102 462 118 432 q 85 530 85 492 z "},"•":{"ha":614,"x_min":127,"x_max":487,"o":"m 127 488 q 153 580 127 537 q 222 649 178 623 q 315 675 265 675 q 403 653 363 675 q 465 592 442 631 q 487 505 487 553 q 461 412 487 455 q 393 342 436 368 q 300 317 350 317 q 212 339 252 317 q 150 401 172 362 q 127 488 127 440 z "},":":{"ha":435,"x_min":85,"x_max":349,"o":"m 85 117 q 104 188 85 155 q 155 240 123 220 q 224 260 187 260 q 291 242 262 260 q 334 195 319 225 q 349 127 349 164 q 331 56 349 89 q 281 4 313 24 q 212 -15 250 -15 q 147 2 176 -15 q 102 50 118 20 q 85 117 85 80 m 85 632 q 104 702 85 669 q 155 755 123 735 q 224 774 187 774 q 291 757 262 774 q 334 709 319 740 q 349 642 349 679 q 331 571 349 604 q 281 519 313 538 q 212 500 250 500 q 147 517 176 500 q 102 565 118 534 q 85 632 85 595 z "},",":{"ha":470,"x_min":111,"x_max":386,"o":"m 119 -259 q 154 -222 138 -248 q 180 -162 170 -196 q 190 -92 190 -127 q 177 -29 190 -62 q 146 26 165 4 q 111 50 127 49 l 111 109 l 261 201 q 329 150 301 186 q 372 71 357 115 q 386 -15 386 26 q 360 -159 386 -90 q 289 -276 334 -227 q 191 -343 245 -325 l 119 -277 l 119 -259 z "},"…":{"ha":1291,"x_min":85,"x_max":1205,"o":"m 85 117 q 104 188 85 155 q 155 240 123 220 q 224 260 187 260 q 291 242 262 260 q 334 195 319 225 q 349 127 349 164 q 331 56 349 89 q 281 4 313 24 q 212 -15 250 -15 q 147 2 176 -15 q 102 50 118 20 q 85 117 85 80 m 513 117 q 532 188 513 155 q 583 240 551 220 q 652 260 615 260 q 719 242 690 260 q 762 195 747 225 q 777 127 777 164 q 759 56 777 89 q 709 4 741 24 q 640 -15 677 -15 q 575 2 604 -15 q 530 50 546 20 q 513 117 513 80 m 941 117 q 960 188 941 155 q 1011 240 979 220 q 1080 260 1043 260 q 1147 242 1118 260 q 1190 195 1175 225 q 1205 127 1205 164 q 1187 56 1205 89 q 1137 4 1168 24 q 1068 -15 1105 -15 q 1003 2 1032 -15 q 958 50 974 20 q 941 117 941 80 z "},"!":{"ha":435,"x_min":85,"x_max":349,"o":"m 338 1207 l 315 376 l 134 376 l 102 1207 l 338 1207 m 85 119 q 104 189 85 156 q 155 240 123 221 q 223 260 186 260 q 291 242 262 260 q 334 195 319 225 q 349 128 349 165 q 331 57 349 90 q 281 5 313 24 q 212 -15 249 -15 q 147 3 176 -15 q 102 51 118 20 q 85 119 85 81 z "},"‼":{"ha":861,"x_min":85,"x_max":776,"o":"m 338 1207 l 315 376 l 134 376 l 102 1207 l 338 1207 m 85 119 q 104 189 85 156 q 155 240 123 221 q 223 260 186 260 q 291 242 262 260 q 334 195 319 225 q 349 128 349 165 q 331 57 349 90 q 281 5 313 24 q 212 -15 249 -15 q 147 3 176 -15 q 102 51 118 20 q 85 119 85 81 m 764 1207 l 741 376 l 560 376 l 529 1207 l 764 1207 m 512 119 q 531 189 512 156 q 582 240 550 221 q 650 260 613 260 q 717 242 688 260 q 761 195 746 225 q 776 128 776 165 q 758 57 776 90 q 707 5 739 24 q 638 -15 675 -15 q 573 3 602 -15 q 528 51 545 20 q 512 119 512 81 z "},"¡":{"ha":435,"x_min":79,"x_max":342,"o":"m 342 793 q 323 723 342 755 q 273 671 304 690 q 205 652 241 652 q 137 669 166 652 q 94 716 109 686 q 79 783 79 746 q 97 854 79 821 q 147 907 115 887 q 216 926 179 926 q 281 909 252 926 q 326 861 310 891 q 342 793 342 830 m 90 -296 l 113 535 l 294 535 l 326 -296 l 90 -296 z "},"#":{"ha":1116,"x_min":133,"x_max":983,"o":"m 831 581 l 811 363 l 953 363 l 953 221 l 798 221 l 777 0 l 604 0 l 625 221 l 435 221 l 414 0 l 239 0 l 260 221 l 133 221 l 133 363 l 273 363 l 293 581 l 159 581 l 159 718 l 306 718 l 326 931 l 503 931 l 483 718 l 669 718 l 689 931 l 865 931 l 844 718 l 983 718 l 983 581 l 831 581 m 657 581 l 469 581 l 449 363 l 637 363 l 657 581 z "},".":{"ha":435,"x_min":85,"x_max":349,"o":"m 85 117 q 104 188 85 155 q 155 240 123 220 q 224 260 187 260 q 291 242 262 260 q 334 195 319 225 q 349 127 349 164 q 331 56 349 89 q 281 4 313 24 q 212 -15 250 -15 q 147 2 176 -15 q 102 50 118 20 q 85 117 85 80 z "},"?":{"ha":717,"x_min":85,"x_max":671,"o":"m 176 529 q 195 618 176 579 q 243 684 215 656 q 318 749 271 712 q 386 807 361 783 q 429 864 412 831 q 446 936 446 896 q 392 1043 446 1008 q 225 1079 338 1079 q 150 1075 179 1079 q 106 1067 121 1071 q 85 1061 90 1063 l 85 1219 q 158 1242 108 1232 q 268 1252 208 1252 q 503 1210 412 1252 q 632 1098 593 1167 q 669 946 671 1029 q 645 832 669 882 q 588 748 622 782 q 500 669 555 713 q 430 607 455 631 q 387 551 405 583 q 366 481 368 519 q 365 463 365 475 q 369 422 365 441 q 382 370 373 404 q 390 343 384 365 l 229 343 q 191 423 205 378 q 176 529 176 467 m 208 106 q 225 170 208 140 q 274 218 243 200 q 337 235 304 235 q 400 220 373 235 q 442 177 427 204 q 456 115 456 149 q 438 51 456 81 q 391 3 420 21 q 327 -15 361 -15 q 267 1 294 -15 q 223 45 239 17 q 208 106 208 73 z "},"¿":{"ha":717,"x_min":39,"x_max":625,"o":"m 503 927 q 485 863 503 893 q 436 816 467 833 q 373 798 406 798 q 310 814 337 798 q 268 857 283 829 q 254 918 254 884 q 272 983 254 953 q 319 1030 290 1013 q 383 1048 349 1048 q 444 1033 416 1048 q 487 989 471 1017 q 503 927 503 961 m 534 505 q 515 416 534 454 q 467 349 495 377 q 392 284 439 321 q 324 226 349 250 q 281 170 298 202 q 264 98 264 138 q 318 -10 264 26 q 485 -45 372 -45 q 560 -41 531 -45 q 604 -33 589 -37 q 625 -28 620 -29 l 625 -185 q 552 -209 602 -199 q 442 -218 503 -218 q 208 -176 298 -218 q 78 -65 117 -134 q 41 87 39 4 q 65 202 41 152 q 122 286 88 252 q 210 365 155 320 q 280 427 255 402 q 323 483 305 451 q 345 552 342 514 q 345 571 345 559 q 341 611 345 593 q 328 663 337 630 q 320 690 326 669 l 481 690 q 519 611 505 655 q 534 505 534 566 z "},"\"":{"ha":844,"x_min":146,"x_max":698,"o":"m 353 1143 l 329 655 l 172 655 l 146 1143 l 353 1143 m 698 1143 l 673 655 l 517 655 l 491 1143 l 698 1143 z "},"'":{"ha":500,"x_min":146,"x_max":353,"o":"m 353 1143 l 329 655 l 172 655 l 146 1143 l 353 1143 z "},";":{"ha":435,"x_min":85,"x_max":368,"o":"m 102 -259 q 136 -222 120 -248 q 162 -162 153 -196 q 172 -92 172 -127 q 160 -29 172 -62 q 129 26 147 4 q 93 50 110 49 l 93 109 l 243 201 q 312 150 283 186 q 354 71 340 115 q 368 -15 368 26 q 342 -159 368 -90 q 272 -276 316 -227 q 174 -343 227 -325 l 102 -277 l 102 -259 m 85 632 q 104 702 85 669 q 155 755 123 735 q 224 774 187 774 q 291 757 262 774 q 334 709 319 740 q 349 642 349 679 q 331 571 349 604 q 281 519 313 538 q 212 500 250 500 q 147 517 176 500 q 102 565 118 534 q 85 632 85 595 z "},"/":{"ha":586,"x_min":16,"x_max":570,"o":"m 570 1084 l 189 -246 l 16 -246 l 397 1084 l 570 1084 z "},"_":{"ha":1154,"x_min":-24,"x_max":1178,"o":"m 1178 -163 l 1178 -277 l -24 -277 l -24 -163 l 1178 -163 z "},"{":{"ha":646,"x_min":46,"x_max":581,"o":"m 376 602 q 322 562 357 580 q 237 526 286 545 q 376 450 341 490 q 403 381 403 420 l 403 -14 l 581 -14 l 581 -119 q 483 -137 538 -131 q 369 -143 427 -143 q 283 -125 316 -143 q 235 -66 251 -106 q 220 41 220 -26 l 220 371 q 192 414 220 394 q 123 446 164 433 q 46 463 83 459 l 46 592 q 125 607 85 596 q 192 636 165 618 q 220 678 220 654 l 220 1008 q 235 1115 220 1075 q 283 1173 251 1155 q 369 1192 316 1192 q 581 1175 453 1192 l 581 1059 l 403 1059 l 403 672 q 376 602 403 631 z "},"}":{"ha":646,"x_min":58,"x_max":593,"o":"m 419 678 q 447 636 419 654 q 514 607 474 618 q 593 592 554 596 l 593 463 q 515 446 556 459 q 447 414 475 433 q 419 371 419 394 l 419 41 q 404 -66 419 -26 q 355 -125 388 -106 q 270 -143 323 -143 q 156 -137 212 -143 q 58 -119 100 -131 l 58 -14 l 236 -14 l 236 381 q 262 450 236 420 q 402 526 298 490 q 317 562 353 545 q 262 602 281 580 q 236 672 236 631 l 236 1059 l 58 1059 l 58 1175 q 270 1192 186 1192 q 355 1173 323 1192 q 404 1115 388 1155 q 419 1008 419 1075 l 419 678 z "},"[":{"ha":542,"x_min":98,"x_max":472,"o":"m 98 1008 q 109 1113 98 1077 q 147 1163 120 1148 q 227 1178 174 1178 q 319 1176 282 1178 q 409 1168 357 1173 l 472 1162 l 472 1051 l 290 1051 l 290 -14 l 472 -15 l 472 -113 l 442 -117 q 335 -126 376 -123 q 227 -130 294 -130 q 146 -115 174 -130 q 109 -64 119 -100 q 98 41 98 -28 l 98 1008 z "},"]":{"ha":542,"x_min":63,"x_max":437,"o":"m 437 41 q 426 -64 437 -28 q 389 -115 416 -100 q 308 -130 361 -130 q 200 -126 241 -130 q 93 -117 159 -123 l 63 -113 l 63 -15 l 245 -14 l 245 1051 l 63 1051 l 63 1162 l 126 1168 q 216 1176 178 1173 q 308 1178 253 1178 q 388 1163 361 1178 q 426 1113 415 1148 q 437 1008 437 1077 l 437 41 z "},"(":{"ha":566,"x_min":88,"x_max":529,"o":"m 88 486 q 146 827 88 675 q 279 1074 204 979 q 406 1198 354 1168 l 529 1120 q 431 1008 490 1091 q 324 788 372 924 q 276 479 276 651 q 321 163 276 299 q 424 -52 366 27 q 529 -165 482 -132 l 406 -244 q 282 -128 355 -214 q 149 114 210 -43 q 88 486 88 271 z "},")":{"ha":566,"x_min":31,"x_max":471,"o":"m 471 479 q 413 138 471 290 q 280 -108 355 -14 q 153 -233 205 -202 l 31 -154 q 129 -42 69 -125 q 236 178 188 41 q 283 486 283 315 q 238 803 283 667 q 135 1018 193 939 q 31 1131 77 1097 l 153 1210 q 277 1094 204 1179 q 411 852 350 1008 q 471 479 471 695 z "},"—":{"ha":1636,"x_min":166,"x_max":1470,"o":"m 1470 603 l 1470 437 l 166 437 l 166 603 l 1470 603 z "},"–":{"ha":1154,"x_min":166,"x_max":988,"o":"m 988 603 l 988 437 l 166 437 l 166 603 l 988 603 z "},"-":{"ha":922,"x_min":173,"x_max":749,"o":"m 749 603 l 749 437 l 173 437 l 173 603 l 749 603 z "},"«":{"ha":1355,"x_min":159,"x_max":1186,"o":"m 363 417 l 655 197 l 604 52 l 159 334 l 159 498 l 604 785 l 655 638 l 363 417 m 894 417 l 1186 197 l 1135 52 l 690 334 l 690 498 l 1135 785 l 1186 638 l 894 417 z "},"»":{"ha":1355,"x_min":162,"x_max":1189,"o":"m 213 785 l 658 498 l 658 334 l 213 52 l 162 197 l 454 417 l 162 638 l 213 785 m 1189 498 l 1189 334 l 744 52 l 693 197 l 985 417 l 693 638 l 744 785 l 1189 498 z "},"‹":{"ha":823,"x_min":159,"x_max":655,"o":"m 363 417 l 655 197 l 604 52 l 159 334 l 159 498 l 604 785 l 655 638 l 363 417 z "},"›":{"ha":823,"x_min":161,"x_max":657,"o":"m 657 498 l 657 334 l 212 52 l 161 197 l 454 417 l 161 638 l 212 785 l 657 498 z "},"„":{"ha":751,"x_min":64,"x_max":675,"o":"m 77 -278 q 111 -200 98 -254 q 124 -96 124 -146 q 115 -28 124 -60 q 92 25 106 3 q 64 54 77 47 l 64 102 l 178 186 q 241 142 212 174 q 287 61 269 110 q 304 -48 304 12 q 280 -186 304 -123 q 225 -290 257 -248 q 165 -353 193 -332 l 77 -297 l 77 -278 m 449 -278 q 483 -200 470 -254 q 496 -96 496 -146 q 487 -28 496 -60 q 463 25 477 3 q 435 54 449 47 l 435 102 l 550 186 q 612 142 584 174 q 658 61 641 110 q 675 -48 675 12 q 652 -186 675 -123 q 597 -290 629 -248 q 537 -353 565 -332 l 449 -297 l 449 -278 z "},"“":{"ha":751,"x_min":64,"x_max":675,"o":"m 64 872 q 87 1010 64 947 q 142 1115 111 1073 q 202 1177 174 1156 l 290 1121 l 290 1102 q 256 1024 269 1078 q 243 921 243 970 q 252 853 243 885 q 275 799 261 821 q 304 770 290 777 l 304 722 l 189 637 q 126 682 155 650 q 81 763 98 714 q 64 872 64 812 m 435 872 q 459 1010 435 947 q 514 1115 482 1073 q 574 1177 546 1156 l 662 1121 l 662 1102 q 628 1024 641 1078 q 614 921 614 970 q 624 853 614 885 q 647 799 633 821 q 675 770 661 777 l 675 722 l 561 637 q 498 682 527 650 q 452 763 469 714 q 435 872 435 812 z "},"”":{"ha":751,"x_min":64,"x_max":675,"o":"m 77 713 q 111 791 98 737 q 124 895 124 844 q 115 962 124 930 q 92 1016 106 994 q 64 1045 77 1038 l 64 1093 l 178 1177 q 241 1133 212 1165 q 287 1052 269 1101 q 304 943 304 1003 q 280 805 304 867 q 225 701 257 743 q 165 637 193 659 l 77 694 l 77 713 m 449 713 q 483 791 470 737 q 496 895 496 844 q 487 962 496 930 q 463 1016 477 994 q 435 1045 449 1038 l 435 1093 l 550 1177 q 612 1133 584 1165 q 658 1052 641 1101 q 675 943 675 1003 q 652 805 675 867 q 597 701 629 743 q 537 637 565 659 l 449 694 l 449 713 z "},"‘":{"ha":380,"x_min":64,"x_max":304,"o":"m 64 872 q 87 1010 64 947 q 142 1115 111 1073 q 202 1177 174 1156 l 290 1121 l 290 1102 q 256 1024 269 1078 q 243 921 243 970 q 252 853 243 885 q 275 799 261 821 q 304 770 290 777 l 304 722 l 189 637 q 126 682 155 650 q 81 763 98 714 q 64 872 64 812 z "},"‛":{"ha":380,"x_min":64,"x_max":304,"o":"m 304 1045 q 275 1016 290 1038 q 252 962 261 994 q 243 895 243 930 q 256 791 243 844 q 290 713 269 737 l 290 694 l 202 637 q 142 701 174 659 q 87 805 111 743 q 64 943 64 867 q 81 1052 64 1003 q 126 1133 98 1101 q 189 1177 155 1165 l 304 1093 l 304 1045 z "},"’":{"ha":380,"x_min":64,"x_max":304,"o":"m 77 713 q 111 791 98 737 q 124 895 124 844 q 115 962 124 930 q 92 1016 106 994 q 64 1045 77 1038 l 64 1093 l 178 1177 q 241 1133 212 1165 q 287 1052 269 1101 q 304 943 304 1003 q 280 805 304 867 q 225 701 257 743 q 165 637 193 659 l 77 694 l 77 713 z "},"‚":{"ha":380,"x_min":64,"x_max":304,"o":"m 77 -286 q 111 -208 98 -262 q 124 -104 124 -155 q 115 -37 124 -68 q 92 17 106 -5 q 64 46 77 39 l 64 94 l 178 178 q 241 134 212 166 q 287 53 269 102 q 304 -56 304 4 q 280 -194 304 -132 q 225 -298 257 -256 q 165 -361 193 -340 l 77 -305 l 77 -286 z "}," ":{"ha":454,"x_min":0,"x_max":0,"o":""},"₵":{"ha":996,"x_min":75,"x_max":861,"o":"m 575 1231 l 675 1231 l 658 1041 q 749 1030 711 1038 q 829 1010 787 1023 q 861 1002 854 1003 l 829 790 q 761 825 808 808 q 640 845 713 843 l 581 182 q 623 180 602 180 q 712 190 667 180 q 793 215 758 200 q 847 247 829 231 l 848 43 q 734 4 793 20 q 597 -11 676 -11 l 564 -10 l 543 -240 l 444 -240 l 465 1 q 252 92 339 24 q 119 267 164 160 q 75 513 75 374 q 138 792 75 675 q 311 971 201 908 q 558 1042 420 1034 l 575 1231 m 540 836 q 386 733 442 812 q 329 528 329 653 q 368 329 329 410 q 484 210 407 247 l 540 836 z "},"¢":{"ha":805,"x_min":98,"x_max":696,"o":"m 696 66 q 614 17 665 37 q 501 -9 562 -3 l 499 -146 l 382 -146 l 385 -5 q 227 62 292 9 q 130 196 162 115 q 98 377 98 277 q 132 566 98 481 q 235 706 165 650 q 405 778 304 762 l 409 934 l 525 934 l 522 783 q 622 769 578 780 q 684 745 666 758 l 658 581 q 593 604 629 597 q 505 611 557 611 q 412 590 456 611 q 339 523 368 570 q 308 404 310 477 q 330 268 306 323 q 397 186 353 213 q 497 159 441 159 q 594 169 548 159 q 665 191 641 178 l 696 66 z "},"₡":{"ha":975,"x_min":66,"x_max":883,"o":"m 487 1231 l 566 1231 l 553 1040 q 622 1043 591 1043 q 646 1042 638 1043 l 659 1231 l 739 1231 l 726 1037 q 790 1026 763 1032 q 854 1010 817 1020 q 883 1002 867 1005 l 852 790 q 713 841 799 829 l 669 181 q 787 204 729 184 q 869 247 844 224 l 869 43 q 773 8 823 23 q 656 -9 722 -6 l 641 -240 l 562 -240 l 576 -9 q 484 0 530 -7 l 469 -240 l 389 -240 l 406 18 q 154 195 241 66 q 66 513 66 323 q 118 763 66 656 q 262 937 170 870 q 473 1028 353 1003 l 487 1231 m 633 845 q 540 833 584 844 l 498 206 q 589 184 540 190 l 633 845 m 458 800 q 357 691 393 760 q 321 528 321 622 q 346 368 321 438 q 422 254 372 298 l 458 800 z "},"¤":{"ha":1047,"x_min":136,"x_max":911,"o":"m 823 524 q 809 432 823 476 q 770 349 795 387 l 903 214 l 808 116 l 670 256 q 518 215 600 215 q 368 255 437 215 l 231 115 l 136 213 l 268 348 q 228 431 242 386 q 214 524 214 475 q 267 699 214 619 l 136 832 l 231 932 l 366 792 q 518 833 436 833 q 671 792 602 833 l 816 937 l 911 837 l 772 696 q 823 524 823 618 m 519 364 q 596 386 561 364 q 652 445 631 408 q 673 524 673 482 q 652 603 673 566 q 596 662 631 640 q 519 684 561 684 q 443 662 478 684 q 386 603 407 640 q 365 524 365 566 q 386 445 365 482 q 443 386 407 408 q 519 364 478 364 z "},"$":{"ha":956,"x_min":151,"x_max":825,"o":"m 825 277 q 786 129 825 191 q 677 32 747 67 q 511 -9 606 -3 l 508 -153 l 383 -153 l 387 -7 q 249 18 313 1 q 160 50 185 35 l 191 223 q 310 177 240 196 q 456 158 380 158 q 574 183 540 158 q 608 263 608 209 q 591 325 608 300 q 533 376 574 351 q 408 444 493 402 q 222 576 294 500 q 151 765 151 651 q 223 952 151 886 q 418 1037 296 1019 l 422 1196 l 547 1196 l 543 1042 q 684 1021 621 1039 q 778 983 747 1003 l 743 816 q 642 863 696 845 q 517 882 587 882 q 399 854 435 882 q 363 776 363 827 q 381 714 363 740 q 434 665 399 688 q 541 604 469 642 q 697 511 639 552 q 790 413 755 470 q 825 277 825 356 z "},"₫":{"ha":932,"x_min":92,"x_max":907,"o":"m 562 1031 l 562 1149 l 784 1149 l 784 1031 l 907 1031 l 907 918 l 784 918 l 784 197 l 602 197 q 587 224 587 197 l 587 272 q 507 219 553 241 q 381 197 461 197 q 240 231 304 197 q 140 332 177 264 q 102 499 102 400 q 145 686 102 608 q 267 805 188 764 q 454 846 347 846 q 564 836 517 846 l 562 918 l 340 918 l 340 1031 l 562 1031 m 562 673 q 461 698 536 698 q 356 647 387 698 q 326 503 326 597 q 356 390 326 427 q 433 353 387 353 q 495 359 469 353 q 531 373 520 366 q 562 393 543 379 l 562 673 m 841 134 l 841 0 l 92 0 l 92 134 l 841 134 z "},"€":{"ha":1020,"x_min":62,"x_max":936,"o":"m 936 34 q 883 19 918 31 q 784 -9 836 1 q 643 -19 732 -19 q 353 69 464 -19 q 207 320 243 157 l 62 320 l 62 450 l 191 450 q 190 488 190 463 q 195 581 190 539 l 87 581 l 87 711 l 219 711 q 379 953 265 869 q 657 1043 492 1038 q 688 1044 668 1044 q 791 1036 751 1044 q 876 1014 832 1028 q 918 1002 901 1006 l 882 837 q 797 872 840 861 q 675 883 754 883 q 531 840 591 883 q 441 711 471 798 l 777 711 l 777 581 l 416 581 q 415 535 415 551 q 418 450 415 486 l 744 450 l 744 320 l 437 320 q 519 183 462 231 q 675 136 576 136 q 800 152 740 136 q 895 193 860 168 l 936 34 z "},"ƒ":{"ha":800,"x_min":141,"x_max":744,"o":"m 141 627 l 151 747 l 272 773 l 278 829 q 339 1011 290 941 q 461 1112 389 1081 q 619 1142 534 1142 q 697 1138 662 1142 q 744 1128 732 1133 l 732 972 q 693 984 720 980 q 625 988 665 988 q 535 951 570 988 q 492 833 500 913 l 485 773 l 671 773 l 659 627 l 473 627 l 398 -241 l 185 -241 l 260 627 l 141 627 z "},"₣":{"ha":859,"x_min":37,"x_max":789,"o":"m 153 297 l 153 1032 l 789 1032 l 789 850 l 397 850 l 397 585 l 702 585 l 702 404 l 397 404 l 397 297 l 580 297 l 580 147 l 397 147 l 397 0 l 153 0 l 153 147 l 37 147 l 37 297 l 153 297 z "},"₲":{"ha":1034,"x_min":53,"x_max":933,"o":"m 488 1195 l 628 1195 l 628 1042 q 730 1032 686 1040 q 825 1013 774 1025 l 877 1002 l 870 796 q 754 836 827 820 q 589 852 682 852 q 436 813 500 852 q 337 702 372 774 q 303 529 303 629 q 333 342 303 424 q 420 216 363 261 q 557 170 477 170 q 711 196 668 170 l 711 387 l 555 399 l 555 570 l 933 570 l 933 59 q 891 53 911 58 q 840 37 871 47 q 733 5 785 17 q 603 -9 682 -6 l 602 -175 l 461 -175 l 463 -4 q 246 81 338 14 q 103 258 153 148 q 53 511 53 368 q 109 787 53 674 q 261 961 164 899 q 488 1038 359 1022 l 488 1195 z "},"₤":{"ha":1082,"x_min":77,"x_max":1038,"o":"m 277 674 l 277 703 q 323 881 277 804 q 457 1000 370 958 q 663 1043 544 1043 q 921 971 823 1043 l 823 797 q 756 837 799 820 q 663 854 713 854 q 581 840 612 854 q 532 785 549 825 q 515 674 515 746 l 729 674 l 729 572 l 515 572 l 515 492 l 714 492 l 714 391 l 515 391 q 501 262 513 313 q 461 184 490 210 q 493 176 475 181 q 520 168 511 171 q 592 149 561 155 q 661 142 623 142 q 773 172 736 142 q 810 250 810 201 q 802 290 810 270 q 781 323 793 309 q 760 342 769 338 l 935 420 q 977 384 953 410 q 1019 319 1001 359 q 1038 232 1038 280 q 958 54 1038 119 q 718 -11 878 -11 q 568 2 634 -11 q 426 37 502 15 q 365 53 388 48 q 325 58 342 58 q 259 16 301 36 q 180 -4 216 -4 q 108 16 140 -4 q 77 76 77 35 q 102 141 77 113 q 169 185 127 169 q 256 204 210 201 q 277 357 277 227 l 277 391 l 142 391 l 142 492 l 277 492 l 277 572 l 157 572 l 157 674 l 277 674 z "},"₺":{"ha":1002,"x_min":80,"x_max":943,"o":"m 943 450 q 882 212 943 313 q 711 55 822 110 q 451 0 600 0 l 225 0 l 225 360 l 87 302 l 87 415 l 225 473 l 225 609 l 80 547 l 80 667 l 225 729 l 225 1043 l 451 1043 l 451 825 l 742 949 l 742 829 l 451 705 l 451 568 l 727 684 l 727 571 l 451 455 l 451 174 q 666 251 595 174 q 739 488 736 328 l 943 488 l 943 450 z "},"₦":{"ha":1164,"x_min":45,"x_max":1141,"o":"m 180 758 l 180 1032 l 378 1032 l 544 758 l 797 758 l 797 1032 l 1010 1032 l 1010 758 l 1141 758 l 1141 658 l 1010 658 l 1010 376 l 1122 376 l 1122 277 l 1010 277 l 1010 0 l 800 0 l 637 277 l 393 277 l 393 0 l 180 0 l 180 277 l 45 277 l 45 376 l 180 376 l 180 658 l 60 658 l 60 758 l 180 758 m 363 758 l 364 758 l 363 758 l 363 758 m 578 376 l 464 572 l 418 658 l 374 658 l 393 486 l 393 376 l 578 376 m 767 376 l 812 376 l 797 536 l 797 658 l 604 658 l 729 449 l 767 376 m 823 271 l 822 277 l 820 277 l 823 271 z "},"₧":{"ha":1030,"x_min":22,"x_max":1025,"o":"m 134 722 l 134 1032 l 251 1032 q 366 1037 292 1032 q 530 1043 477 1043 q 817 968 715 1043 q 928 722 918 893 l 1025 722 l 1025 623 l 926 623 q 802 390 908 470 q 507 311 695 311 q 396 312 445 311 q 382 313 391 313 l 382 0 l 134 0 l 134 623 l 22 623 l 22 722 l 134 722 m 686 722 q 633 836 677 796 q 506 875 589 875 q 382 866 443 875 l 382 722 l 686 722 m 508 481 q 625 515 579 481 q 684 623 671 549 l 382 623 l 382 487 q 508 481 440 481 z "},"₱":{"ha":1046,"x_min":42,"x_max":1031,"o":"m 142 772 l 142 1032 l 258 1032 q 373 1037 300 1032 q 537 1043 484 1043 q 805 979 706 1043 q 928 772 903 916 l 1031 772 l 1031 699 l 936 699 l 937 669 q 935 623 937 645 l 1031 623 l 1031 550 l 924 550 q 789 351 892 419 q 515 283 686 283 q 411 286 480 283 l 390 286 l 390 0 l 142 0 l 142 550 l 42 550 l 42 623 l 142 623 l 142 699 l 42 699 l 42 772 l 142 772 m 680 772 q 514 875 640 875 q 390 866 450 875 l 390 772 l 680 772 m 390 699 l 390 623 l 694 623 q 696 669 696 642 q 695 699 696 679 l 390 699 m 516 454 q 675 550 634 454 l 390 550 l 390 460 q 516 454 454 454 z "},"₹":{"ha":1000,"x_min":124,"x_max":939,"o":"m 637 0 q 595 40 618 0 q 534 164 572 80 q 466 304 495 251 q 407 385 437 357 l 391 382 q 251 378 328 378 q 124 382 167 378 l 124 517 q 218 515 140 515 l 353 515 q 465 552 418 515 q 530 660 512 589 l 124 660 l 124 785 l 541 785 q 525 854 538 827 q 475 895 511 880 q 373 909 439 909 l 124 909 l 124 1032 l 939 1032 l 939 909 l 753 909 q 785 785 780 861 l 917 785 l 917 660 l 776 660 q 719 528 759 585 q 620 437 679 471 q 679 378 652 414 q 724 306 705 343 q 773 205 744 268 q 831 86 805 134 q 890 0 857 38 l 637 0 z "},"₪":{"ha":1311,"x_min":134,"x_max":1177,"o":"m 134 1032 l 703 1032 q 825 1005 781 1032 q 888 916 869 977 q 907 745 907 854 l 907 268 l 719 268 l 719 704 q 715 793 719 766 q 690 837 711 821 q 619 853 669 853 l 321 853 l 321 0 l 134 0 l 134 1032 m 1177 0 l 668 0 q 475 67 539 0 q 410 288 410 134 l 410 745 l 604 745 l 604 288 q 615 213 604 238 q 659 177 627 187 q 758 166 692 166 l 989 166 l 989 1032 l 1177 1032 l 1177 0 z "},"£":{"ha":1069,"x_min":77,"x_max":985,"o":"m 890 411 q 957 350 928 389 q 985 236 985 311 q 906 54 985 119 q 674 -12 827 -12 q 540 1 596 -12 q 420 36 484 14 q 359 56 382 50 q 314 61 336 62 q 251 15 291 35 q 174 -5 212 -5 q 129 3 151 -5 q 92 31 106 12 q 77 79 77 50 q 101 142 77 115 q 166 184 125 169 q 258 201 208 199 q 277 268 271 218 q 282 363 282 318 l 282 486 l 163 486 l 163 609 l 282 609 l 282 695 q 321 876 282 798 q 440 999 361 955 q 633 1043 519 1043 q 775 1024 711 1043 q 882 977 838 1006 l 797 822 q 653 878 725 878 q 575 864 608 878 q 521 801 543 850 q 499 653 499 752 l 499 609 l 709 609 l 709 486 l 499 486 l 499 376 q 480 246 499 294 q 425 166 461 199 q 482 153 448 161 q 559 136 526 141 q 636 130 591 130 q 752 158 715 130 q 789 236 789 186 q 777 297 789 270 q 747 336 764 324 l 890 411 z "},"₩":{"ha":1359,"x_min":39,"x_max":1321,"o":"m 1048 -5 l 825 -5 l 767 275 l 589 275 l 534 -5 l 311 -5 l 250 275 l 39 275 l 39 406 l 222 406 l 196 522 l 39 522 l 39 653 l 168 653 l 85 1032 l 284 1032 l 348 653 l 511 653 l 593 1032 l 774 1032 l 856 653 l 1023 653 l 1088 1032 l 1274 1032 l 1192 653 l 1321 653 l 1321 522 l 1162 522 l 1138 406 l 1321 406 l 1321 275 l 1109 275 l 1048 -5 m 694 653 l 676 783 l 660 653 l 694 653 m 458 406 l 483 522 l 370 522 l 389 406 l 458 406 m 741 406 l 717 522 l 637 522 l 614 406 l 741 406 m 980 406 l 1000 522 l 884 522 l 909 406 l 980 406 m 437 275 l 406 275 l 422 154 l 437 275 m 963 275 l 931 275 l 949 163 l 963 275 z "},"¥":{"ha":1069,"x_min":107,"x_max":975,"o":"m 688 577 l 869 577 l 869 447 l 633 447 l 633 313 l 869 313 l 869 182 l 633 182 l 633 0 l 437 0 l 437 182 l 194 182 l 194 313 l 437 313 l 437 447 l 194 447 l 194 577 l 391 577 l 107 1032 l 326 1032 l 489 747 l 536 652 l 581 749 l 754 1032 l 975 1032 l 688 577 z "},"Ω":{"ha":1244,"x_min":115,"x_max":1129,"o":"m 1129 148 l 1129 0 l 718 0 l 718 121 q 799 207 761 147 q 860 357 836 267 q 884 554 884 446 q 848 748 884 671 q 753 862 812 825 q 623 898 694 898 q 485 862 547 898 q 386 749 423 826 q 349 554 349 671 q 377 358 349 448 q 448 209 406 269 q 534 121 490 148 l 534 0 l 115 0 l 115 148 l 321 148 q 224 260 269 193 q 152 410 179 328 q 126 572 125 491 q 197 843 130 737 q 375 999 264 949 q 623 1048 486 1048 q 878 998 769 1048 q 1046 844 986 947 q 1107 587 1107 741 q 1082 417 1107 500 q 1015 264 1058 334 q 917 148 972 194 l 1129 148 z "},"≈":{"ha":982,"x_min":140,"x_max":842,"o":"m 143 273 q 184 337 152 302 q 264 397 217 372 q 363 422 312 422 q 427 413 399 422 q 475 393 455 405 q 520 361 495 380 q 574 327 552 338 q 627 315 597 315 q 703 335 671 315 q 764 387 735 355 l 842 293 q 800 227 832 260 q 720 172 768 193 q 618 150 672 150 q 557 158 583 150 q 512 178 530 166 q 472 210 494 191 q 419 246 441 234 q 364 258 397 258 q 292 238 321 258 q 231 186 262 219 l 143 273 m 140 607 q 181 671 149 636 q 261 731 214 707 q 360 756 309 756 q 424 748 396 756 q 472 727 452 739 q 517 696 492 715 q 571 661 549 672 q 624 650 593 650 q 700 670 667 650 q 760 721 732 690 l 839 627 q 797 561 829 595 q 716 506 764 528 q 614 484 669 484 q 553 492 580 484 q 509 513 527 500 q 469 544 491 525 q 416 580 438 568 q 361 592 394 592 q 288 573 318 592 q 228 520 258 553 l 140 607 z "},"~":{"ha":982,"x_min":141,"x_max":840,"o":"m 141 563 q 182 627 150 592 q 262 687 215 663 q 361 712 310 712 q 425 704 397 712 q 473 683 453 695 q 518 652 493 671 q 572 617 550 628 q 625 606 595 606 q 701 626 669 606 q 762 677 733 646 l 840 583 q 798 517 830 551 q 718 462 766 484 q 616 440 670 440 q 555 448 581 440 q 510 469 528 456 q 470 500 492 481 q 417 536 439 524 q 362 548 395 548 q 290 529 319 548 q 229 476 260 509 l 141 563 z "},"∙":{"ha":435,"x_min":69,"x_max":366,"o":"m 69 529 q 90 608 69 571 q 147 667 111 645 q 224 689 183 689 q 300 670 268 689 q 349 616 332 650 q 366 540 366 583 q 345 460 366 497 q 289 402 324 424 q 212 380 254 380 q 138 400 171 380 q 87 453 106 419 q 69 529 69 487 z "},"÷":{"ha":951,"x_min":138,"x_max":814,"o":"m 357 823 q 376 892 357 860 q 428 943 395 924 q 496 962 460 962 q 588 927 555 962 q 621 836 621 891 q 603 765 621 798 q 552 714 584 733 q 483 695 520 695 q 418 711 447 695 q 374 757 390 728 q 357 823 357 786 m 814 603 l 814 444 l 138 444 l 138 603 l 814 603 m 355 220 q 374 290 355 258 q 425 341 393 321 q 494 360 457 360 q 585 325 552 360 q 618 233 618 289 q 600 163 618 195 q 549 112 581 131 q 480 93 517 93 q 416 109 444 93 q 371 155 387 125 q 355 220 355 184 z "},"∕":{"ha":579,"x_min":-65,"x_max":645,"o":"m 645 1084 l 119 -246 l -65 -246 l 460 1084 l 645 1084 z "},"=":{"ha":965,"x_min":170,"x_max":795,"o":"m 795 772 l 795 626 l 170 626 l 170 772 l 795 772 m 795 425 l 795 279 l 170 279 l 170 425 l 795 425 z "},">":{"ha":934,"x_min":148,"x_max":793,"o":"m 793 578 l 793 473 l 148 155 l 148 347 l 553 525 l 148 717 l 148 903 l 793 578 z "},"≥":{"ha":935,"x_min":152,"x_max":809,"o":"m 809 577 l 809 472 l 152 189 l 152 367 l 579 525 l 152 684 l 152 862 l 809 577 m 152 138 l 809 138 l 809 -1 l 152 -1 l 152 138 z "},"∆":{"ha":1100,"x_min":53,"x_max":1047,"o":"m 519 1023 l 541 1023 l 1047 18 l 1036 0 l 62 0 l 53 15 l 519 1023 m 532 669 l 307 171 l 771 171 l 532 669 z "},"∞":{"ha":1360,"x_min":57,"x_max":1303,"o":"m 977 711 q 1158 671 1084 713 q 1268 562 1232 630 q 1303 416 1303 494 q 1264 267 1303 334 q 1151 160 1225 200 q 979 121 1078 121 q 794 161 867 121 q 669 273 722 201 q 541 165 612 206 q 385 123 470 124 q 207 163 281 122 q 95 271 132 203 q 57 418 57 339 q 97 566 57 498 q 211 674 137 634 q 380 714 284 714 q 567 673 493 714 q 694 559 640 632 q 822 669 751 627 q 977 711 893 711 m 407 269 q 498 299 454 269 q 588 389 543 329 q 486 516 541 465 q 371 567 431 567 q 304 549 334 567 q 257 497 274 530 q 240 419 240 463 q 258 343 240 377 q 313 289 276 309 q 407 269 351 269 m 987 264 q 1056 283 1026 264 q 1102 337 1086 302 q 1118 417 1118 372 q 1077 522 1118 481 q 955 562 1036 562 q 864 533 908 562 q 776 444 820 503 q 874 315 823 365 q 987 264 926 264 z "},"∫":{"ha":734,"x_min":71,"x_max":667,"o":"m 133 -131 q 169 -164 143 -146 q 225 -195 194 -182 q 283 -208 256 -208 q 382 -165 353 -208 q 412 -40 412 -123 q 394 96 412 26 q 347 232 375 166 q 275 392 319 298 q 204 549 230 488 q 159 678 178 610 q 139 808 140 745 q 169 979 136 903 q 272 1098 201 1054 q 454 1143 344 1143 q 594 1116 540 1143 q 667 1050 648 1090 l 583 939 q 560 966 576 952 q 518 989 543 980 q 463 999 493 999 q 326 815 320 999 q 346 684 327 752 q 391 554 365 616 q 462 398 418 491 q 534 239 507 304 q 580 106 562 175 q 598 -27 598 37 q 566 -183 598 -109 q 465 -304 534 -257 q 288 -351 395 -351 q 205 -339 252 -351 q 121 -306 159 -327 q 71 -262 83 -286 l 133 -131 z "},"<":{"ha":935,"x_min":134,"x_max":779,"o":"m 779 717 l 374 525 l 779 347 l 779 155 l 134 473 l 134 578 l 779 903 l 779 717 z "},"≤":{"ha":935,"x_min":119,"x_max":776,"o":"m 776 684 l 349 525 l 776 367 l 776 189 l 119 472 l 119 577 l 776 862 l 776 684 m 119 138 l 776 138 l 776 -1 l 119 -1 l 119 138 z "},"¬":{"ha":1004,"x_min":166,"x_max":838,"o":"m 838 578 l 838 219 l 672 219 l 672 433 l 166 433 l 166 578 l 838 578 z "},"µ":{"ha":952,"x_min":123,"x_max":907,"o":"m 907 59 q 876 32 900 49 q 815 1 852 15 q 734 -12 778 -12 q 632 81 636 -12 q 563 17 606 44 q 453 -11 519 -11 q 360 0 399 -11 q 294 35 321 10 l 314 -252 l 123 -252 l 123 773 l 334 773 l 334 328 q 348 229 334 266 q 392 174 361 191 q 473 157 422 157 q 534 171 502 157 q 589 203 566 184 l 589 773 l 801 773 l 801 191 q 830 139 801 139 q 854 143 839 139 q 886 157 869 147 l 907 59 z "},"−":{"ha":922,"x_min":173,"x_max":749,"o":"m 749 603 l 749 437 l 173 437 l 173 603 l 749 603 z "},"×":{"ha":936,"x_min":114,"x_max":824,"o":"m 114 787 l 230 895 l 470 639 l 708 895 l 824 787 l 581 527 l 822 277 l 706 161 l 468 410 l 230 161 l 114 277 l 357 526 l 114 787 z "},"≠":{"ha":965,"x_min":170,"x_max":795,"o":"m 578 626 l 509 425 l 795 425 l 795 279 l 456 279 l 406 138 l 275 138 l 325 279 l 170 279 l 170 425 l 378 425 l 448 626 l 170 626 l 170 772 l 500 772 l 545 895 l 676 895 l 632 772 l 795 772 l 795 626 l 578 626 z "},"∂":{"ha":960,"x_min":82,"x_max":884,"o":"m 371 1171 q 661 1085 545 1171 q 830 860 776 999 q 884 556 884 720 q 779 130 884 279 q 454 -20 673 -20 q 274 26 357 -20 q 139 153 190 72 q 85 336 87 235 q 138 566 82 475 q 288 701 194 658 q 495 743 382 743 q 586 733 545 743 q 665 703 627 722 q 563 931 645 848 q 340 1014 481 1014 q 245 1001 294 1014 q 164 966 197 987 l 94 1085 q 223 1148 149 1126 q 371 1171 298 1171 m 487 130 q 633 243 595 130 q 671 494 671 357 l 671 555 q 590 592 631 581 q 498 604 550 604 q 355 546 407 604 q 304 368 304 488 q 345 193 304 255 q 487 130 385 130 z "},"%":{"ha":1484,"x_min":70,"x_max":1414,"o":"m 1027 1038 l 625 0 l 458 0 l 859 1038 l 1027 1038 m 70 726 q 111 891 70 821 q 219 997 151 960 q 364 1033 286 1033 q 512 993 453 1033 q 600 886 572 954 q 628 731 628 818 q 587 567 628 636 q 480 461 547 498 q 335 425 413 425 q 189 465 249 425 q 100 573 130 505 q 70 726 70 642 m 459 726 q 430 853 459 806 q 350 900 401 900 q 268 856 296 900 q 239 732 239 811 q 268 607 239 654 q 347 559 296 559 q 430 603 401 559 q 459 726 459 647 m 855 309 q 896 474 855 405 q 1004 580 937 544 q 1150 616 1072 616 q 1298 577 1239 616 q 1385 469 1357 537 q 1414 315 1414 401 q 1373 150 1414 220 q 1266 44 1333 81 q 1122 8 1199 8 q 975 48 1036 8 q 885 156 915 88 q 855 309 855 224 m 1244 309 q 1216 436 1244 389 q 1136 484 1187 484 q 1053 439 1082 484 q 1024 316 1024 395 q 1053 190 1024 238 q 1133 142 1082 142 q 1216 186 1187 142 q 1244 309 1244 231 z "},"‰":{"ha":2110,"x_min":70,"x_max":2040,"o":"m 1027 1038 l 625 0 l 458 0 l 859 1038 l 1027 1038 m 70 726 q 111 891 70 821 q 219 997 151 960 q 364 1033 286 1033 q 512 993 453 1033 q 600 886 572 954 q 628 731 628 818 q 587 567 628 636 q 480 461 547 498 q 335 425 413 425 q 189 465 249 425 q 100 573 130 505 q 70 726 70 642 m 459 726 q 430 853 459 806 q 350 900 401 900 q 268 856 296 900 q 239 732 239 811 q 268 607 239 654 q 347 559 296 559 q 430 603 401 559 q 459 726 459 647 m 855 309 q 896 474 855 405 q 1004 580 937 544 q 1150 616 1072 616 q 1298 577 1239 616 q 1385 469 1357 537 q 1414 315 1414 401 q 1373 150 1414 220 q 1266 44 1333 81 q 1122 8 1199 8 q 975 48 1036 8 q 885 156 915 88 q 855 309 855 224 m 1481 309 q 1522 474 1481 405 q 1630 580 1563 544 q 1776 616 1697 616 q 1924 577 1865 616 q 2011 469 1983 537 q 2040 315 2040 401 q 1999 150 2040 220 q 1892 44 1959 81 q 1748 8 1825 8 q 1601 48 1662 8 q 1511 156 1541 88 q 1481 309 1481 224 m 1244 309 q 1216 436 1244 389 q 1136 484 1187 484 q 1053 439 1082 484 q 1024 316 1024 395 q 1053 190 1024 238 q 1133 142 1082 142 q 1216 186 1187 142 q 1244 309 1244 231 m 1870 309 q 1842 436 1870 389 q 1762 484 1813 484 q 1679 439 1708 484 q 1650 316 1650 395 q 1679 190 1650 238 q 1759 142 1708 142 q 1842 186 1813 142 q 1870 309 1870 231 z "},"+":{"ha":951,"x_min":144,"x_max":807,"o":"m 396 449 l 286 445 l 144 445 l 144 606 l 286 606 l 396 601 l 392 728 l 392 875 l 559 875 l 559 728 l 554 601 l 656 606 l 807 606 l 807 445 l 656 445 l 554 449 l 559 321 l 559 176 l 392 176 l 392 321 l 396 449 z "},"±":{"ha":951,"x_min":144,"x_max":807,"o":"m 396 449 l 286 445 l 144 445 l 144 606 l 286 606 l 396 601 l 392 728 l 392 875 l 559 875 l 559 728 l 554 601 l 656 606 l 807 606 l 807 445 l 656 445 l 554 449 l 559 321 l 559 176 l 392 176 l 392 321 l 396 449 m 781 134 l 781 0 l 165 0 l 165 134 l 781 134 z "},"∏":{"ha":1158,"x_min":71,"x_max":1088,"o":"m 1088 876 l 934 876 l 934 -116 l 718 -116 l 718 876 l 433 876 l 433 -116 l 218 -116 l 218 876 l 71 876 l 71 1032 l 1088 1032 l 1088 876 z "},"√":{"ha":1114,"x_min":74,"x_max":1144,"o":"m 1144 1268 l 658 -240 l 481 -240 l 254 294 l 146 239 l 74 389 l 260 486 l 399 486 l 568 14 l 935 1268 l 1144 1268 z "},"∑":{"ha":992,"x_min":103,"x_max":879,"o":"m 879 33 l 879 -115 l 121 -115 l 103 -72 l 477 461 l 103 978 l 123 1032 l 851 1032 l 851 877 l 391 877 l 685 465 l 396 33 l 879 33 z "},"◊":{"ha":891,"x_min":47,"x_max":844,"o":"m 448 1042 l 844 526 l 844 517 l 448 0 l 444 0 l 47 517 l 47 526 l 445 1042 l 448 1042 m 242 519 l 445 246 l 447 246 l 650 522 l 650 524 l 447 784 l 445 784 l 242 524 l 242 519 z "},"|":{"ha":587,"x_min":207,"x_max":380,"o":"m 380 1207 l 380 -127 l 207 -127 l 207 1207 l 380 1207 z "},"¦":{"ha":587,"x_min":207,"x_max":380,"o":"m 380 1207 l 380 654 l 207 654 l 207 1207 l 380 1207 m 380 420 l 380 -126 l 207 -126 l 207 420 l 380 420 z "},"@":{"ha":1511,"x_min":116,"x_max":1394,"o":"m 860 123 q 859 175 859 153 q 750 45 811 93 q 613 -3 688 -3 q 522 30 566 -3 q 448 129 477 63 q 418 288 418 195 q 462 493 418 390 q 596 664 506 595 q 820 732 687 732 q 908 723 867 732 q 977 695 950 714 l 1103 716 q 1060 515 1086 643 q 1016 290 1034 387 q 1004 188 1004 226 q 1012 145 1004 158 q 1037 133 1020 133 q 1138 183 1088 133 q 1220 322 1188 233 q 1253 526 1253 412 q 1138 838 1253 749 q 838 926 1023 926 q 551 850 684 926 q 338 632 418 774 q 259 304 259 491 q 326 13 259 125 q 498 -149 393 -100 q 728 -197 604 -197 q 865 -186 808 -197 q 957 -161 923 -175 q 1032 -124 991 -146 l 1061 -232 q 714 -317 919 -317 q 410 -250 545 -317 q 195 -45 275 -183 q 116 298 116 94 q 214 688 116 518 q 480 952 313 859 q 850 1046 648 1046 q 1133 989 1010 1046 q 1325 819 1255 931 q 1394 546 1394 706 q 1336 248 1394 372 q 1185 60 1278 123 q 988 -3 1092 -3 q 896 28 927 -3 q 860 123 865 60 m 661 151 q 758 220 705 151 q 853 387 812 289 q 905 562 895 486 q 864 589 892 579 q 798 599 836 599 q 689 557 739 599 q 612 449 640 515 q 583 316 585 383 q 661 151 581 151 z "}}}
